{
.appVersion = "1230";
copyright = "Copyright 2018 The Red Rose Project Authors (https://github.com/magictype/redrose)";
customParameters = (
{
name = license;
value = "This Font Software is licensed under the SIL Open Font License, Version 1.1. This license is available with a FAQ at: http://scripts.sil.org/OFL";
},
{
name = licenseURL;
value = "http://scripts.sil.org/OFL";
},
{
name = fsType;
value = (
);
},
{
name = "Use Typo Metrics";
value = 1;
},
{
name = "Disable Last Change";
value = 1;
},
{
name = "Use Line Breaks";
value = 1;
}
);
date = "2018-02-14 06:19:28 +0000";
designer = "jaikishan Patel";
designerURL = "http://jaiki.in";
disablesNiceNames = 1;
familyName = "Red Rose";
featurePrefixes = (
{
code = "languagesystem DFLT dflt;
";
name = Languagesystems;
}
);
features = (
{
automatic = 1;
code = "feature ccmp;
feature locl;
feature sups;
feature numr;
feature dnom;
feature frac;
feature ordn;
feature zero;
";
name = aalt;
},
{
automatic = 1;
code = "lookup ccmp_Other_1 {
	@CombiningTopAccents = [acutecomb brevecomb breveinvertedcomb caroncomb circumflexcomb commaturnedabovecomb dblgravecomb dieresiscomb dotaccentcomb gravecomb hookabovecomb hungarumlautcomb macroncomb ringcomb tildecomb];
	@CombiningNonTopAccents = [brevebelowcomb cedillacomb dieresisbelowcomb dotbelowcomb macronbelowcomb ogonekcomb horncomb slashlongcomb slashshortcomb strokelongcomb strokeshortcomb];
	sub [i j]' @CombiningTopAccents by [idotless jdotless];
	sub [i j]' @CombiningNonTopAccents @CombiningTopAccents by [idotless jdotless];
} ccmp_Other_1;

lookup ccmp_latn_1 {
	script latn;
	lookupflag 0;
	sub brevecomb acutecomb by brevecomb_acutecomb;
	sub brevecomb gravecomb by brevecomb_gravecomb;
	sub brevecomb hookabovecomb by brevecomb_hookabovecomb;
	sub brevecomb tildecomb by brevecomb_tildecomb;
	sub circumflexcomb acutecomb by circumflexcomb_acutecomb;
	sub circumflexcomb gravecomb by circumflexcomb_gravecomb;
	sub circumflexcomb hookabovecomb by circumflexcomb_hookabovecomb;

glyphs = (
{
color = 1;
glyphname = A;
layers = (
{
anchors = (
{
name = bottom;
position = "{372, 50}";
},
{
name = ogonek;
position = "{665, 10}";
},
{
name = top;
position = "{372, 600}";
}
);
layerId = "083550D2-F2E8-44E3-BE3D-E8BDF41EDFC4";
paths = (
{
closed = 1;
nodes = (
"178 0 LINE",
"178 0 OFFCURVE",
"156 1 OFFCURVE",
"172 61 CURVE",
"175 74 OFFCURVE",
"181 91 OFFCURVE",
"186 107 CURVE",
"195 135 OFFCURVE",
"204 136 OFFCURVE",
"243 136 CURVE",
"499 136 LINE",
"533 136 OFFCURVE",
"541 133 OFFCURVE",
"553 106 CURVE",
"558 96 OFFCURVE",
"566 71 OFFCURVE",
"569 61 CURVE",
"585 4 OFFCURVE",
"555 0 OFFCURVE",
"555 0 CURVE",
"740 0 LINE",
"740 0 OFFCURVE",
"719 1 OFFCURVE",
"690 61 CURVE",
"659 125 OFFCURVE",
"496 479 OFFCURVE",
"470 540 CURVE",
"445 599 OFFCURVE",
"459 600 OFFCURVE",
"459 600 CURVE",
"284 600 LINE",
"284 600 OFFCURVE",
"299 599 OFFCURVE",
"273 540 CURVE",
"246 478 OFFCURVE",
"78 120 OFFCURVE",
"50 61 CURVE",
"21 1 OFFCURVE",
"10 0 OFFCURVE",
"10 0 CURVE"
);
},
{
closed = 1;
nodes = (
"230 216 OFFCURVE",
"233 224 OFFCURVE",
"242 246 CURVE",
"242 247 OFFCURVE",
"370 520 OFFCURVE",
"370 520 CURVE",
"372 520 LINE",
"372 520 OFFCURVE",
"449 360 OFFCURVE",
"499 243 CURVE",
"507 220 OFFCURVE",
"508 216 OFFCURVE",
"470 216 CURVE",
"269 216 LINE"
);
}
);
width = 750;
},
{
anchors = (
{
name = bottom;
position = "{375, 50}";
},
{
name = ogonek;
position = "{620, 10}";
},
{
name = top;
position = "{375, 600}";
}
);
layerId = "1A280FA7-9E72-4FC3-84C1-49B7BD56B269";
paths = (
{
closed = 1;
nodes = (
"220 0 LINE",
"220 0 OFFCURVE",
"202 2 OFFCURVE",
"214 61 CURVE",
"215 68 OFFCURVE",
"218 80 OFFCURVE",
"219 87 CURVE",
"225 114 OFFCURVE",
"230 116 OFFCURVE",
"285 116 CURVE",
"457 116 LINE",
"509 116 OFFCURVE",
"511 116 OFFCURVE",
"520 86 CURVE",
"524 74 OFFCURVE",
"524 70 OFFCURVE",
"526 61 CURVE",
"537 3 OFFCURVE",
"513 0 OFFCURVE",
"513 0 CURVE",
"740 0 LINE",
"740 0 OFFCURVE",
"717 1 OFFCURVE",
"690 61 CURVE",
"661 125 OFFCURVE",
"515 477 OFFCURVE",
"491 540 CURVE",
"468 600 OFFCURVE",
"480 600 OFFCURVE",
"480 600 CURVE",
"262 600 LINE",
"262 600 OFFCURVE",
"275 599 OFFCURVE",
"252 540 CURVE",
"227 477 OFFCURVE",
"76 121 OFFCURVE",
"50 61 CURVE",
"24 1 OFFCURVE",
"10 0 OFFCURVE",
"10 0 CURVE"
);
},
{
closed = 1;
nodes = (
"271 226 OFFCURVE",
"275 234 OFFCURVE",
"284 256 CURVE",
"284 257 OFFCURVE",
"370 490 OFFCURVE",
"370 490 CURVE",
"372 490 LINE",
"372 490 OFFCURVE",
"407 370 OFFCURVE",
"457 253 CURVE",
"465 230 OFFCURVE",
"467 226 OFFCURVE",
"428 226 CURVE",
"311 226 LINE"
);
}
);
width = 750;
},
{
associatedMasterId = "083550D2-F2E8-44E3-BE3D-E8BDF41EDFC4";
layerId = "0AAF2CB4-2EBD-42C4-BAB4-4CEC92C737FB";
width = 600;
},
{
anchors = (
{
name = bottom;
position = "{375, 50}";
},
{
name = ogonek;
position = "{665, 10}";
},
{
name = top;
position = "{349, 600}";
}
);
layerId = "CA5CD7F6-F0E6-40F5-9716-481B35A0BC32";
paths = (
{
closed = 1;
nodes = (
"107 0 LINE",
"107 0 OFFCURVE",
"86 1 OFFCURVE",
"111 61 CURVE",
"120 84 OFFCURVE",
"137 122 OFFCURVE",
"145 137 CURVE",
"157 162 OFFCURVE",
"158 166 OFFCURVE",
"197 166 CURVE",
"504 166 LINE",
"538 166 OFFCURVE",
"541 163 OFFCURVE",
"554 136 CURVE",
"559 126 OFFCURVE",
"575 93 OFFCURVE",
"585 71 CURVE",
"615 1 OFFCURVE",
"594 0 OFFCURVE",
"594 0 CURVE",
"698 0 LINE",
"698 0 OFFCURVE",
"679 -1 OFFCURVE",
"648 61 CURVE",
"616 124 OFFCURVE",
"438 480 OFFCURVE",
"410 540 CURVE",
"382 599 OFFCURVE",
"399 600 OFFCURVE",
"399 600 CURVE",
"301 600 LINE",
"301 600 OFFCURVE",
"321 599 OFFCURVE",
"291 540 CURVE",
"259 480 OFFCURVE",
"82 125 OFFCURVE",
"50 61 CURVE",
"21 3 OFFCURVE",
"10 0 OFFCURVE",
"10 0 CURVE"
);
},
{
closed = 1;
nodes = (
"180 206 OFFCURVE",
"181 215 OFFCURVE",
"192 236 CURVE",
"236 320 OFFCURVE",
"349 552 OFFCURVE",
"349 552 CURVE",
"351 552 LINE",
"351 552 OFFCURVE",
"466 315 OFFCURVE",
"507 233 CURVE",
"516 210 OFFCURVE",
"517 206 OFFCURVE",
"479 206 CURVE",
"219 206 LINE"
);
}
);
width = 708;
},
{
associatedMasterId = "CA5CD7F6-F0E6-40F5-9716-481B35A0BC32";
layerId = "FB78EF16-4CC4-4124-A2B3-B572133361B3";
width = 600;
}
);
unicode = 0041;
},
{
color = 1;
glyphname = AE;
layers = (
{
anchors = (
{
name = bottom;
position = "{528, 0}";
},
{
name = top;
position = "{528, 600}";
}
);
components = (
{
name = E;
transform = "{1, 0, 0, 1, 370, 0}";
}
);
layerId = "083550D2-F2E8-44E3-BE3D-E8BDF41EDFC4";
paths = (
{
closed = 1;
nodes = (
"178 0 LINE",
"178 0 OFFCURVE",
"156 1 OFFCURVE",
"172 61 CURVE",
"175 74 OFFCURVE",
"181 91 OFFCURVE",
"186 107 CURVE",
"195 135 OFFCURVE",
"204 136 OFFCURVE",
"243 136 CURVE",
"460 136 LINE",
"460 216 LINE",
"269 216 LINE",
"230 216 OFFCURVE",
"233 224 OFFCURVE",
"242 246 CURVE",
"242 247 OFFCURVE",
"370 520 OFFCURVE",
"370 520 CURVE",
"460 520 LINE",
"460 600 LINE",
"283 600 LINE",
"283 600 OFFCURVE",
"306 599 OFFCURVE",
"273 540 CURVE",
"240 481 OFFCURVE",
"80 119 OFFCURVE",
"50 61 CURVE",
"20 3 OFFCURVE",
"10 0 OFFCURVE",
"10 0 CURVE"
);
}
);
width = 1054;
},
{
anchors = (
{
name = bottom;
position = "{528, 0}";
},
{
name = top;
position = "{528, 600}";
}
);
components = (
{
name = E;
transform = "{1, 0, 0, 1, 370, 0}";
}
);
layerId = "1A280FA7-9E72-4FC3-84C1-49B7BD56B269";
paths = (
{
closed = 1;
nodes = (
"220 0 LINE",
"220 0 OFFCURVE",
"202 2 OFFCURVE",
"214 61 CURVE",
"215 68 OFFCURVE",
"218 80 OFFCURVE",
"219 87 CURVE",
"225 114 OFFCURVE",
"230 116 OFFCURVE",
"285 116 CURVE",
"460 116 LINE",
"460 226 LINE",
"311 226 LINE",
"271 226 OFFCURVE",
"275 234 OFFCURVE",
"284 256 CURVE",
"284 257 OFFCURVE",
"370 490 OFFCURVE",
"370 490 CURVE",
"460 490 LINE",
"460 600 LINE",
"262 600 LINE",
"262 600 OFFCURVE",
"275 599 OFFCURVE",
"252 540 CURVE",
"227 477 OFFCURVE",
"80 119 OFFCURVE",
"50 61 CURVE",
"20 3 OFFCURVE",
"10 0 OFFCURVE",
"10 0 CURVE"
);
}
);
width = 1075;
},
{
associatedMasterId = "083550D2-F2E8-44E3-BE3D-E8BDF41EDFC4";
layerId = "0AAF2CB4-2EBD-42C4-BAB4-4CEC92C737FB";
width = 600;
},
{
anchors = (
{
name = bottom;
position = "{518, 0}";
},
{
name = top;
position = "{518, 600}";
}
);
components = (
{
name = E;
transform = "{1, 0, 0, 1, 340, 0}";
}
);
layerId = "CA5CD7F6-F0E6-40F5-9716-481B35A0BC32";
paths = (
{
closed = 1;
nodes = (
"118 0 LINE",
"118 0 OFFCURVE",
"97 0 OFFCURVE",
"112 61 CURVE",
"118 85 OFFCURVE",
"133 122 OFFCURVE",
"139 137 CURVE",
"151 165 OFFCURVE",
"152 166 OFFCURVE",
"191 166 CURVE",
"439 166 LINE",
"439 206 LINE",
"212 206 LINE",
"173 206 OFFCURVE",
"176 214 OFFCURVE",
"185 236 CURVE",
"186 237 OFFCURVE",
"329 560 OFFCURVE",
"329 560 CURVE",
"439 560 LINE",
"439 600 LINE",
"283 600 LINE",
"283 600 OFFCURVE",
"300 599 OFFCURVE",
"273 540 CURVE",
"245 478 OFFCURVE",
"80 119 OFFCURVE",
"50 61 CURVE",
"20 3 OFFCURVE",
"10 0 OFFCURVE",
"10 0 CURVE"
);
}
);
width = 1003;
},
{
associatedMasterId = "CA5CD7F6-F0E6-40F5-9716-481B35A0BC32";
layerId = "88B8E799-5A63-49E9-9541-634D69D7319E";
width = 600;
}
);
leftMetricsKey = A;
rightMetricsKey = E;
unicode = 00C6;
},
{
color = 1;
glyphname = B;
layers = (
{
layerId = "083550D2-F2E8-44E3-BE3D-E8BDF41EDFC4";
paths = (
{
closed = 1;
nodes = (
"455 0 LINE",
"621 0 OFFCURVE",
"685 75 OFFCURVE",
"685 174 CURVE",
"685 256 OFFCURVE",
"640 310 OFFCURVE",
"554 330 CURVE",
"554 332 LINE",
"592 345 OFFCURVE",
"636 385 OFFCURVE",
"636 452 CURVE",
"636 542 OFFCURVE",
"576 600 OFFCURVE",
"415 600 CURVE",
"60 600 LINE",
"60 600 OFFCURVE",
"81 598 OFFCURVE",
"81 540 CURVE",
"81 60 LINE",
"81 1 OFFCURVE",
"60 0 OFFCURVE",
"60 0 CURVE"
);
},
{
closed = 1;
nodes = (
"194 81 OFFCURVE",
"193 81 OFFCURVE",
"193 111 CURVE",
"193 245 LINE",
"193 276 OFFCURVE",
"194 276 OFFCURVE",
"234 276 CURVE",
"407 276 LINE",
"534 276 OFFCURVE",
"573 246 OFFCURVE",
"573 178 CURVE",
"573 119 OFFCURVE",
"534 81 OFFCURVE",
"437 81 CURVE",
"233 81 LINE"
);
},
{
closed = 1;
nodes = (
"194 346 OFFCURVE",
"193 346 OFFCURVE",
"193 376 CURVE",
"193 490 LINE",
"193 520 OFFCURVE",
"194 520 OFFCURVE",
"234 520 CURVE",
"407 520 LINE",
"493 520 OFFCURVE",
"525 492 OFFCURVE",
"525 438 CURVE",
"525 372 OFFCURVE",
"491 346 OFFCURVE",
"416 346 CURVE",
"234 346 LINE"
);
}
);
width = 715;
},
{
layerId = "1A280FA7-9E72-4FC3-84C1-49B7BD56B269";
paths = (
{
closed = 1;
nodes = (
"474 0 LINE",
"645 0 OFFCURVE",
"685 88 OFFCURVE",
"685 174 CURVE",
"685 259 OFFCURVE",
"640 310 OFFCURVE",
"554 330 CURVE",
"554 332 LINE",
"592 345 OFFCURVE",
"636 379 OFFCURVE",
"636 452 CURVE",
"636 542 OFFCURVE",
"590 600 OFFCURVE",
"434 600 CURVE",
"60 600 LINE",
"60 600 OFFCURVE",
"81 598 OFFCURVE",
"81 540 CURVE",
"81 60 LINE",
"81 1 OFFCURVE",
"60 0 OFFCURVE",
"60 0 CURVE"
);
},
{
closed = 1;
nodes = (
"236 111 OFFCURVE",
"235 111 OFFCURVE",
"235 141 CURVE",
"235 224 LINE",
"235 255 OFFCURVE",
"236 255 OFFCURVE",
"276 255 CURVE",
"415 255 LINE",
"497 255 OFFCURVE",
"531 228 OFFCURVE",
"531 181 CURVE",
"531 132 OFFCURVE",
"501 111 OFFCURVE",
"425 111 CURVE",
"275 111 LINE"
);
},
{
closed = 1;
nodes = (
"236 357 OFFCURVE",
"235 357 OFFCURVE",
"235 387 CURVE",
"235 458 LINE",
"235 488 OFFCURVE",
"235 488 OFFCURVE",
"275 488 CURVE",
"395 488 LINE",
"460 488 OFFCURVE",
"483 467 OFFCURVE",
"483 423 CURVE",
"483 379 OFFCURVE",
"458 357 OFFCURVE",
"394 357 CURVE",
"276 357 LINE"
);
}
);
width = 715;
},
{
associatedMasterId = "083550D2-F2E8-44E3-BE3D-E8BDF41EDFC4";
layerId = "0AAF2CB4-2EBD-42C4-BAB4-4CEC92C737FB";
width = 600;
},
{
layerId = "CA5CD7F6-F0E6-40F5-9716-481B35A0BC32";
paths = (
{
closed = 1;
nodes = (
"454 0 LINE",
"612 0 OFFCURVE",
"664 62 OFFCURVE",
"664 166 CURVE",
"664 240 OFFCURVE",
"618 303 OFFCURVE",
"537 317 CURVE",
"537 319 LINE",
"570 330 OFFCURVE",
"616 372 OFFCURVE",
"616 450 CURVE",
"616 546 OFFCURVE",
"558 600 OFFCURVE",
"415 600 CURVE",
"60 600 LINE",
"60 600 OFFCURVE",
"81 598 OFFCURVE",
"81 540 CURVE",
"81 60 LINE",
"81 1 OFFCURVE",
"60 0 OFFCURVE",
"60 0 CURVE"
);
},
{
closed = 1;
nodes = (
"135 41 OFFCURVE",
"134 41 OFFCURVE",
"134 71 CURVE",
"134 266 LINE",
"134 297 OFFCURVE",
"135 297 OFFCURVE",
"175 297 CURVE",
"435 297 LINE",
"549 297 OFFCURVE",
"612 248 OFFCURVE",
"612 168 CURVE",
"612 82 OFFCURVE",
"565 41 OFFCURVE",
"465 41 CURVE",
"174 41 LINE"
);
},
{
closed = 1;
nodes = (
"135 336 OFFCURVE",
"134 336 OFFCURVE",
"134 366 CURVE",
"134 531 LINE",
"134 561 OFFCURVE",
"135 561 OFFCURVE",
"175 561 CURVE",
"425 561 LINE",
"519 561 OFFCURVE",
"564 519 OFFCURVE",
"564 447 CURVE",
"564 369 OFFCURVE",
"514 336 OFFCURVE",
"434 336 CURVE",
"175 336 LINE"
);
}
);
width = 694;
},
{
associatedMasterId = "CA5CD7F6-F0E6-40F5-9716-481B35A0BC32";
layerId = "96032563-2FD3-42F5-8F0B-50A3AD4B56BE";
width = 600;
}
);
leftMetricsKey = H;
unicode = 0042;
},
{
color = 1;
glyphname = C;
layers = (
{
anchors = (
{
name = bottom;
position = "{395, 0}";
},
{
name = top;
position = "{395, 600}";
}
);
layerId = "083550D2-F2E8-44E3-BE3D-E8BDF41EDFC4";
paths = (
{
closed = 1;
nodes = (
"602 -10 OFFCURVE",
"656 40 OFFCURVE",
"656 40 CURVE",
"646 101 LINE",
"646 131 LINE",
"646 131 OFFCURVE",
"580 71 OFFCURVE",
"424 71 CURVE",
"212 71 OFFCURVE",
"162 166 OFFCURVE",
"162 300 CURVE",
"162 434 OFFCURVE",
"217 530 OFFCURVE",
"395 530 CURVE",
"567 530 OFFCURVE",
"656 470 OFFCURVE",
"656 470 CURVE",
"636 560 LINE",
"636 580 LINE",
"636 580 OFFCURVE",
"567 610 OFFCURVE",
"393 610 CURVE",
"150 610 OFFCURVE",
"50 485 OFFCURVE",
"50 300 CURVE",
"50 85 OFFCURVE",
"163 -10 OFFCURVE",
"393 -10 CURVE"
);
}
);
width = 696;
},
{
anchors = (
{
name = bottom;
position = "{395, 0}";
},
{
name = top;
position = "{395, 600}";
}
);
layerId = "1A280FA7-9E72-4FC3-84C1-49B7BD56B269";
paths = (
{
closed = 1;
nodes = (
"602 -10 OFFCURVE",
"656 40 OFFCURVE",
"656 40 CURVE",
"646 141 LINE",
"646 171 LINE",
"646 171 OFFCURVE",
"580 101 OFFCURVE",
"424 101 CURVE",
"252 101 OFFCURVE",
"202 166 OFFCURVE",
"202 300 CURVE",
"202 434 OFFCURVE",
"257 500 OFFCURVE",
"395 500 CURVE",
"567 500 OFFCURVE",
"656 440 OFFCURVE",
"656 440 CURVE",
"636 550 LINE",
"636 580 LINE",
"636 580 OFFCURVE",
"567 610 OFFCURVE",
"393 610 CURVE",
"150 610 OFFCURVE",
"50 485 OFFCURVE",
"50 300 CURVE",
"50 85 OFFCURVE",
"163 -10 OFFCURVE",
"393 -10 CURVE"
);
}
);
width = 696;
},
{
associatedMasterId = "083550D2-F2E8-44E3-BE3D-E8BDF41EDFC4";
layerId = "0AAF2CB4-2EBD-42C4-BAB4-4CEC92C737FB";
width = 600;
},
{
anchors = (
{
name = bottom;
position = "{375, 0}";
},
{
name = top;
position = "{375, 600}";
}
);
layerId = "CA5CD7F6-F0E6-40F5-9716-481B35A0BC32";
paths = (
{
closed = 1;
nodes = (
"570 -10 OFFCURVE",
"636 40 OFFCURVE",
"636 40 CURVE",
"626 80 LINE",
"626 91 LINE",
"626 91 OFFCURVE",
"566 31 OFFCURVE",
"394 31 CURVE",
"184 31 OFFCURVE",
"104 126 OFFCURVE",
"104 300 CURVE",
"104 469 OFFCURVE",
"187 570 OFFCURVE",
"375 570 CURVE",
"563 570 OFFCURVE",
"626 520 OFFCURVE",
"626 520 CURVE",
"616 570 LINE",
"616 580 LINE",
"616 580 OFFCURVE",
"547 610 OFFCURVE",
"373 610 CURVE",
"135 610 OFFCURVE",
"50 485 OFFCURVE",
"50 300 CURVE",
"50 85 OFFCURVE",
"158 -10 OFFCURVE",
"383 -10 CURVE"
);
}
);
width = 676;
},
{
associatedMasterId = "CA5CD7F6-F0E6-40F5-9716-481B35A0BC32";
layerId = "F7114C36-C09F-4B3A-BED6-CC2AC47003C4";
width = 600;
}
);
leftMetricsKey = O;
unicode = 0043;
},
{
color = 1;
glyphname = D;
layers = (
{
anchors = (
{
name = bottom;
position = "{373, 0}";
},
{
name = center;
position = "{173, 300}";
},
{
name = top;
position = "{373, 600}";
}
);
layerId = "083550D2-F2E8-44E3-BE3D-E8BDF41EDFC4";
paths = (
{
closed = 1;
nodes = (
"374 0 LINE",
"667 0 OFFCURVE",
"706 164 OFFCURVE",
"706 299 CURVE",
"706 445 OFFCURVE",
"669 600 OFFCURVE",
"374 600 CURVE",
"60 600 LINE",
"60 600 OFFCURVE",
"81 598 OFFCURVE",
"81 540 CURVE",
"81 60 LINE",
"81 1 OFFCURVE",
"60 0 OFFCURVE",
"60 0 CURVE"
);
},
{
closed = 1;
nodes = (
"194 81 OFFCURVE",
"193 81 OFFCURVE",
"193 111 CURVE",
"193 490 LINE",
"193 518 OFFCURVE",
"194 518 OFFCURVE",
"233 518 CURVE",
"356 518 LINE",
"535 518 OFFCURVE",
"594 465 OFFCURVE",
"594 310 CURVE",
"594 292 LINE",
"594 144 OFFCURVE",
"527 81 OFFCURVE",
"356 81 CURVE",
"233 81 LINE"
);
}
);
width = 756;
},
{
anchors = (
{
name = bottom;
position = "{373, 0}";
},
{
name = center;
position = "{173, 300}";
},
{
name = top;
position = "{373, 600}";
}
);
layerId = "1A280FA7-9E72-4FC3-84C1-49B7BD56B269";
paths = (
{
closed = 1;
nodes = (
"374 0 LINE",
"667 0 OFFCURVE",
"706 164 OFFCURVE",
"706 299 CURVE",
"706 445 OFFCURVE",
"669 600 OFFCURVE",
"374 600 CURVE",
"60 600 LINE",
"60 600 OFFCURVE",
"81 598 OFFCURVE",
"81 540 CURVE",
"81 60 LINE",
"81 1 OFFCURVE",
"60 0 OFFCURVE",
"60 0 CURVE"
);
},
{
closed = 1;
nodes = (
"236 111 OFFCURVE",
"235 111 OFFCURVE",
"235 141 CURVE",
"235 459 LINE",
"235 487 OFFCURVE",
"236 487 OFFCURVE",
"275 487 CURVE",
"316 487 LINE",
"495 487 OFFCURVE",
"554 465 OFFCURVE",
"554 310 CURVE",
"554 292 LINE",
"554 144 OFFCURVE",
"487 111 OFFCURVE",
"316 111 CURVE",
"275 111 LINE"
);
}
);
width = 756;
},
{
associatedMasterId = "083550D2-F2E8-44E3-BE3D-E8BDF41EDFC4";
layerId = "0AAF2CB4-2EBD-42C4-BAB4-4CEC92C737FB";
width = 600;
},
{
anchors = (
{
name = bottom;
position = "{373, 0}";
},
{
name = center;
position = "{173, 300}";
},
{
name = top;
position = "{373, 600}";
}
);
layerId = "CA5CD7F6-F0E6-40F5-9716-481B35A0BC32";
paths = (
{
closed = 1;
nodes = (
"374 0 LINE",
"667 0 OFFCURVE",
"706 164 OFFCURVE",
"706 299 CURVE",
"706 445 OFFCURVE",
"669 600 OFFCURVE",
"374 600 CURVE",
"60 600 LINE",
"60 600 OFFCURVE",
"81 598 OFFCURVE",
"81 540 CURVE",
"81 60 LINE",
"81 1 OFFCURVE",
"60 0 OFFCURVE",
"60 0 CURVE"
);
},
{
closed = 1;
nodes = (
"134 41 OFFCURVE",
"133 41 OFFCURVE",
"133 71 CURVE",
"133 532 LINE",
"133 560 OFFCURVE",
"134 560 OFFCURVE",
"173 560 CURVE",
"356 560 LINE",
"570 560 OFFCURVE",
"652 487 OFFCURVE",
"652 310 CURVE",
"652 292 LINE",
"652 114 OFFCURVE",
"569 41 OFFCURVE",
"356 41 CURVE",
"173 41 LINE"
);
}
);
width = 756;
},
{
associatedMasterId = "CA5CD7F6-F0E6-40F5-9716-481B35A0BC32";
layerId = "4365D739-F4F6-486E-9C79-6A4B13E086DA";
width = 600;
}
);
leftMetricsKey = H;
rightMetricsKey = O;
unicode = 0044;
},
{
color = 1;
glyphname = E;
layers = (
{
anchors = (
{
name = bottom;
position = "{364, 0}";
},
{
name = ogonek;
position = "{644, 10}";
},
{
name = top;
position = "{364, 600}";
},
{
name = topleft;
position = "{90, 600}";
}
);
layerId = "083550D2-F2E8-44E3-BE3D-E8BDF41EDFC4";
paths = (
{
closed = 1;
nodes = (
"644 0 LINE",
"644 31 LINE",
"664 121 LINE",
"664 121 OFFCURVE",
"630 81 OFFCURVE",
"524 81 CURVE",
"233 81 LINE",
"193 81 OFFCURVE",
"193 81 OFFCURVE",
"193 112 CURVE",
"193 236 LINE",
"193 266 OFFCURVE",
"194 266 OFFCURVE",
"233 266 CURVE",
"518 266 LINE",
"518 306 OFFCURVE",
"538 366 OFFCURVE",
"538 366 CURVE",
"538 366 OFFCURVE",
"504 346 OFFCURVE",
"398 346 CURVE",
"233 346 LINE",
"194 346 OFFCURVE",
"193 346 OFFCURVE",
"193 376 CURVE",
"193 490 LINE",
"193 518 OFFCURVE",
"194 520 OFFCURVE",
"234 520 CURVE",
"403 520 LINE",
"565 520 OFFCURVE",
"643 484 OFFCURVE",
"643 484 CURVE",
"623 580 LINE",
"623 600 LINE",
"60 600 LINE",
"60 600 OFFCURVE",
"81 598 OFFCURVE",
"81 540 CURVE",
"81 60 LINE",
"81 1 OFFCURVE",
"60 0 OFFCURVE",
"60 0 CURVE"
);
}
);
width = 684;
},
{
anchors = (
{
name = bottom;
position = "{374, 0}";
},
{
name = ogonek;
position = "{644, 10}";
},
{
name = top;
position = "{374, 600}";
},
{
name = topleft;
position = "{90, 600}";
}
);
layerId = "1A280FA7-9E72-4FC3-84C1-49B7BD56B269";
paths = (
{
closed = 1;
nodes = (
"665 0 LINE",
"665 31 LINE",
"685 151 LINE",
"685 151 OFFCURVE",
"651 111 OFFCURVE",
"545 111 CURVE",
"275 111 LINE",
"235 111 OFFCURVE",
"235 111 OFFCURVE",
"235 142 CURVE",
"235 216 LINE",
"235 246 OFFCURVE",
"236 246 OFFCURVE",
"275 246 CURVE",
"539 246 LINE",
"539 286 OFFCURVE",
"559 376 OFFCURVE",
"559 376 CURVE",
"559 376 OFFCURVE",
"525 356 OFFCURVE",
"419 356 CURVE",
"275 356 LINE",
"236 356 OFFCURVE",
"235 356 OFFCURVE",
"235 386 CURVE",
"235 460 LINE",
"235 488 OFFCURVE",
"236 490 OFFCURVE",
"276 490 CURVE",
"424 490 LINE",
"586 490 OFFCURVE",
"664 454 OFFCURVE",
"664 454 CURVE",
"644 570 LINE",
"644 600 LINE",
"60 600 LINE",
"60 600 OFFCURVE",
"81 598 OFFCURVE",
"81 540 CURVE",
"81 60 LINE",
"81 1 OFFCURVE",
"60 0 OFFCURVE",
"60 0 CURVE"
);
}
);
width = 705;
},
{
associatedMasterId = "083550D2-F2E8-44E3-BE3D-E8BDF41EDFC4";
layerId = "0AAF2CB4-2EBD-42C4-BAB4-4CEC92C737FB";
width = 600;
},
{
anchors = (
{
name = bottom;
position = "{354, 0}";
},
{
name = ogonek;
position = "{604, 10}";
},
{
name = top;
position = "{354, 600}";
},
{
name = topleft;
position = "{90, 600}";
}
);
layerId = "CA5CD7F6-F0E6-40F5-9716-481B35A0BC32";
paths = (
{
closed = 1;
nodes = (
"623 0 LINE",
"623 11 LINE",
"643 60 LINE",
"643 60 OFFCURVE",
"609 40 OFFCURVE",
"503 40 CURVE",
"173 40 LINE",
"133 40 OFFCURVE",
"133 40 OFFCURVE",
"133 71 CURVE",
"133 266 LINE",
"133 296 OFFCURVE",
"134 296 OFFCURVE",
"173 296 CURVE",
"497 296 LINE",
"497 336 OFFCURVE",
"517 346 OFFCURVE",
"517 346 CURVE",
"517 346 OFFCURVE",
"483 336 OFFCURVE",
"377 336 CURVE",
"173 336 LINE",
"134 336 OFFCURVE",
"133 336 OFFCURVE",
"133 366 CURVE",
"133 530 LINE",
"133 558 OFFCURVE",
"134 560 OFFCURVE",
"174 560 CURVE",
"382 560 LINE",
"544 560 OFFCURVE",
"622 544 OFFCURVE",
"622 544 CURVE",
"602 590 LINE",
"602 600 LINE",
"60 600 LINE",
"60 600 OFFCURVE",
"81 598 OFFCURVE",
"81 540 CURVE",
"81 60 LINE",
"81 1 OFFCURVE",
"60 0 OFFCURVE",
"60 0 CURVE"
);
}
);
width = 663;
},
{
associatedMasterId = "CA5CD7F6-F0E6-40F5-9716-481B35A0BC32";
layerId = "7129ED4C-FDAB-4DC5-B2C9-5FD78A86C0DC";
width = 600;
}
);
leftMetricsKey = H;
unicode = 0045;
},
{
color = 1;
glyphname = F;
layers = (
{
layerId = "083550D2-F2E8-44E3-BE3D-E8BDF41EDFC4";
paths = (
{
closed = 1;
nodes = (
"214 0 LINE",
"214 0 OFFCURVE",
"193 0 OFFCURVE",
"193 60 CURVE",
"193 236 LINE",
"193 266 OFFCURVE",
"194 266 OFFCURVE",
"233 266 CURVE",
"518 266 LINE",
"518 306 OFFCURVE",
"538 366 OFFCURVE",
"538 366 CURVE",
"538 366 OFFCURVE",
"504 346 OFFCURVE",
"398 346 CURVE",
"233 346 LINE",
"194 346 OFFCURVE",
"193 346 OFFCURVE",
"193 376 CURVE",
"193 490 LINE",
"193 518 OFFCURVE",
"194 520 OFFCURVE",
"234 520 CURVE",
"403 520 LINE",
"565 520 OFFCURVE",
"643 484 OFFCURVE",
"643 484 CURVE",
"623 580 LINE",
"623 600 LINE",
"60 600 LINE",
"60 600 OFFCURVE",
"81 598 OFFCURVE",
"81 540 CURVE",
"81 60 LINE",
"81 1 OFFCURVE",
"60 0 OFFCURVE",
"60 0 CURVE"
);
}
);
width = 663;
},
{
layerId = "1A280FA7-9E72-4FC3-84C1-49B7BD56B269";
paths = (
{
closed = 1;
nodes = (
"256 0 LINE",
"256 0 OFFCURVE",
"235 0 OFFCURVE",
"235 60 CURVE",
"235 216 LINE",
"235 246 OFFCURVE",
"236 246 OFFCURVE",
"275 246 CURVE",
"539 246 LINE",
"539 286 OFFCURVE",
"559 376 OFFCURVE",
"559 376 CURVE",
"559 376 OFFCURVE",
"525 356 OFFCURVE",
"419 356 CURVE",
"275 356 LINE",
"236 356 OFFCURVE",
"235 356 OFFCURVE",
"235 386 CURVE",
"235 460 LINE",
"235 488 OFFCURVE",
"236 490 OFFCURVE",
"276 490 CURVE",
"424 490 LINE",
"586 490 OFFCURVE",
"664 454 OFFCURVE",
"664 454 CURVE",
"644 570 LINE",
"644 600 LINE",
"60 600 LINE",
"60 600 OFFCURVE",
"81 598 OFFCURVE",
"81 540 CURVE",
"81 60 LINE",
"81 1 OFFCURVE",
"60 0 OFFCURVE",
"60 0 CURVE"
);
}
);
width = 684;
},
{
associatedMasterId = "083550D2-F2E8-44E3-BE3D-E8BDF41EDFC4";
layerId = "0AAF2CB4-2EBD-42C4-BAB4-4CEC92C737FB";
width = 600;
},
{
layerId = "CA5CD7F6-F0E6-40F5-9716-481B35A0BC32";
paths = (
{
closed = 1;
nodes = (
"154 0 LINE",
"154 0 OFFCURVE",
"133 0 OFFCURVE",
"133 60 CURVE",
"133 266 LINE",
"133 296 OFFCURVE",
"134 296 OFFCURVE",
"173 296 CURVE",
"498 296 LINE",
"498 336 OFFCURVE",
"518 346 OFFCURVE",
"518 346 CURVE",
"518 346 OFFCURVE",
"484 336 OFFCURVE",
"378 336 CURVE",
"173 336 LINE",
"134 336 OFFCURVE",
"133 336 OFFCURVE",
"133 366 CURVE",
"133 530 LINE",
"133 558 OFFCURVE",
"134 560 OFFCURVE",
"174 560 CURVE",
"383 560 LINE",
"545 560 OFFCURVE",
"623 544 OFFCURVE",
"623 544 CURVE",
"603 590 LINE",
"603 600 LINE",
"60 600 LINE",
"60 600 OFFCURVE",
"81 598 OFFCURVE",
"81 540 CURVE",
"81 60 LINE",
"81 1 OFFCURVE",
"60 0 OFFCURVE",
"60 0 CURVE"
);
}
);
width = 643;
},
{
associatedMasterId = "CA5CD7F6-F0E6-40F5-9716-481B35A0BC32";
layerId = "C693AC7C-033B-46DA-A39E-404DB6FDEC5F";
width = 600;
}
);
leftMetricsKey = H;
unicode = 0046;
},
{
color = 1;
glyphname = G;
layers = (
{
anchors = (
{
name = bottom;
position = "{389, 0}";
},
{
name = top;
position = "{389, 600}";
}
);
layerId = "083550D2-F2E8-44E3-BE3D-E8BDF41EDFC4";
paths = (
{
closed = 1;
nodes = (
"479 -10 OFFCURVE",
"534 18 OFFCURVE",
"566 53 CURVE",
"568 51 LINE",
"566 23 LINE",
"566 0 LINE",
"697 0 LINE",
"697 0 OFFCURVE",
"677 1 OFFCURVE",
"677 60 CURVE",
"677 256 LINE",
"677 314 OFFCURVE",
"697 316 OFFCURVE",
"697 316 CURVE",
"382 316 LINE",
"382 296 LINE",
"372 217 LINE",
"372 217 OFFCURVE",
"401 238 OFFCURVE",
"504 238 CURVE",
"536 238 LINE",
"566 238 OFFCURVE",
"566 238 OFFCURVE",
"566 208 CURVE",
"566 182 LINE",
"566 121 OFFCURVE",
"520 71 OFFCURVE",
"384 71 CURVE",
"225 71 OFFCURVE",
"162 153 OFFCURVE",
"162 298 CURVE",
"162 435 OFFCURVE",
"234 530 OFFCURVE",
"395 530 CURVE",
"573 530 OFFCURVE",
"656 470 OFFCURVE",
"656 470 CURVE",
"636 560 LINE",
"636 580 LINE",
"636 580 OFFCURVE",
"565 610 OFFCURVE",
"393 610 CURVE",
"150 610 OFFCURVE",
"50 482 OFFCURVE",
"50 298 CURVE",
"50 88 OFFCURVE",
"162 -10 OFFCURVE",
"343 -10 CURVE"
);
}
);
width = 747;
},
{
anchors = (
{
name = bottom;
position = "{389, 0}";
},
{
name = top;
position = "{389, 600}";
}
);
layerId = "1A280FA7-9E72-4FC3-84C1-49B7BD56B269";
paths = (
{
closed = 1;
nodes = (
"460 -10 OFFCURVE",
"512 22 OFFCURVE",
"526 43 CURVE",
"528 41 LINE",
"526 13 LINE",
"526 0 LINE",
"697 0 LINE",
"697 0 OFFCURVE",
"677 1 OFFCURVE",
"677 60 CURVE",
"677 276 LINE",
"677 334 OFFCURVE",
"697 336 OFFCURVE",
"697 336 CURVE",
"382 336 LINE",
"382 306 LINE",
"372 207 LINE",
"372 207 OFFCURVE",
"402 228 OFFCURVE",
"464 228 CURVE",
"496 228 LINE",
"526 228 OFFCURVE",
"526 228 OFFCURVE",
"526 198 CURVE",
"526 182 LINE",
"526 135 OFFCURVE",
"483 101 OFFCURVE",
"384 101 CURVE",
"251 101 OFFCURVE",
"202 153 OFFCURVE",
"202 298 CURVE",
"202 432 OFFCURVE",
"260 500 OFFCURVE",
"395 500 CURVE",
"573 500 OFFCURVE",
"656 440 OFFCURVE",
"656 440 CURVE",
"636 550 LINE",
"636 580 LINE",
"636 580 OFFCURVE",
"565 610 OFFCURVE",
"393 610 CURVE",
"150 610 OFFCURVE",
"50 482 OFFCURVE",
"50 298 CURVE",
"50 88 OFFCURVE",
"162 -10 OFFCURVE",
"343 -10 CURVE"
);
}
);
width = 747;
},
{
associatedMasterId = "083550D2-F2E8-44E3-BE3D-E8BDF41EDFC4";
layerId = "0AAF2CB4-2EBD-42C4-BAB4-4CEC92C737FB";
width = 600;
},
{
anchors = (
{
name = bottom;
position = "{379, 0}";
},
{
name = top;
position = "{379, 600}";
}
);
layerId = "CA5CD7F6-F0E6-40F5-9716-481B35A0BC32";
paths = (
{
closed = 1;
nodes = (
"511 -10 OFFCURVE",
"584 43 OFFCURVE",
"604 74 CURVE",
"606 72 LINE",
"604 53 LINE",
"604 0 LINE",
"676 0 LINE",
"676 0 OFFCURVE",
"656 1 OFFCURVE",
"656 60 CURVE",
"656 236 LINE",
"656 294 OFFCURVE",
"676 296 OFFCURVE",
"676 296 CURVE",
"382 296 LINE",
"382 276 LINE",
"372 237 LINE",
"372 237 OFFCURVE",
"401 258 OFFCURVE",
"504 258 CURVE",
"574 258 LINE",
"604 258 OFFCURVE",
"604 258 OFFCURVE",
"604 228 CURVE",
"604 172 LINE",
"604 72 OFFCURVE",
"496 31 OFFCURVE",
"364 31 CURVE",
"215 31 OFFCURVE",
"104 116 OFFCURVE",
"104 298 CURVE",
"104 485 OFFCURVE",
"210 570 OFFCURVE",
"395 570 CURVE",
"584 570 OFFCURVE",
"646 520 OFFCURVE",
"646 520 CURVE",
"636 570 LINE",
"636 580 LINE",
"636 580 OFFCURVE",
"576 610 OFFCURVE",
"393 610 CURVE",
"150 610 OFFCURVE",
"50 482 OFFCURVE",
"50 298 CURVE",
"50 88 OFFCURVE",
"168 -10 OFFCURVE",
"363 -10 CURVE"
);
}
);
width = 726;
},
{
associatedMasterId = "CA5CD7F6-F0E6-40F5-9716-481B35A0BC32";
layerId = "84A5E705-AA0E-4E61-8ACD-457F4D2A3415";
width = 600;
}
);
leftMetricsKey = O;
unicode = 0047;
},
{
color = 1;
glyphname = H;
layers = (
{
anchors = (
{
name = bottom;
position = "{375, 0}";
},
{
name = center;
position = "{375, 460}";
},
{
name = top;
position = "{375, 600}";
},
{
name = topleft;
position = "{30, 600}";
}
);
layerId = "083550D2-F2E8-44E3-BE3D-E8BDF41EDFC4";
paths = (
{
closed = 1;
nodes = (
"214 0 LINE",
"214 0 OFFCURVE",
"193 1 OFFCURVE",
"193 60 CURVE",
"193 236 LINE",
"193 265 OFFCURVE",
"194 266 OFFCURVE",
"234 266 CURVE",
"533 266 LINE",
"572 266 OFFCURVE",
"573 266 OFFCURVE",
"573 236 CURVE",
"573 60 LINE",
"573 1 OFFCURVE",
"552 0 OFFCURVE",
"552 0 CURVE",
"706 0 LINE",
"706 0 OFFCURVE",
"685 1 OFFCURVE",
"685 60 CURVE",
"685 539 LINE",
"685 599 OFFCURVE",
"706 600 OFFCURVE",
"706 600 CURVE",
"552 600 LINE",
"552 600 OFFCURVE",
"573 598 OFFCURVE",
"573 540 CURVE",
"573 376 LINE",
"573 345 OFFCURVE",
"573 346 OFFCURVE",
"533 346 CURVE",
"234 346 LINE",
"194 346 OFFCURVE",
"193 347 OFFCURVE",
"193 376 CURVE",
"193 539 LINE",
"193 599 OFFCURVE",
"214 600 OFFCURVE",
"214 600 CURVE",
"60 600 LINE",
"60 600 OFFCURVE",
"81 598 OFFCURVE",
"81 540 CURVE",
"81 60 LINE",
"81 1 OFFCURVE",
"60 0 OFFCURVE",
"60 0 CURVE"
);
}
);
width = 766;
},
{
anchors = (
{
name = bottom;
position = "{405, 0}";
},
{
name = center;
position = "{405, 460}";
},
{
name = top;
position = "{405, 600}";
},
{
name = topleft;
position = "{30, 600}";
}
);
layerId = "1A280FA7-9E72-4FC3-84C1-49B7BD56B269";
paths = (
{
closed = 1;
nodes = (
"256 0 LINE",
"256 0 OFFCURVE",
"235 1 OFFCURVE",
"235 60 CURVE",
"235 216 LINE",
"235 245 OFFCURVE",
"236 246 OFFCURVE",
"276 246 CURVE",
"533 246 LINE",
"572 246 OFFCURVE",
"573 246 OFFCURVE",
"573 216 CURVE",
"573 60 LINE",
"573 1 OFFCURVE",
"552 0 OFFCURVE",
"552 0 CURVE",
"748 0 LINE",
"748 0 OFFCURVE",
"727 1 OFFCURVE",
"727 60 CURVE",
"727 539 LINE",
"727 599 OFFCURVE",
"748 600 OFFCURVE",
"748 600 CURVE",
"552 600 LINE",
"552 600 OFFCURVE",
"573 598 OFFCURVE",
"573 540 CURVE",
"573 386 LINE",
"573 355 OFFCURVE",
"573 356 OFFCURVE",
"533 356 CURVE",
"276 356 LINE",
"236 356 OFFCURVE",
"235 357 OFFCURVE",
"235 386 CURVE",
"235 539 LINE",
"235 599 OFFCURVE",
"256 600 OFFCURVE",
"256 600 CURVE",
"60 600 LINE",
"60 600 OFFCURVE",
"81 598 OFFCURVE",
"81 540 CURVE",
"81 60 LINE",
"81 1 OFFCURVE",
"60 0 OFFCURVE",
"60 0 CURVE"
);
}
);
width = 808;
},
{
associatedMasterId = "083550D2-F2E8-44E3-BE3D-E8BDF41EDFC4";
layerId = "0AAF2CB4-2EBD-42C4-BAB4-4CEC92C737FB";
width = 600;
},
{
anchors = (
{
name = bottom;
position = "{356, 0}";
},
{
name = center;
position = "{356, 460}";
},
{
name = top;
position = "{356, 600}";
},
{
name = topleft;
position = "{21, 600}";
}
);
layerId = "CA5CD7F6-F0E6-40F5-9716-481B35A0BC32";
paths = (
{
closed = 1;
nodes = (
"154 0 LINE",
"154 0 OFFCURVE",
"133 1 OFFCURVE",
"133 60 CURVE",
"133 266 LINE",
"133 295 OFFCURVE",
"134 296 OFFCURVE",
"174 296 CURVE",
"532 296 LINE",
"571 296 OFFCURVE",
"572 296 OFFCURVE",
"572 266 CURVE",
"572 60 LINE",
"572 1 OFFCURVE",
"551 0 OFFCURVE",
"551 0 CURVE",
"646 0 LINE",
"646 0 OFFCURVE",
"625 1 OFFCURVE",
"625 60 CURVE",
"625 539 LINE",
"625 599 OFFCURVE",
"646 600 OFFCURVE",
"646 600 CURVE",
"551 600 LINE",
"551 600 OFFCURVE",
"572 598 OFFCURVE",
"572 540 CURVE",
"572 365 LINE",
"572 334 OFFCURVE",
"572 335 OFFCURVE",
"532 335 CURVE",
"174 335 LINE",
"134 335 OFFCURVE",
"133 336 OFFCURVE",
"133 365 CURVE",
"133 539 LINE",
"133 599 OFFCURVE",
"154 600 OFFCURVE",
"154 600 CURVE",
"60 600 LINE",
"60 600 OFFCURVE",
"81 598 OFFCURVE",
"81 540 CURVE",
"81 60 LINE",
"81 1 OFFCURVE",
"60 0 OFFCURVE",
"60 0 CURVE"
);
}
);
width = 706;
},
{
associatedMasterId = "CA5CD7F6-F0E6-40F5-9716-481B35A0BC32";
layerId = "5B43ADC3-E4AF-467B-9F09-48D3D33435B7";
width = 600;
}
);
unicode = 0048;
},
{
color = 1;
glyphname = I;
layers = (
{
anchors = (
{
name = bottom;
position = "{137, 0}";
},
{
name = ogonek;
position = "{167, 10}";
},
{
name = top;
position = "{137, 600}";
},
{
name = topleft;
position = "{30, 600}";
}
);
layerId = "083550D2-F2E8-44E3-BE3D-E8BDF41EDFC4";
paths = (
{
closed = 1;
nodes = (
"214 0 LINE",
"214 0 OFFCURVE",
"193 1 OFFCURVE",
"193 60 CURVE",
"193 60 OFFCURVE",
"193 479 OFFCURVE",
"193 539 CURVE",
"193 599 OFFCURVE",
"214 600 OFFCURVE",
"214 600 CURVE",
"60 600 LINE",
"60 600 OFFCURVE",
"81 598 OFFCURVE",
"81 540 CURVE",
"81 60 LINE",
"81 1 OFFCURVE",
"60 0 OFFCURVE",
"60 0 CURVE"
);
}
);
width = 274;
},
{
anchors = (
{
name = bottom;
position = "{157, 0}";
},
{
name = ogonek;
position = "{227, 10}";
},
{
name = top;
position = "{157, 600}";
},
{
name = topleft;
position = "{30, 600}";
}
);
layerId = "1A280FA7-9E72-4FC3-84C1-49B7BD56B269";
paths = (
{
closed = 1;
nodes = (
"60 0 OFFCURVE",
"253 0 OFFCURVE",
"253 0 CURVE",
"253 0 OFFCURVE",
"232 1 OFFCURVE",
"232 60 CURVE",
"232 539 LINE",
"232 600 OFFCURVE",
"253 600 OFFCURVE",
"253 600 CURVE",
"253 600 OFFCURVE",
"60 600 OFFCURVE",
"60 600 CURVE",
"60 600 OFFCURVE",
"80 599 OFFCURVE",
"80 540 CURVE",
"80 60 LINE",
"80 0 OFFCURVE",
"60 0 OFFCURVE",
"60 0 CURVE"
);
}
);
width = 313;
},
{
associatedMasterId = "083550D2-F2E8-44E3-BE3D-E8BDF41EDFC4";
layerId = "0AAF2CB4-2EBD-42C4-BAB4-4CEC92C737FB";
width = 600;
},
{
anchors = (
{
name = bottom;
position = "{116, 0}";
},
{
name = ogonek;
position = "{166, 10}";
},
{
name = top;
position = "{116, 600}";
},
{
name = topleft;
position = "{29, 600}";
}
);
layerId = "CA5CD7F6-F0E6-40F5-9716-481B35A0BC32";
paths = (
{
closed = 1;
nodes = (
"154 0 LINE",
"154 0 OFFCURVE",
"133 1 OFFCURVE",
"133 60 CURVE",
"133 60 OFFCURVE",
"133 479 OFFCURVE",
"133 539 CURVE",
"133 599 OFFCURVE",
"154 600 OFFCURVE",
"154 600 CURVE",
"60 600 LINE",
"60 600 OFFCURVE",
"81 598 OFFCURVE",
"81 540 CURVE",
"81 60 LINE",
"81 1 OFFCURVE",
"60 0 OFFCURVE",
"60 0 CURVE"
);
}
);
width = 214;
},
{
associatedMasterId = "CA5CD7F6-F0E6-40F5-9716-481B35A0BC32";
layerId = "6EA050EC-D9A5-4622-8025-6B43D5C307DB";
width = 600;
}
);
leftMetricsKey = H;
rightMetricsKey = H;
unicode = 0049;
},
{
color = 1;
glyphname = J;
layers = (
{
anchors = (
{
name = bottom;
position = "{250, 0}";
},
{
name = top;
position = "{410, 600}";
}
);
layerId = "083550D2-F2E8-44E3-BE3D-E8BDF41EDFC4";
paths = (
{
closed = 1;
nodes = (
"380 -10 OFFCURVE",
"468 34 OFFCURVE",
"468 210 CURVE",
"468 539 LINE",
"468 599 OFFCURVE",
"489 600 OFFCURVE",
"489 600 CURVE",
"335 600 LINE",
"335 600 OFFCURVE",
"356 598 OFFCURVE",
"356 540 CURVE",
"356 210 LINE",
"356 106 OFFCURVE",
"323 70 OFFCURVE",
"225 70 CURVE",
"103 70 OFFCURVE",
"40 160 OFFCURVE",
"40 160 CURVE",
"40 140 LINE",
"20 37 LINE",
"20 37 OFFCURVE",
"88 -10 OFFCURVE",
"243 -10 CURVE"
);
}
);
width = 549;
},
{
anchors = (
{
name = bottom;
position = "{270, 0}";
},
{
name = top;
position = "{410, 600}";
}
);
layerId = "1A280FA7-9E72-4FC3-84C1-49B7BD56B269";
paths = (
{
closed = 1;
nodes = (
"400 -10 OFFCURVE",
"488 34 OFFCURVE",
"488 210 CURVE",
"488 539 LINE",
"488 599 OFFCURVE",
"509 600 OFFCURVE",
"509 600 CURVE",
"313 600 LINE",
"313 600 OFFCURVE",
"334 598 OFFCURVE",
"334 540 CURVE",
"334 210 LINE",
"334 130 OFFCURVE",
"303 100 OFFCURVE",
"245 100 CURVE",
"123 100 OFFCURVE",
"40 200 OFFCURVE",
"40 200 CURVE",
"40 170 LINE",
"20 37 LINE",
"20 37 OFFCURVE",
"108 -10 OFFCURVE",
"263 -10 CURVE"
);
}
);
width = 569;
},
{
associatedMasterId = "083550D2-F2E8-44E3-BE3D-E8BDF41EDFC4";
layerId = "0AAF2CB4-2EBD-42C4-BAB4-4CEC92C737FB";
width = 600;
},
{
anchors = (
{
name = bottom;
position = "{220, 0}";
},
{
name = top;
position = "{410, 600}";
}
);
layerId = "CA5CD7F6-F0E6-40F5-9716-481B35A0BC32";
paths = (
{
closed = 1;
nodes = (
"360 -10 OFFCURVE",
"448 34 OFFCURVE",
"448 210 CURVE",
"448 539 LINE",
"448 599 OFFCURVE",
"469 600 OFFCURVE",
"469 600 CURVE",
"375 600 LINE",
"375 600 OFFCURVE",
"396 598 OFFCURVE",
"396 540 CURVE",
"396 210 LINE",
"396 85 OFFCURVE",
"347 30 OFFCURVE",
"225 30 CURVE",
"79 30 OFFCURVE",
"30 100 OFFCURVE",
"30 100 CURVE",
"30 90 LINE",
"20 37 LINE",
"20 37 OFFCURVE",
"68 -10 OFFCURVE",
"223 -10 CURVE"
);
}
);
width = 529;
},
{
associatedMasterId = "CA5CD7F6-F0E6-40F5-9716-481B35A0BC32";
layerId = "1C3C4F4D-A4EB-4044-8DE0-C6D03D151569";
width = 600;
}
);
rightMetricsKey = H;
unicode = 004A;
},
{
color = 1;
glyphname = K;
layers = (
{
anchors = (
{
name = bottom;
position = "{358, 0}";
},
{
name = top;
position = "{338, 600}";
}
);
layerId = "083550D2-F2E8-44E3-BE3D-E8BDF41EDFC4";
paths = (
{
closed = 1;
nodes = (
"214 0 LINE",
"214 0 OFFCURVE",
"193 1 OFFCURVE",
"193 60 CURVE",
"193 233 LINE SMOOTH",
"193 265 OFFCURVE",
"193 266 OFFCURVE",
"234 266 CURVE",
"245 266 LINE",
"414 266 OFFCURVE",
"523 154 OFFCURVE",
"559 55 CURVE",
"579 1 OFFCURVE",
"545 0 OFFCURVE",
"545 0 CURVE",
"755 0 LINE",
"755 0 OFFCURVE",
"725 1 OFFCURVE",
"684 70 CURVE",
"639 145 OFFCURVE",
"590 209 OFFCURVE",
"521 258 CURVE",
"464 298 OFFCURVE",
"420 313 OFFCURVE",
"388 320 CURVE",
"388 323 LINE",
"404 330 OFFCURVE",
"438 343 OFFCURVE",
"479 378 CURVE",
"524 417 OFFCURVE",
"556 456 OFFCURVE",
"609 539 CURVE",
"648 599 OFFCURVE",
"680 600 OFFCURVE",
"680 600 CURVE",
"467 600 LINE",
"467 600 OFFCURVE",
"493 598 OFFCURVE",
"477 539 CURVE",
"447 426 OFFCURVE",
"336 346 OFFCURVE",
"244 346 CURVE",
"234 346 LINE",
"195 346 OFFCURVE",
"193 346 OFFCURVE",
"193 376 CURVE SMOOTH",
"193 539 LINE SMOOTH",
"193 599 OFFCURVE",
"214 600 OFFCURVE",
"214 600 CURVE",
"60 600 LINE",
"60 600 OFFCURVE",
"81 598 OFFCURVE",
"81 540 CURVE",
"81 60 LINE",
"81 1 OFFCURVE",
"60 0 OFFCURVE",
"60 0 CURVE"
);
}
);
width = 765;
},
{
anchors = (
{
name = bottom;
position = "{368, 0}";
},
{
name = top;
position = "{348, 600}";
}
);
layerId = "1A280FA7-9E72-4FC3-84C1-49B7BD56B269";
paths = (
{
closed = 1;
nodes = (
"256 0 LINE",
"256 0 OFFCURVE",
"235 1 OFFCURVE",
"235 60 CURVE",
"235 212 LINE",
"235 244 OFFCURVE",
"235 245 OFFCURVE",
"276 245 CURVE",
"287 245 LINE",
"394 245 OFFCURVE",
"473 176 OFFCURVE",
"517 55 CURVE",
"537 1 OFFCURVE",
"503 0 OFFCURVE",
"503 0 CURVE",
"755 0 LINE",
"755 0 OFFCURVE",
"725 1 OFFCURVE",
"684 70 CURVE",
"639 145 OFFCURVE",
"603 206 OFFCURVE",
"537 259 CURVE",
"487 299 OFFCURVE",
"450 313 OFFCURVE",
"418 320 CURVE",
"418 323 LINE",
"441 331 OFFCURVE",
"471 349 OFFCURVE",
"507 383 CURVE",
"548 422 OFFCURVE",
"576 456 OFFCURVE",
"629 539 CURVE",
"668 599 OFFCURVE",
"700 600 OFFCURVE",
"700 600 CURVE",
"445 600 LINE",
"445 600 OFFCURVE",
"466 599 OFFCURVE",
"455 539 CURVE",
"433 415 OFFCURVE",
"344 356 OFFCURVE",
"286 356 CURVE",
"276 356 LINE",
"237 356 OFFCURVE",
"235 356 OFFCURVE",
"235 386 CURVE SMOOTH",
"235 539 LINE SMOOTH",
"235 599 OFFCURVE",
"256 600 OFFCURVE",
"256 600 CURVE",
"60 600 LINE",
"60 600 OFFCURVE",
"81 598 OFFCURVE",
"81 540 CURVE",
"81 60 LINE",
"81 1 OFFCURVE",
"60 0 OFFCURVE",
"60 0 CURVE"
);
}
);
width = 765;
},
{
associatedMasterId = "083550D2-F2E8-44E3-BE3D-E8BDF41EDFC4";
layerId = "0AAF2CB4-2EBD-42C4-BAB4-4CEC92C737FB";
width = 600;
},
{
anchors = (
{
name = bottom;
position = "{318, 0}";
},
{
name = top;
position = "{298, 600}";
}
);
layerId = "CA5CD7F6-F0E6-40F5-9716-481B35A0BC32";
paths = (
{
closed = 1;
nodes = (
"154 0 LINE",
"154 0 OFFCURVE",
"133 1 OFFCURVE",
"133 60 CURVE",
"133 254 LINE",
"133 286 OFFCURVE",
"133 287 OFFCURVE",
"174 287 CURVE",
"244 287 LINE",
"446 287 OFFCURVE",
"563 154 OFFCURVE",
"599 55 CURVE",
"619 1 OFFCURVE",
"585 0 OFFCURVE",
"585 0 CURVE",
"735 0 LINE",
"735 0 OFFCURVE",
"705 1 OFFCURVE",
"664 70 CURVE",
"619 145 OFFCURVE",
"573 212 OFFCURVE",
"502 258 CURVE",
"444 296 OFFCURVE",
"394 313 OFFCURVE",
"358 320 CURVE",
"358 323 LINE",
"375 327 OFFCURVE",
"410 339 OFFCURVE",
"460 375 CURVE",
"507 409 OFFCURVE",
"544 456 OFFCURVE",
"589 539 CURVE",
"621 599 OFFCURVE",
"640 600 OFFCURVE",
"640 600 CURVE",
"506 600 LINE",
"506 600 OFFCURVE",
"534 598 OFFCURVE",
"516 539 CURVE",
"484 437 OFFCURVE",
"390 336 OFFCURVE",
"254 336 CURVE",
"174 336 LINE",
"135 336 OFFCURVE",
"133 336 OFFCURVE",
"133 366 CURVE",
"133 539 LINE",
"133 599 OFFCURVE",
"154 600 OFFCURVE",
"154 600 CURVE",
"60 600 LINE",
"60 600 OFFCURVE",
"81 598 OFFCURVE",
"81 540 CURVE",
"81 60 LINE",
"81 1 OFFCURVE",
"60 0 OFFCURVE",
"60 0 CURVE"
);
}
);
width = 745;
},
{
associatedMasterId = "CA5CD7F6-F0E6-40F5-9716-481B35A0BC32";
layerId = "79179E7E-3999-4BD3-84AB-6468081ADC3F";
width = 600;
}
);
leftMetricsKey = H;
unicode = 004B;
},
{
color = 1;
glyphname = L;
layers = (
{
anchors = (
{
name = bottom;
position = "{324, 0}";
},
{
name = center;
position = "{144, 300}";
},
{
name = top;
position = "{314, 600}";
},
{
name = topright;
position = "{617, 600}";
}
);
layerId = "083550D2-F2E8-44E3-BE3D-E8BDF41EDFC4";
paths = (
{
closed = 1;
nodes = (
"607 0 LINE",
"607 21 LINE",
"627 121 LINE",
"627 121 OFFCURVE",
"593 81 OFFCURVE",
"487 81 CURVE",
"234 81 LINE",
"194 81 OFFCURVE",
"193 82 OFFCURVE",
"193 112 CURVE",
"193 539 LINE",
"193 599 OFFCURVE",
"214 600 OFFCURVE",
"214 600 CURVE",
"60 600 LINE",
"60 600 OFFCURVE",
"81 598 OFFCURVE",
"81 540 CURVE",
"81 60 LINE",
"81 1 OFFCURVE",
"60 0 OFFCURVE",
"60 0 CURVE"
);
}
);
width = 637;
},
{
anchors = (
{
name = bottom;
position = "{324, 0}";
},
{
name = center;
position = "{164, 300}";
},
{
name = top;
position = "{344, 600}";
},
{
name = topright;
position = "{617, 600}";
}
);
layerId = "1A280FA7-9E72-4FC3-84C1-49B7BD56B269";
paths = (
{
closed = 1;
nodes = (
"627 0 LINE",
"627 31 LINE",
"657 151 LINE",
"657 151 OFFCURVE",
"623 111 OFFCURVE",
"517 111 CURVE",
"276 111 LINE",
"236 111 OFFCURVE",
"235 112 OFFCURVE",
"235 142 CURVE",
"235 539 LINE",
"235 599 OFFCURVE",
"256 600 OFFCURVE",
"256 600 CURVE",
"60 600 LINE",
"60 600 OFFCURVE",
"81 598 OFFCURVE",
"81 540 CURVE",
"81 60 LINE",
"81 1 OFFCURVE",
"60 0 OFFCURVE",
"60 0 CURVE"
);
}
);
width = 667;
},
{
anchors = (
{
name = bottom;
position = "{324, 0}";
},
{
name = center;
position = "{124, 300}";
},
{
name = top;
position = "{294, 600}";
},
{
name = topright;
position = "{617, 600}";
}
);
layerId = "CA5CD7F6-F0E6-40F5-9716-481B35A0BC32";
paths = (
{
closed = 1;
nodes = (
"586 0 LINE",
"586 11 LINE",
"606 70 LINE",
"606 70 OFFCURVE",
"572 40 OFFCURVE",
"466 40 CURVE",
"174 40 LINE",
"134 40 OFFCURVE",
"133 41 OFFCURVE",
"133 71 CURVE",
"133 539 LINE",
"133 599 OFFCURVE",
"154 600 OFFCURVE",
"154 600 CURVE",
"60 600 LINE",
"60 600 OFFCURVE",
"81 598 OFFCURVE",
"81 540 CURVE",
"81 60 LINE",
"81 1 OFFCURVE",
"60 0 OFFCURVE",
"60 0 CURVE"
);
}
);
width = 616;
}
);
leftMetricsKey = H;
unicode = 004C;
},
{
color = 1;
glyphname = M;
layers = (
{
layerId = "083550D2-F2E8-44E3-BE3D-E8BDF41EDFC4";
paths = (
{
closed = 1;
nodes = (
"214 0 LINE",
"214 0 OFFCURVE",
"193 1 OFFCURVE",
"193 60 CURVE",
"193 474 LINE",
"196 474 LINE",
"196 474 OFFCURVE",
"358 136 OFFCURVE",
"392 60 CURVE",
"419 0 OFFCURVE",
"402 0 OFFCURVE",
"402 0 CURVE",
"542 0 LINE",
"542 0 OFFCURVE",
"526 2 OFFCURVE",
"552 60 CURVE",
"592 150 OFFCURVE",
"752 474 OFFCURVE",
"752 474 CURVE",
"754 474 LINE",
"754 60 LINE",
"754 1 OFFCURVE",
"734 0 OFFCURVE",
"734 0 CURVE",
"887 0 LINE",
"887 0 OFFCURVE",
"866 1 OFFCURVE",
"866 60 CURVE",
"866 539 LINE",
"866 599 OFFCURVE",
"887 600 OFFCURVE",
"887 600 CURVE",
"703 600 LINE",
"703 600 OFFCURVE",
"708 599 OFFCURVE",
"682 540 CURVE",
"656 481 OFFCURVE",
"473 110 OFFCURVE",
"473 110 CURVE",
"472 110 LINE",
"472 110 OFFCURVE",
"293 477 OFFCURVE",
"266 538 CURVE",
"239 599 OFFCURVE",
"245 600 OFFCURVE",
"245 600 CURVE",
"60 600 LINE",
"60 600 OFFCURVE",
"81 598 OFFCURVE",
"81 540 CURVE",
"81 60 LINE",
"81 1 OFFCURVE",
"60 0 OFFCURVE",
"60 0 CURVE"
);
}
);
width = 947;
},
{
layerId = "1A280FA7-9E72-4FC3-84C1-49B7BD56B269";
paths = (
{
closed = 1;
nodes = (
"256 0 LINE",
"256 0 OFFCURVE",
"235 1 OFFCURVE",
"235 60 CURVE",
"235 384 LINE",
"238 384 LINE",
"238 384 OFFCURVE",
"355 143 OFFCURVE",
"392 60 CURVE",
"418 2 OFFCURVE",
"402 0 OFFCURVE",
"402 0 CURVE",
"542 0 LINE",
"542 0 OFFCURVE",
"526 2 OFFCURVE",
"552 60 CURVE",
"592 150 OFFCURVE",
"712 384 OFFCURVE",
"712 384 CURVE",
"714 384 LINE",
"714 60 LINE",
"714 1 OFFCURVE",
"694 0 OFFCURVE",
"694 0 CURVE",
"887 0 LINE",
"887 0 OFFCURVE",
"866 1 OFFCURVE",
"866 60 CURVE",
"866 539 LINE",
"866 599 OFFCURVE",
"887 600 OFFCURVE",
"887 600 CURVE",
"651 600 LINE",
"651 600 OFFCURVE",
"665 599 OFFCURVE",
"640 540 CURVE",
"612 474 OFFCURVE",
"473 190 OFFCURVE",
"473 190 CURVE",
"472 190 LINE",
"472 190 OFFCURVE",
"338 478 OFFCURVE",
"307 538 CURVE",
"277 597 OFFCURVE",
"296 600 OFFCURVE",
"296 600 CURVE",
"60 600 LINE",
"60 600 OFFCURVE",
"81 598 OFFCURVE",
"81 540 CURVE",
"81 60 LINE",
"81 1 OFFCURVE",
"60 0 OFFCURVE",
"60 0 CURVE"
);
}
);
width = 947;
},
{
associatedMasterId = "083550D2-F2E8-44E3-BE3D-E8BDF41EDFC4";
layerId = "0AAF2CB4-2EBD-42C4-BAB4-4CEC92C737FB";
width = 600;
},
{
layerId = "CA5CD7F6-F0E6-40F5-9716-481B35A0BC32";
paths = (
{
closed = 1;
nodes = (
"155 0 LINE",
"155 0 OFFCURVE",
"134 1 OFFCURVE",
"134 60 CURVE",
"134 504 LINE",
"137 504 LINE",
"137 504 OFFCURVE",
"349 132 OFFCURVE",
"392 60 CURVE",
"427 1 OFFCURVE",
"402 0 OFFCURVE",
"402 0 CURVE",
"500 0 LINE",
"500 0 OFFCURVE",
"474 0 OFFCURVE",
"510 60 CURVE",
"561 144 OFFCURVE",
"770 504 OFFCURVE",
"770 504 CURVE",
"772 504 LINE",
"772 60 LINE",
"772 1 OFFCURVE",
"752 0 OFFCURVE",
"752 0 CURVE",
"845 0 LINE",
"845 0 OFFCURVE",
"824 1 OFFCURVE",
"824 60 CURVE",
"824 539 LINE",
"824 599 OFFCURVE",
"845 600 OFFCURVE",
"845 600 CURVE",
"752 600 LINE",
"752 600 OFFCURVE",
"766 599 OFFCURVE",
"731 540 CURVE",
"693 476 OFFCURVE",
"452 60 OFFCURVE",
"452 60 CURVE",
"451 60 LINE",
"451 60 OFFCURVE",
"208 477 OFFCURVE",
"174 538 CURVE",
"142 596 OFFCURVE",
"153 600 OFFCURVE",
"153 600 CURVE",
"60 600 LINE",
"60 600 OFFCURVE",
"81 598 OFFCURVE",
"81 540 CURVE",
"81 60 LINE",
"81 1 OFFCURVE",
"60 0 OFFCURVE",
"60 0 CURVE"
);
}
);
width = 905;
},
{
associatedMasterId = "CA5CD7F6-F0E6-40F5-9716-481B35A0BC32";
layerId = "FC758BEA-8862-433A-959B-54801E6FFFB2";
width = 600;
}
);
leftMetricsKey = H;
rightMetricsKey = H;
unicode = 004D;
},
{
color = 1;
glyphname = N;
layers = (
{
anchors = (
{
name = bottom;
position = "{385, 0}";
},
{
name = top;
position = "{385, 600}";
}
);
layerId = "083550D2-F2E8-44E3-BE3D-E8BDF41EDFC4";
paths = (
{
closed = 1;
nodes = (
"214 0 LINE",
"214 0 OFFCURVE",
"193 1 OFFCURVE",
"193 60 CURVE",
"193 477 LINE",
"196 477 LINE",
"196 477 OFFCURVE",
"465 148 OFFCURVE",
"535 62 CURVE",
"577 10 OFFCURVE",
"575 0 OFFCURVE",
"575 0 CURVE",
"706 0 LINE",
"706 0 OFFCURVE",
"685 1 OFFCURVE",
"685 60 CURVE",
"685 539 LINE",
"685 599 OFFCURVE",
"706 600 OFFCURVE",
"706 600 CURVE",
"552 600 LINE",
"552 600 OFFCURVE",
"573 598 OFFCURVE",
"573 540 CURVE",
"573 165 LINE",
"571 165 LINE",
"571 165 OFFCURVE",
"286 498 OFFCURVE",
"254 538 CURVE",
"212 590 OFFCURVE",
"215 600 OFFCURVE",
"215 600 CURVE",
"60 600 LINE",
"60 600 OFFCURVE",
"81 598 OFFCURVE",
"81 540 CURVE",
"81 60 LINE",
"81 1 OFFCURVE",
"60 0 OFFCURVE",
"60 0 CURVE"
);
}
);
width = 766;
},
{
anchors = (
{
name = bottom;
position = "{375, 0}";
},
{
name = top;
position = "{375, 600}";
}
);
layerId = "1A280FA7-9E72-4FC3-84C1-49B7BD56B269";
paths = (
{
closed = 1;
nodes = (
"256 0 LINE",
"256 0 OFFCURVE",
"235 1 OFFCURVE",
"235 60 CURVE",
"235 387 LINE",
"238 387 LINE",
"238 387 OFFCURVE",
"440 144 OFFCURVE",
"504 62 CURVE",
"553 -1 OFFCURVE",
"534 0 OFFCURVE",
"534 0 CURVE",
"706 0 LINE",
"706 0 OFFCURVE",
"685 1 OFFCURVE",
"685 60 CURVE",
"685 539 LINE",
"685 599 OFFCURVE",
"706 600 OFFCURVE",
"706 600 CURVE",
"510 600 LINE",
"510 600 OFFCURVE",
"531 598 OFFCURVE",
"531 540 CURVE",
"531 255 LINE",
"529 255 LINE",
"529 255 OFFCURVE",
"319 499 OFFCURVE",
"285 538 CURVE",
"232 599 OFFCURVE",
"256 600 OFFCURVE",
"256 600 CURVE",
"60 600 LINE",
"60 600 OFFCURVE",
"81 598 OFFCURVE",
"81 540 CURVE",
"81 60 LINE",
"81 1 OFFCURVE",
"60 0 OFFCURVE",
"60 0 CURVE"
);
}
);
width = 766;
},
{
anchors = (
{
name = bottom;
position = "{375, 0}";
},
{
name = top;
position = "{375, 600}";
}
);
layerId = "CA5CD7F6-F0E6-40F5-9716-481B35A0BC32";
paths = (
{
closed = 1;
nodes = (
"155 0 LINE",
"155 0 OFFCURVE",
"134 1 OFFCURVE",
"134 60 CURVE",
"134 557 LINE",
"137 557 LINE",
"137 557 OFFCURVE",
"473 146 OFFCURVE",
"546 62 CURVE",
"592 9 OFFCURVE",
"586 0 OFFCURVE",
"586 0 CURVE",
"664 0 LINE",
"664 0 OFFCURVE",
"643 1 OFFCURVE",
"643 60 CURVE",
"643 539 LINE",
"643 599 OFFCURVE",
"664 600 OFFCURVE",
"664 600 CURVE",
"570 600 LINE",
"570 600 OFFCURVE",
"591 598 OFFCURVE",
"591 540 CURVE",
"591 85 LINE",
"589 85 LINE",
"589 85 OFFCURVE",
"246 500 OFFCURVE",
"212 538 CURVE",
"158 598 OFFCURVE",
"166 600 OFFCURVE",
"166 600 CURVE",
"60 600 LINE",
"60 600 OFFCURVE",
"81 598 OFFCURVE",
"81 540 CURVE",
"81 60 LINE",
"81 1 OFFCURVE",
"60 0 OFFCURVE",
"60 0 CURVE"
);
}
);
width = 724;
}
);
leftMetricsKey = H;
rightMetricsKey = H;
unicode = 004E;
},
{
color = 1;
glyphname = Eng;
layers = (
{
layerId = "083550D2-F2E8-44E3-BE3D-E8BDF41EDFC4";
paths = (
{
closed = 1;
nodes = (
"214 0 LINE",
"214 0 OFFCURVE",
"193 1 OFFCURVE",
"193 60 CURVE",
"193 477 LINE",
"196 477 LINE",
"196 477 OFFCURVE",
"465 148 OFFCURVE",
"535 62 CURVE",
"577 10 OFFCURVE",
"585 0 OFFCURVE",
"585 0 CURVE",
"685 0 LINE",
"685 0 OFFCURVE",
"685 1 OFFCURVE",
"685 60 CURVE",
"685 539 LINE",
"685 599 OFFCURVE",
"706 600 OFFCURVE",
"706 600 CURVE",
"552 600 LINE",
"552 600 OFFCURVE",
"573 598 OFFCURVE",
"573 540 CURVE",
"573 165 LINE",
"571 165 LINE",
"571 165 OFFCURVE",
"286 498 OFFCURVE",
"254 538 CURVE",
"212 590 OFFCURVE",
"215 600 OFFCURVE",
"215 600 CURVE",
"60 600 LINE",
"60 600 OFFCURVE",
"81 598 OFFCURVE",
"81 540 CURVE",
"81 60 LINE",
"81 1 OFFCURVE",
"60 0 OFFCURVE",
"60 0 CURVE"
);
},
{
closed = 1;
nodes = (
"496 -173 OFFCURVE",
"508 -173 OFFCURVE",
"517 -173 CURVE",
"620 -173 OFFCURVE",
"685 -109 OFFCURVE",
"685 0 CURVE",
"685 43 LINE",
"551 43 LINE",
"562 27 OFFCURVE",
"573 7 OFFCURVE",
"573 -21 CURVE",
"573 -71 OFFCURVE",
"548 -102 OFFCURVE",
"496 -102 CURVE",
"496 -173 LINE"
);
}
);
width = 766;
},
{
layerId = "1A280FA7-9E72-4FC3-84C1-49B7BD56B269";
paths = (
{
closed = 1;
nodes = (
"256 0 LINE",
"256 0 OFFCURVE",
"235 1 OFFCURVE",
"235 60 CURVE",
"235 387 LINE",
"238 387 LINE",
"238 387 OFFCURVE",
"440 144 OFFCURVE",
"504 62 CURVE",
"553 -1 OFFCURVE",
"554 0 OFFCURVE",
"554 0 CURVE",
"685 0 LINE",
"685 0 OFFCURVE",
"685 1 OFFCURVE",
"685 60 CURVE",
"685 539 LINE",
"685 599 OFFCURVE",
"706 600 OFFCURVE",
"706 600 CURVE",
"510 600 LINE",
"510 600 OFFCURVE",
"531 598 OFFCURVE",
"531 540 CURVE",
"531 255 LINE",
"529 255 LINE",
"529 255 OFFCURVE",
"319 499 OFFCURVE",
"285 538 CURVE",
"232 599 OFFCURVE",
"256 600 OFFCURVE",
"256 600 CURVE",
"60 600 LINE",
"60 600 OFFCURVE",
"81 598 OFFCURVE",
"81 540 CURVE",
"81 60 LINE",
"81 1 OFFCURVE",
"60 0 OFFCURVE",
"60 0 CURVE"
);
},
{
closed = 1;
nodes = (
"517 -173 LINE",
"620 -173 OFFCURVE",
"685 -109 OFFCURVE",
"685 0 CURVE",
"685 43 LINE",
"519 43 LINE",
"538 16 OFFCURVE",
"539 2 OFFCURVE",
"539 -23 CURVE",
"539 -48 OFFCURVE",
"517 -72 OFFCURVE",
"476 -72 CURVE",
"476 -173 LINE"
);
}
);
width = 766;
},
{
layerId = "CA5CD7F6-F0E6-40F5-9716-481B35A0BC32";
paths = (
{
closed = 1;
nodes = (
"155 0 LINE",
"155 0 OFFCURVE",
"134 1 OFFCURVE",
"134 60 CURVE",
"134 557 LINE",
"137 557 LINE",
"137 557 OFFCURVE",
"473 146 OFFCURVE",
"546 62 CURVE",
"592 9 OFFCURVE",
"589 0 OFFCURVE",
"589 0 CURVE",
"643 0 LINE",
"643 0 OFFCURVE",
"643 1 OFFCURVE",
"643 60 CURVE",
"643 539 LINE",
"643 599 OFFCURVE",
"664 600 OFFCURVE",
"664 600 CURVE",
"570 600 LINE",
"570 600 OFFCURVE",
"591 598 OFFCURVE",
"591 540 CURVE",
"591 85 LINE",
"589 85 LINE",
"589 85 OFFCURVE",
"246 500 OFFCURVE",
"212 538 CURVE",
"158 598 OFFCURVE",
"166 600 OFFCURVE",
"166 600 CURVE",
"60 600 LINE",
"60 600 OFFCURVE",
"81 598 OFFCURVE",
"81 540 CURVE",
"81 60 LINE",
"81 1 OFFCURVE",
"60 0 OFFCURVE",
"60 0 CURVE"
);
},
{
closed = 1;
nodes = (
"495 -173 OFFCURVE",
"507 -173 OFFCURVE",
"516 -173 CURVE",
"593 -173 OFFCURVE",
"643 -118 OFFCURVE",
"643 -20 CURVE",
"643 43 LINE",
"570 32 LINE",
"590 8 OFFCURVE",
"594 -6 OFFCURVE",
"594 -43 CURVE",
"594 -95 OFFCURVE",
"560 -133 OFFCURVE",
"495 -133 CURVE",
"495 -173 LINE"
);
}
);
width = 724;
}
);
leftMetricsKey = N;
rightMetricsKey = N;
unicode = 014A;
},
{
color = 1;
glyphname = Nhookleft;
layers = (
{
layerId = "083550D2-F2E8-44E3-BE3D-E8BDF41EDFC4";
paths = (
{
closed = 1;
nodes = (
"173 0 LINE",
"173 0 OFFCURVE",
"173 1 OFFCURVE",
"173 60 CURVE",
"173 477 LINE",
"176 477 LINE",
"176 477 OFFCURVE",
"445 148 OFFCURVE",
"515 62 CURVE",
"557 10 OFFCURVE",
"555 0 OFFCURVE",
"555 0 CURVE",
"686 0 LINE",
"686 0 OFFCURVE",
"665 1 OFFCURVE",
"665 60 CURVE",
"665 539 LINE",
"665 599 OFFCURVE",
"686 600 OFFCURVE",
"686 600 CURVE",
"532 600 LINE",
"532 600 OFFCURVE",
"553 598 OFFCURVE",
"553 540 CURVE",
"553 165 LINE",
"551 165 LINE",
"551 165 OFFCURVE",
"266 498 OFFCURVE",
"234 538 CURVE",
"192 590 OFFCURVE",
"195 600 OFFCURVE",
"195 600 CURVE",
"40 600 LINE",
"40 600 OFFCURVE",
"61 598 OFFCURVE",
"61 540 CURVE",
"61 60 LINE",
"61 1 OFFCURVE",
"61 0 OFFCURVE",
"61 0 CURVE"
);
},
{
closed = 1;
nodes = (
"129 -182 OFFCURVE",
"173 -125 OFFCURVE",
"173 -29 CURVE",
"173 1 LINE",
"61 1 LINE",
"61 1 OFFCURVE",
"61 1 OFFCURVE",
"61 -18 CURVE",
"61 -83 OFFCURVE",
"51 -102 OFFCURVE",
"12 -102 CURVE",
"-18 -102 OFFCURVE",
"-50 -82 OFFCURVE",
"-50 -82 CURVE",
"-40 -112 LINE",
"-40 -172 LINE",
"-40 -172 OFFCURVE",
"-17 -182 OFFCURVE",
"24 -182 CURVE"
);
}
);
width = 746;
},
{
layerId = "1A280FA7-9E72-4FC3-84C1-49B7BD56B269";
paths = (
{
closed = 1;
nodes = (
"215 0 LINE",
"215 0 OFFCURVE",
"215 1 OFFCURVE",
"215 60 CURVE",
"215 387 LINE",
"218 387 LINE",
"218 387 OFFCURVE",
"420 144 OFFCURVE",
"484 62 CURVE",
"533 -1 OFFCURVE",
"514 0 OFFCURVE",
"514 0 CURVE",
"686 0 LINE",
"686 0 OFFCURVE",
"665 1 OFFCURVE",
"665 60 CURVE",
"665 539 LINE",
"665 599 OFFCURVE",
"686 600 OFFCURVE",
"686 600 CURVE",
"490 600 LINE",
"490 600 OFFCURVE",
"511 598 OFFCURVE",
"511 540 CURVE",
"511 255 LINE",
"509 255 LINE",
"509 255 OFFCURVE",
"299 499 OFFCURVE",
"265 538 CURVE",
"212 599 OFFCURVE",
"236 600 OFFCURVE",
"236 600 CURVE",
"40 600 LINE",
"40 600 OFFCURVE",
"61 598 OFFCURVE",
"61 540 CURVE",
"61 60 LINE",
"61 1 OFFCURVE",
"61 0 OFFCURVE",
"61 0 CURVE"
);
},
{
closed = 1;
nodes = (
"150 -182 OFFCURVE",
"215 -141 OFFCURVE",
"215 -29 CURVE",
"215 1 LINE",
"61 1 LINE",
"61 1 OFFCURVE",
"61 1 OFFCURVE",
"61 -18 CURVE",
"61 -51 OFFCURVE",
"61 -72 OFFCURVE",
"12 -72 CURVE",
"-18 -72 OFFCURVE",
"-50 -52 OFFCURVE",
"-50 -52 CURVE",
"-40 -82 LINE",
"-40 -172 LINE",
"-40 -172 OFFCURVE",
"-17 -182 OFFCURVE",
"24 -182 CURVE"
);
}
);
width = 746;
},
{
layerId = "CA5CD7F6-F0E6-40F5-9716-481B35A0BC32";
paths = (
{
closed = 1;
nodes = (
"114 0 LINE",
"114 0 OFFCURVE",
"114 1 OFFCURVE",
"114 60 CURVE",
"114 557 LINE",
"117 557 LINE",
"117 557 OFFCURVE",
"453 146 OFFCURVE",
"526 62 CURVE",
"572 9 OFFCURVE",
"566 0 OFFCURVE",
"566 0 CURVE",
"644 0 LINE",
"644 0 OFFCURVE",
"623 1 OFFCURVE",
"623 60 CURVE",
"623 539 LINE",
"623 599 OFFCURVE",
"644 600 OFFCURVE",
"644 600 CURVE",
"550 600 LINE",
"550 600 OFFCURVE",
"571 598 OFFCURVE",
"571 540 CURVE",
"571 85 LINE",
"569 85 LINE",
"569 85 OFFCURVE",
"226 500 OFFCURVE",
"192 538 CURVE",
"138 598 OFFCURVE",
"146 600 OFFCURVE",
"146 600 CURVE",
"40 600 LINE",
"40 600 OFFCURVE",
"61 598 OFFCURVE",
"61 540 CURVE",
"61 60 LINE",
"61 1 OFFCURVE",
"61 0 OFFCURVE",
"61 0 CURVE"
);
},
{
closed = 1;
nodes = (
"101 -182 OFFCURVE",
"114 -121 OFFCURVE",
"114 -49 CURVE",
"114 1 LINE",
"61 1 LINE",
"61 -48 LINE",
"61 -102 OFFCURVE",
"48 -132 OFFCURVE",
"12 -132 CURVE",
"-18 -132 OFFCURVE",
"-50 -112 OFFCURVE",
"-50 -112 CURVE",
"-40 -142 LINE",
"-40 -172 LINE",
"-40 -172 OFFCURVE",
"-27 -182 OFFCURVE",
"14 -182 CURVE"
);
}
);
width = 704;
}
);
leftMetricsKey = j;
rightMetricsKey = N;
unicode = 019D;
},
{
color = 1;
glyphname = O;
layers = (
{
anchors = (
{
name = bottom;
position = "{388, 0}";
},
{
name = center;
position = "{388, 300}";
},
{
name = ogonek;
position = "{502, 10}";
},
{
name = top;
position = "{388, 600}";
},
{
name = topleft;
position = "{40, 600}";
},
{
name = topright;
position = "{736, 510}";
}
);
layerId = "083550D2-F2E8-44E3-BE3D-E8BDF41EDFC4";
paths = (
{
closed = 1;
nodes = (
"406 -10 LINE",
"630 -10 OFFCURVE",
"726 105 OFFCURVE",
"726 303 CURVE",
"726 493 OFFCURVE",
"631 610 OFFCURVE",
"406 610 CURVE",
"375 610 LINE",
"145 610 OFFCURVE",
"50 492 OFFCURVE",
"50 303 CURVE",
"50 106 OFFCURVE",
"146 -10 OFFCURVE",
"375 -10 CURVE"
);
},
{
closed = 1;
nodes = (
"236 71 OFFCURVE",
"162 130 OFFCURVE",
"162 303 CURVE",
"162 469 OFFCURVE",
"234 530 OFFCURVE",
"385 530 CURVE",
"396 530 LINE",
"543 530 OFFCURVE",
"614 472 OFFCURVE",
"614 303 CURVE",
"614 129 OFFCURVE",
"545 71 OFFCURVE",
"396 71 CURVE",
"385 71 LINE"
);
}
);
width = 776;
},
{
anchors = (
{
name = bottom;
position = "{388, 0}";
},
{
name = center;
position = "{388, 300}";
},
{
name = ogonek;
position = "{502, 10}";
},
{
name = top;
position = "{388, 600}";
},
{
name = topleft;
position = "{40, 600}";
},
{
name = topright;
position = "{736, 510}";
}
);
layerId = "1A280FA7-9E72-4FC3-84C1-49B7BD56B269";
paths = (
{
closed = 1;
nodes = (
"406 -10 LINE",
"630 -10 OFFCURVE",
"726 105 OFFCURVE",
"726 303 CURVE",
"726 493 OFFCURVE",
"631 610 OFFCURVE",
"406 610 CURVE",
"375 610 LINE",
"145 610 OFFCURVE",
"50 492 OFFCURVE",
"50 303 CURVE",
"50 106 OFFCURVE",
"146 -10 OFFCURVE",
"375 -10 CURVE"
);
},
{
closed = 1;
nodes = (
"263 101 OFFCURVE",
"202 156 OFFCURVE",
"202 303 CURVE",
"202 442 OFFCURVE",
"260 500 OFFCURVE",
"385 500 CURVE",
"396 500 LINE",
"516 500 OFFCURVE",
"574 445 OFFCURVE",
"574 303 CURVE",
"574 156 OFFCURVE",
"518 101 OFFCURVE",
"396 101 CURVE",
"385 101 LINE"
);
}
);
width = 776;
},
{
anchors = (
{
name = bottom;
position = "{388, 0}";
},
{
name = center;
position = "{388, 300}";
},
{
name = ogonek;
position = "{502, 10}";
},
{
name = top;
position = "{388, 600}";
},
{
name = topleft;
position = "{40, 600}";
},
{
name = topright;
position = "{736, 510}";
}
);
layerId = "CA5CD7F6-F0E6-40F5-9716-481B35A0BC32";
paths = (
{
closed = 1;
nodes = (
"406 -10 LINE",
"635 -10 OFFCURVE",
"726 94 OFFCURVE",
"726 303 CURVE",
"726 504 OFFCURVE",
"636 610 OFFCURVE",
"406 610 CURVE",
"375 610 LINE",
"140 610 OFFCURVE",
"50 503 OFFCURVE",
"50 303 CURVE",
"50 95 OFFCURVE",
"141 -10 OFFCURVE",
"375 -10 CURVE"
);
},
{
closed = 1;
nodes = (
"209 31 OFFCURVE",
"104 90 OFFCURVE",
"104 303 CURVE",
"104 503 OFFCURVE",
"207 570 OFFCURVE",
"385 570 CURVE",
"396 570 LINE",
"570 570 OFFCURVE",
"672 506 OFFCURVE",
"672 303 CURVE",
"672 87 OFFCURVE",
"572 31 OFFCURVE",
"396 31 CURVE",
"385 31 LINE"
);
}
);
width = 776;
}
);
unicode = 004F;
},
{
color = 1;
glyphname = OE;
layers = (
{
components = (
{
name = E;
transform = "{1, 0, 0, 1, 460, 0}";
}
);
layerId = "083550D2-F2E8-44E3-BE3D-E8BDF41EDFC4";
paths = (
{
closed = 1;
nodes = (
"602 -10 OFFCURVE",
"616 40 OFFCURVE",
"616 40 CURVE",
"616 70 LINE",
"616 151 LINE",
"616 151 OFFCURVE",
"580 71 OFFCURVE",
"424 71 CURVE",
"212 71 OFFCURVE",
"162 166 OFFCURVE",
"162 300 CURVE",
"162 434 OFFCURVE",
"217 530 OFFCURVE",
"395 530 CURVE",
"567 530 OFFCURVE",
"616 460 OFFCURVE",
"616 460 CURVE",
"616 550 LINE",
"616 580 LINE",
"616 580 OFFCURVE",
"567 610 OFFCURVE",
"393 610 CURVE",
"150 610 OFFCURVE",
"50 485 OFFCURVE",
"50 300 CURVE",
"50 85 OFFCURVE",
"163 -10 OFFCURVE",
"393 -10 CURVE"
);
}
);
width = 1144;
},
{
components = (
{
name = E;
transform = "{1, 0, 0, 1, 470, 0}";
}
);
layerId = "1A280FA7-9E72-4FC3-84C1-49B7BD56B269";
paths = (
{
closed = 1;
nodes = (
"602 -10 OFFCURVE",
"616 40 OFFCURVE",
"616 40 CURVE",
"616 70 LINE",
"616 191 LINE",
"616 191 OFFCURVE",
"580 101 OFFCURVE",
"424 101 CURVE",
"252 101 OFFCURVE",
"202 166 OFFCURVE",
"202 300 CURVE",
"202 434 OFFCURVE",
"257 500 OFFCURVE",
"395 500 CURVE",
"567 500 OFFCURVE",
"616 420 OFFCURVE",
"616 420 CURVE",
"616 550 LINE",
"616 580 LINE",
"616 580 OFFCURVE",
"567 610 OFFCURVE",
"393 610 CURVE",
"150 610 OFFCURVE",
"50 485 OFFCURVE",
"50 300 CURVE",
"50 85 OFFCURVE",
"163 -10 OFFCURVE",
"393 -10 CURVE"
);
}
);
width = 1175;
},
{
associatedMasterId = "083550D2-F2E8-44E3-BE3D-E8BDF41EDFC4";
layerId = "0AAF2CB4-2EBD-42C4-BAB4-4CEC92C737FB";
width = 600;
},
{
components = (
{
name = E;
transform = "{1, 0, 0, 1, 450, 0}";
}
);
layerId = "CA5CD7F6-F0E6-40F5-9716-481B35A0BC32";
paths = (
{
closed = 1;
nodes = (
"582 -10 OFFCURVE",
"576 40 OFFCURVE",
"576 40 CURVE",
"576 60 LINE",
"576 111 LINE",
"576 111 OFFCURVE",
"576 31 OFFCURVE",
"404 31 CURVE",
"170 31 OFFCURVE",
"104 126 OFFCURVE",
"104 300 CURVE",
"104 461 OFFCURVE",
"171 570 OFFCURVE",
"375 570 CURVE",
"563 570 OFFCURVE",
"576 500 OFFCURVE",
"576 500 CURVE",
"576 560 LINE",
"576 580 LINE",
"576 580 OFFCURVE",
"547 610 OFFCURVE",
"373 610 CURVE",
"135 610 OFFCURVE",
"50 485 OFFCURVE",
"50 300 CURVE",
"50 85 OFFCURVE",
"148 -10 OFFCURVE",
"373 -10 CURVE"
);
}
);
width = 1113;
},
{
associatedMasterId = "CA5CD7F6-F0E6-40F5-9716-481B35A0BC32";
layerId = "3AE67AF9-1C87-4966-928E-941A822C7742";
width = 600;
}
);
leftMetricsKey = O;
rightMetricsKey = E;
unicode = 0152;
},
{
color = 1;
glyphname = P;
layers = (
{
layerId = "083550D2-F2E8-44E3-BE3D-E8BDF41EDFC4";
paths = (
{
closed = 1;
nodes = (
"214 0 LINE",
"214 0 OFFCURVE",
"193 1 OFFCURVE",
"193 60 CURVE",
"193 201 LINE",
"388 201 LINE",
"568 201 OFFCURVE",
"628 278 OFFCURVE",
"628 403 CURVE",
"628 521 OFFCURVE",
"570 600 OFFCURVE",
"388 600 CURVE",
"60 600 LINE",
"60 600 OFFCURVE",
"81 598 OFFCURVE",
"81 540 CURVE",
"81 60 LINE",
"81 1 OFFCURVE",
"61 0 OFFCURVE",
"61 0 CURVE"
);
},
{
closed = 1;
nodes = (
"193 280 OFFCURVE",
"193 281 OFFCURVE",
"193 308 CURVE",
"193 492 LINE",
"193 519 OFFCURVE",
"193 519 OFFCURVE",
"234 519 CURVE",
"367 519 LINE",
"485 519 OFFCURVE",
"517 477 OFFCURVE",
"517 403 CURVE",
"517 332 OFFCURVE",
"496 280 OFFCURVE",
"367 280 CURVE",
"234 280 LINE"
);
}
);
width = 678;
},
{
layerId = "1A280FA7-9E72-4FC3-84C1-49B7BD56B269";
paths = (
{
closed = 1;
nodes = (
"256 0 LINE",
"256 0 OFFCURVE",
"235 1 OFFCURVE",
"235 60 CURVE",
"235 191 LINE",
"388 191 LINE",
"557 191 OFFCURVE",
"628 268 OFFCURVE",
"628 397 CURVE",
"628 523 OFFCURVE",
"557 600 OFFCURVE",
"388 600 CURVE",
"60 600 LINE",
"60 600 OFFCURVE",
"81 598 OFFCURVE",
"81 540 CURVE",
"81 60 LINE",
"81 1 OFFCURVE",
"61 0 OFFCURVE",
"61 0 CURVE"
);
},
{
closed = 1;
nodes = (
"235 301 OFFCURVE",
"235 302 OFFCURVE",
"235 329 CURVE",
"235 460 LINE",
"235 487 OFFCURVE",
"235 487 OFFCURVE",
"276 487 CURVE",
"336 487 LINE",
"440 487 OFFCURVE",
"476 463 OFFCURVE",
"476 397 CURVE",
"476 329 OFFCURVE",
"444 301 OFFCURVE",
"326 301 CURVE",
"276 301 LINE"
);
}
);
width = 678;
},
{
associatedMasterId = "083550D2-F2E8-44E3-BE3D-E8BDF41EDFC4";
layerId = "0AAF2CB4-2EBD-42C4-BAB4-4CEC92C737FB";
width = 600;
},
{
layerId = "CA5CD7F6-F0E6-40F5-9716-481B35A0BC32";
paths = (
{
closed = 1;
nodes = (
"154 0 LINE",
"154 0 OFFCURVE",
"133 1 OFFCURVE",
"133 60 CURVE",
"133 222 LINE",
"387 222 LINE",
"548 222 OFFCURVE",
"608 286 OFFCURVE",
"608 410 CURVE",
"608 533 OFFCURVE",
"556 600 OFFCURVE",
"387 600 CURVE",
"60 600 LINE",
"60 600 OFFCURVE",
"81 598 OFFCURVE",
"81 540 CURVE",
"81 60 LINE",
"81 1 OFFCURVE",
"61 0 OFFCURVE",
"61 0 CURVE"
);
},
{
closed = 1;
nodes = (
"133 263 OFFCURVE",
"133 264 OFFCURVE",
"133 291 CURVE",
"133 533 LINE",
"133 560 OFFCURVE",
"133 560 OFFCURVE",
"174 560 CURVE",
"377 560 LINE",
"508 560 OFFCURVE",
"555 512 OFFCURVE",
"555 410 CURVE",
"555 313 OFFCURVE",
"511 263 OFFCURVE",
"377 263 CURVE",
"174 263 LINE"
);
}
);
width = 658;
},
{
associatedMasterId = "CA5CD7F6-F0E6-40F5-9716-481B35A0BC32";
layerId = "FAD15C8D-83A4-4393-AF95-F431071D27BE";
width = 600;
}
);
leftMetricsKey = H;
unicode = 0050;
},
{
color = 1;
glyphname = Thorn;
layers = (
{
layerId = "083550D2-F2E8-44E3-BE3D-E8BDF41EDFC4";
paths = (
{
closed = 1;
nodes = (
"214 0 LINE",
"214 0 OFFCURVE",
"193 1 OFFCURVE",
"193 60 CURVE",
"193 96 LINE",
"388 96 LINE",
"594 96 OFFCURVE",
"628 168 OFFCURVE",
"628 300 CURVE",
"628 421 OFFCURVE",
"570 485 OFFCURVE",
"388 485 CURVE",
"193 485 LINE",
"193 600 LINE",
"60 600 LINE",
"60 600 OFFCURVE",
"81 598 OFFCURVE",
"81 540 CURVE",
"81 60 LINE",
"81 1 OFFCURVE",
"61 0 OFFCURVE",
"61 0 CURVE"
);
},
{
closed = 1;
nodes = (
"193 175 OFFCURVE",
"193 176 OFFCURVE",
"193 203 CURVE",
"193 376 LINE",
"193 403 OFFCURVE",
"193 403 OFFCURVE",
"234 403 CURVE",
"388 403 LINE",
"471 403 OFFCURVE",
"517 377 OFFCURVE",
"517 300 CURVE",
"517 226 OFFCURVE",
"498 175 OFFCURVE",
"388 175 CURVE",
"234 175 LINE"
);
}
);
width = 678;
},
{
layerId = "1A280FA7-9E72-4FC3-84C1-49B7BD56B269";
paths = (
{
closed = 1;
nodes = (
"256 0 LINE",
"256 0 OFFCURVE",
"235 1 OFFCURVE",
"235 60 CURVE",
"235 97 LINE",
"388 97 LINE",
"594 97 OFFCURVE",
"628 176 OFFCURVE",
"628 300 CURVE",
"628 419 OFFCURVE",
"570 485 OFFCURVE",
"388 485 CURVE",
"235 485 LINE",
"235 600 LINE",
"60 600 LINE",
"60 600 OFFCURVE",
"81 598 OFFCURVE",
"81 540 CURVE",
"81 60 LINE",
"81 1 OFFCURVE",
"61 0 OFFCURVE",
"61 0 CURVE"
);
},
{
closed = 1;
nodes = (
"235 207 OFFCURVE",
"235 207 OFFCURVE",
"235 234 CURVE",
"235 344 LINE",
"235 371 OFFCURVE",
"235 371 OFFCURVE",
"276 371 CURVE",
"347 371 LINE",
"414 371 OFFCURVE",
"476 374 OFFCURVE",
"476 300 CURVE",
"476 226 OFFCURVE",
"452 207 OFFCURVE",
"347 207 CURVE",
"276 207 LINE"
);
}
);
width = 678;
},
{
associatedMasterId = "083550D2-F2E8-44E3-BE3D-E8BDF41EDFC4";
layerId = "0AAF2CB4-2EBD-42C4-BAB4-4CEC92C737FB";
width = 600;
},
{
layerId = "CA5CD7F6-F0E6-40F5-9716-481B35A0BC32";
paths = (
{
closed = 1;
nodes = (
"154 0 LINE",
"154 0 OFFCURVE",
"133 1 OFFCURVE",
"133 60 CURVE",
"133 96 LINE",
"388 96 LINE",
"594 96 OFFCURVE",
"628 168 OFFCURVE",
"628 300 CURVE",
"628 421 OFFCURVE",
"570 485 OFFCURVE",
"388 485 CURVE",
"133 485 LINE",
"133 600 LINE",
"60 600 LINE",
"60 600 OFFCURVE",
"81 598 OFFCURVE",
"81 540 CURVE",
"81 60 LINE",
"81 1 OFFCURVE",
"61 0 OFFCURVE",
"61 0 CURVE"
);
},
{
closed = 1;
nodes = (
"133 133 OFFCURVE",
"133 134 OFFCURVE",
"133 161 CURVE",
"133 418 LINE",
"133 445 OFFCURVE",
"133 445 OFFCURVE",
"174 445 CURVE",
"388 445 LINE",
"517 445 OFFCURVE",
"575 413 OFFCURVE",
"575 300 CURVE",
"575 188 OFFCURVE",
"543 133 OFFCURVE",
"388 133 CURVE",
"174 133 LINE"
);
}
);
width = 678;
},
{
associatedMasterId = "CA5CD7F6-F0E6-40F5-9716-481B35A0BC32";
layerId = "4DB6E579-EE3D-4F23-B2E4-1413C9EA4867";
width = 600;
}
);
leftMetricsKey = H;
rightMetricsKey = O;
unicode = 00DE;
},
{
color = 1;
glyphname = Q;
layers = (
{
layerId = "083550D2-F2E8-44E3-BE3D-E8BDF41EDFC4";
paths = (
{
closed = 1;
nodes = (
"657 26 OFFCURVE",
"726 135 OFFCURVE",
"726 303 CURVE",
"726 493 OFFCURVE",
"631 610 OFFCURVE",
"406 610 CURVE",
"375 610 LINE",
"145 610 OFFCURVE",
"50 492 OFFCURVE",
"50 303 CURVE",
"50 143 OFFCURVE",
"113 36 OFFCURVE",
"260 2 CURVE",
"284 27 OFFCURVE",
"320 40 OFFCURVE",
"362 40 CURVE",
"422 40 OFFCURVE",
"465 22 OFFCURVE",
"498 -2 CURVE"
);
},
{
closed = 1;
nodes = (
"406 -10 LINE",
"440 -10 OFFCURVE",
"470 -7 OFFCURVE",
"498 -2 CURVE",
"465 22 OFFCURVE",
"422 40 OFFCURVE",
"362 40 CURVE",
"320 40 OFFCURVE",
"284 27 OFFCURVE",
"260 2 CURVE",
"294 -6 OFFCURVE",
"332 -10 OFFCURVE",
"375 -10 CURVE"
);
},
{
closed = 1;
nodes = (
"728 -182 OFFCURVE",
"758 -82 OFFCURVE",
"758 -10 CURVE",
"687 -10 LINE",
"687 -10 OFFCURVE",
"707 -25 OFFCURVE",
"707 -61 CURVE",
"707 -85 OFFCURVE",
"694 -112 OFFCURVE",
"658 -112 CURVE",
"561 -112 OFFCURVE",
"535 40 OFFCURVE",
"362 40 CURVE",
"290 40 OFFCURVE",
"232 0 OFFCURVE",
"232 -70 CURVE",
"272 -70 OFFCURVE",
"303 -90 OFFCURVE",
"303 -90 CURVE",
"303 -90 OFFCURVE",
"293 -67 OFFCURVE",
"293 -49 CURVE",
"293 -28 OFFCURVE",
"312 -10 OFFCURVE",
"352 -10 CURVE",
"456 -10 OFFCURVE",
"458 -182 OFFCURVE",
"617 -182 CURVE"
);
},
{
closed = 1;
nodes = (
"236 71 OFFCURVE",
"162 130 OFFCURVE",
"162 303 CURVE",
"162 469 OFFCURVE",
"234 530 OFFCURVE",
"385 530 CURVE",
"396 530 LINE",
"543 530 OFFCURVE",
"614 472 OFFCURVE",
"614 303 CURVE",
"614 129 OFFCURVE",
"545 71 OFFCURVE",
"396 71 CURVE",
"385 71 LINE"
);
}
);
width = 788;
},
{
layerId = "1A280FA7-9E72-4FC3-84C1-49B7BD56B269";
paths = (
{
closed = 1;
nodes = (
"406 -10 LINE",
"630 -10 OFFCURVE",
"726 105 OFFCURVE",
"726 303 CURVE",
"726 493 OFFCURVE",
"631 610 OFFCURVE",
"406 610 CURVE",
"375 610 LINE",
"145 610 OFFCURVE",
"50 492 OFFCURVE",
"50 303 CURVE",
"50 106 OFFCURVE",
"146 -10 OFFCURVE",
"375 -10 CURVE"
);
},
{
closed = 1;
nodes = (
"728 -182 OFFCURVE",
"758 -85 OFFCURVE",
"758 -10 CURVE",
"657 -10 LINE",
"657 -10 OFFCURVE",
"677 -35 OFFCURVE",
"677 -71 CURVE",
"677 -90 OFFCURVE",
"669 -102 OFFCURVE",
"648 -102 CURVE",
"582 -102 OFFCURVE",
"523 40 OFFCURVE",
"342 40 CURVE",
"270 40 OFFCURVE",
"212 0 OFFCURVE",
"212 -70 CURVE",
"252 -70 OFFCURVE",
"303 -100 OFFCURVE",
"303 -100 CURVE",
"303 -100 OFFCURVE",
"293 -80 OFFCURVE",
"293 -49 CURVE",
"293 -20 OFFCURVE",
"303 -10 OFFCURVE",
"322 -10 CURVE",
"406 -10 OFFCURVE",
"441 -182 OFFCURVE",
"617 -182 CURVE"
);
},
{
closed = 1;
nodes = (
"263 101 OFFCURVE",
"202 156 OFFCURVE",
"202 303 CURVE",
"202 442 OFFCURVE",
"260 500 OFFCURVE",
"385 500 CURVE",
"396 500 LINE",
"516 500 OFFCURVE",
"574 445 OFFCURVE",
"574 303 CURVE",
"574 156 OFFCURVE",
"518 101 OFFCURVE",
"396 101 CURVE",
"385 101 LINE"
);
}
);
width = 788;
},
{
associatedMasterId = "083550D2-F2E8-44E3-BE3D-E8BDF41EDFC4";
layerId = "0AAF2CB4-2EBD-42C4-BAB4-4CEC92C737FB";
width = 600;
},
{
layerId = "CA5CD7F6-F0E6-40F5-9716-481B35A0BC32";
paths = (
{
closed = 1;
nodes = (
"406 -10 LINE",
"635 -10 OFFCURVE",
"726 94 OFFCURVE",
"726 303 CURVE",
"726 504 OFFCURVE",
"636 610 OFFCURVE",
"406 610 CURVE",
"375 610 LINE",
"140 610 OFFCURVE",
"50 503 OFFCURVE",
"50 303 CURVE",
"50 95 OFFCURVE",
"141 -10 OFFCURVE",
"375 -10 CURVE"
);
},
{
closed = 1;
nodes = (
"728 -182 OFFCURVE",
"758 -82 OFFCURVE",
"758 -10 CURVE",
"697 -10 LINE",
"697 -10 OFFCURVE",
"717 -25 OFFCURVE",
"717 -61 CURVE",
"717 -106 OFFCURVE",
"687 -142 OFFCURVE",
"638 -142 CURVE",
"521 -142 OFFCURVE",
"505 20 OFFCURVE",
"352 20 CURVE",
"277 20 OFFCURVE",
"242 -19 OFFCURVE",
"242 -70 CURVE",
"282 -70 OFFCURVE",
"303 -90 OFFCURVE",
"303 -90 CURVE",
"303 -90 OFFCURVE",
"293 -67 OFFCURVE",
"293 -49 CURVE",
"293 -28 OFFCURVE",
"305 -10 OFFCURVE",
"342 -10 CURVE",
"455 -10 OFFCURVE",
"483 -182 OFFCURVE",
"617 -182 CURVE"
);
},
{
closed = 1;
nodes = (
"209 31 OFFCURVE",
"104 90 OFFCURVE",
"104 303 CURVE",
"104 503 OFFCURVE",
"207 570 OFFCURVE",
"385 570 CURVE",
"396 570 LINE",
"570 570 OFFCURVE",
"672 506 OFFCURVE",
"672 303 CURVE",
"672 87 OFFCURVE",
"572 31 OFFCURVE",
"396 31 CURVE",
"385 31 LINE"
);
}
);
width = 788;
},
{
associatedMasterId = "CA5CD7F6-F0E6-40F5-9716-481B35A0BC32";
layerId = "C4799BC8-BB31-492D-80A1-2436631FED15";
width = 600;
}
);
leftMetricsKey = O;
rightMetricsKey = "=O-20";
unicode = 0051;
},
{
color = 1;
glyphname = R;
layers = (
{
anchors = (
{
name = bottom;
position = "{353, 0}";
},
{
name = top;
position = "{333, 600}";
}
);
layerId = "083550D2-F2E8-44E3-BE3D-E8BDF41EDFC4";
paths = (
{
closed = 1;
nodes = (
"214 0 LINE",
"214 0 OFFCURVE",
"193 1 OFFCURVE",
"193 60 CURVE",
"193 191 LINE",
"193 218 OFFCURVE",
"193 221 OFFCURVE",
"234 221 CURVE",
"245 221 LINE",
"405 221 OFFCURVE",
"497 151 OFFCURVE",
"539 55 CURVE",
"562 2 OFFCURVE",
"525 0 OFFCURVE",
"525 0 CURVE",
"735 0 LINE",
"735 0 OFFCURVE",
"705 3 OFFCURVE",
"664 70 CURVE",
"617 146 OFFCURVE",
"554 217 OFFCURVE",
"465 241 CURVE",
"465 244 LINE",
"584 260 OFFCURVE",
"628 338 OFFCURVE",
"628 413 CURVE",
"628 530 OFFCURVE",
"573 600 OFFCURVE",
"388 600 CURVE",
"60 600 LINE",
"60 600 OFFCURVE",
"81 598 OFFCURVE",
"81 540 CURVE",
"81 60 LINE",
"81 1 OFFCURVE",
"61 0 OFFCURVE",
"61 0 CURVE"
);
},
{
closed = 1;
nodes = (
"193 301 OFFCURVE",
"193 301 OFFCURVE",
"193 328 CURVE",
"193 493 LINE",
"193 519 OFFCURVE",
"193 519 OFFCURVE",
"234 519 CURVE",
"367 519 LINE",
"472 519 OFFCURVE",
"517 487 OFFCURVE",
"517 413 CURVE",
"517 339 OFFCURVE",
"463 301 OFFCURVE",
"357 301 CURVE",
"234 301 LINE"
);
}
);
width = 745;
},
{
anchors = (
{
name = bottom;
position = "{353, 0}";
},
{
name = top;
position = "{333, 600}";
}
);
layerId = "1A280FA7-9E72-4FC3-84C1-49B7BD56B269";
paths = (
{
closed = 1;
nodes = (
"255 0 LINE",
"255 0 OFFCURVE",
"234 1 OFFCURVE",
"234 60 CURVE",
"234 180 LINE",
"234 207 OFFCURVE",
"234 210 OFFCURVE",
"275 210 CURVE",
"286 210 LINE",
"387 210 OFFCURVE",
"455 151 OFFCURVE",
"497 55 CURVE",
"520 2 OFFCURVE",
"483 0 OFFCURVE",
"483 0 CURVE",
"735 0 LINE",
"735 0 OFFCURVE",
"705 3 OFFCURVE",
"664 70 CURVE",
"617 146 OFFCURVE",
"554 215 OFFCURVE",
"501 236 CURVE",
"501 239 LINE",
"573 258 OFFCURVE",
"628 317 OFFCURVE",
"628 408 CURVE",
"628 533 OFFCURVE",
"563 600 OFFCURVE",
"388 600 CURVE",
"60 600 LINE",
"60 600 OFFCURVE",
"81 598 OFFCURVE",
"81 540 CURVE",
"81 60 LINE",
"81 1 OFFCURVE",
"61 0 OFFCURVE",
"61 0 CURVE"
);
},
{
closed = 1;
nodes = (
"234 311 OFFCURVE",
"234 311 OFFCURVE",
"234 338 CURVE",
"234 461 LINE",
"234 487 OFFCURVE",
"234 487 OFFCURVE",
"275 487 CURVE",
"367 487 LINE",
"451 487 OFFCURVE",
"476 454 OFFCURVE",
"476 408 CURVE",
"476 339 OFFCURVE",
"441 311 OFFCURVE",
"357 311 CURVE",
"275 311 LINE"
);
}
);
width = 745;
},
{
associatedMasterId = "083550D2-F2E8-44E3-BE3D-E8BDF41EDFC4";
layerId = "0AAF2CB4-2EBD-42C4-BAB4-4CEC92C737FB";
width = 600;
},
{
anchors = (
{
name = bottom;
position = "{323, 0}";
},
{
name = top;
position = "{303, 600}";
}
);
layerId = "CA5CD7F6-F0E6-40F5-9716-481B35A0BC32";
paths = (
{
closed = 1;
nodes = (
"154 0 LINE",
"154 0 OFFCURVE",
"133 1 OFFCURVE",
"133 60 CURVE",
"133 212 LINE",
"133 239 OFFCURVE",
"133 242 OFFCURVE",
"174 242 CURVE",
"265 242 LINE",
"434 242 OFFCURVE",
"516 166 OFFCURVE",
"578 55 CURVE",
"609 0 OFFCURVE",
"584 0 OFFCURVE",
"584 0 CURVE",
"704 0 LINE",
"704 0 OFFCURVE",
"677 1 OFFCURVE",
"633 70 CURVE",
"583 149 OFFCURVE",
"509 223 OFFCURVE",
"431 245 CURVE",
"431 249 LINE",
"523 260 OFFCURVE",
"607 308 OFFCURVE",
"607 421 CURVE",
"607 538 OFFCURVE",
"552 600 OFFCURVE",
"367 600 CURVE",
"60 600 LINE",
"60 600 OFFCURVE",
"81 598 OFFCURVE",
"81 540 CURVE",
"81 60 LINE",
"81 1 OFFCURVE",
"61 0 OFFCURVE",
"61 0 CURVE"
);
},
{
closed = 1;
nodes = (
"133 281 OFFCURVE",
"133 281 OFFCURVE",
"133 308 CURVE",
"133 534 LINE",
"133 560 OFFCURVE",
"133 560 OFFCURVE",
"174 560 CURVE",
"346 560 LINE",
"518 560 OFFCURVE",
"554 506 OFFCURVE",
"554 421 CURVE",
"554 328 OFFCURVE",
"486 281 OFFCURVE",
"356 281 CURVE",
"174 281 LINE"
);
}
);
width = 724;
},
{
associatedMasterId = "CA5CD7F6-F0E6-40F5-9716-481B35A0BC32";
layerId = "1E78BD80-2859-4164-AE05-3D9C519AC5D6";
width = 600;
}
);
leftMetricsKey = H;
unicode = 0052;
},
{
color = 1;
glyphname = S;
layers = (
{
anchors = (
{
name = bottom;
position = "{338, 0}";
},
{
name = top;
position = "{338, 600}";
}
);
layerId = "083550D2-F2E8-44E3-BE3D-E8BDF41EDFC4";
paths = (
{
closed = 1;
nodes = (
"566 -10 OFFCURVE",
"666 55 OFFCURVE",
"666 160 CURVE",
"666 277 OFFCURVE",
"589 324 OFFCURVE",
"374 349 CURVE",
"238 365 OFFCURVE",
"162 385 OFFCURVE",
"162 452 CURVE",
"162 502 OFFCURVE",
"203 530 OFFCURVE",
"328 530 CURVE",
"532 530 OFFCURVE",
"633 470 OFFCURVE",
"633 470 CURVE",
"603 560 LINE",
"603 580 LINE",
"603 580 OFFCURVE",
"504 610 OFFCURVE",
"313 610 CURVE",
"133 610 OFFCURVE",
"50 539 OFFCURVE",
"50 446 CURVE",
"50 335 OFFCURVE",
"126 288 OFFCURVE",
"323 263 CURVE",
"475 244 OFFCURVE",
"554 225 OFFCURVE",
"554 161 CURVE",
"554 106 OFFCURVE",
"519 70 OFFCURVE",
"356 70 CURVE",
"105 70 OFFCURVE",
"40 147 OFFCURVE",
"40 147 CURVE",
"60 40 LINE",
"60 20 LINE",
"60 20 OFFCURVE",
"174 -10 OFFCURVE",
"374 -10 CURVE"
);
}
);
width = 706;
},
{
anchors = (
{
name = bottom;
position = "{348, 0}";
},
{
name = top;
position = "{348, 600}";
}
);
layerId = "1A280FA7-9E72-4FC3-84C1-49B7BD56B269";
paths = (
{
closed = 1;
nodes = (
"577 -10 OFFCURVE",
"666 47 OFFCURVE",
"666 171 CURVE",
"666 276 OFFCURVE",
"612 335 OFFCURVE",
"394 359 CURVE",
"252 375 OFFCURVE",
"202 389 OFFCURVE",
"202 438 CURVE",
"202 477 OFFCURVE",
"228 500 OFFCURVE",
"318 500 CURVE",
"514 500 OFFCURVE",
"633 440 OFFCURVE",
"633 440 CURVE",
"603 550 LINE",
"603 580 LINE",
"603 580 OFFCURVE",
"514 610 OFFCURVE",
"323 610 CURVE",
"124 610 OFFCURVE",
"50 539 OFFCURVE",
"50 436 CURVE",
"50 307 OFFCURVE",
"140 265 OFFCURVE",
"323 241 CURVE",
"475 221 OFFCURVE",
"514 210 OFFCURVE",
"514 162 CURVE",
"514 123 OFFCURVE",
"488 100 OFFCURVE",
"376 100 CURVE",
"125 100 OFFCURVE",
"40 177 OFFCURVE",
"40 177 CURVE",
"60 50 LINE",
"60 20 LINE",
"60 20 OFFCURVE",
"174 -10 OFFCURVE",
"374 -10 CURVE"
);
}
);
width = 706;
},
{
associatedMasterId = "083550D2-F2E8-44E3-BE3D-E8BDF41EDFC4";
layerId = "0AAF2CB4-2EBD-42C4-BAB4-4CEC92C737FB";
width = 600;
},
{
anchors = (
{
name = bottom;
position = "{328, 0}";
},
{
name = top;
position = "{328, 600}";
}
);
layerId = "CA5CD7F6-F0E6-40F5-9716-481B35A0BC32";
paths = (
{
closed = 1;
nodes = (
"574 -10 OFFCURVE",
"625 68 OFFCURVE",
"625 157 CURVE",
"625 260 OFFCURVE",
"571 304 OFFCURVE",
"353 329 CURVE",
"166 351 OFFCURVE",
"101 381 OFFCURVE",
"101 462 CURVE",
"101 525 OFFCURVE",
"157 570 OFFCURVE",
"317 570 CURVE",
"513 570 OFFCURVE",
"582 510 OFFCURVE",
"582 510 CURVE",
"572 560 LINE",
"572 570 LINE",
"572 570 OFFCURVE",
"513 610 OFFCURVE",
"322 610 CURVE",
"105 610 OFFCURVE",
"49 538 OFFCURVE",
"49 456 CURVE",
"49 370 OFFCURVE",
"107 316 OFFCURVE",
"302 292 CURVE",
"502 267 OFFCURVE",
"573 244 OFFCURVE",
"573 158 CURVE",
"573 68 OFFCURVE",
"504 30 OFFCURVE",
"325 30 CURVE",
"98 30 OFFCURVE",
"40 97 OFFCURVE",
"40 97 CURVE",
"50 40 LINE",
"50 30 LINE",
"50 30 OFFCURVE",
"128 -10 OFFCURVE",
"323 -10 CURVE"
);
}
);
width = 665;
},
{
associatedMasterId = "CA5CD7F6-F0E6-40F5-9716-481B35A0BC32";
layerId = "A72EE2E6-73F4-4993-B340-5C1A7D0E2EFE";
width = 600;
}
);
unicode = 0053;
},
{
color = 1;
glyphname = Germandbls;
layers = (
{
layerId = "083550D2-F2E8-44E3-BE3D-E8BDF41EDFC4";
paths = (
{
closed = 1;
nodes = (
"647 -10 OFFCURVE",
"687 87 OFFCURVE",
"687 154 CURVE",
"687 244 OFFCURVE",
"639 297 OFFCURVE",
"557 362 CURVE",
"499 408 OFFCURVE",
"472 434 OFFCURVE",
"472 471 CURVE",
"472 524 OFFCURVE",
"526 547 OFFCURVE",
"577 559 CURVE",
"577 631 LINE",
"577 631 OFFCURVE",
"500 671 OFFCURVE",
"365 671 CURVE",
"203 671 OFFCURVE",
"81 610 OFFCURVE",
"81 404 CURVE",
"81 60 LINE",
"81 1 OFFCURVE",
"60 0 OFFCURVE",
"60 0 CURVE",
"213 0 LINE",
"213 0 OFFCURVE",
"193 1 OFFCURVE",
"193 60 CURVE",
"193 397 LINE",
"193 552 OFFCURVE",
"246 591 OFFCURVE",
"357 591 CURVE",
"429 591 OFFCURVE",
"475 583 OFFCURVE",
"475 583 CURVE",
"475 580 LINE",
"426 563 OFFCURVE",
"374 532 OFFCURVE",
"374 466 CURVE",
"374 408 OFFCURVE",
"401 370 OFFCURVE",
"458 318 CURVE",
"502 278 OFFCURVE",
"575 237 OFFCURVE",
"575 156 CURVE",
"575 105 OFFCURVE",
"545 72 OFFCURVE",
"477 72 CURVE",
"353 72 OFFCURVE",
"287 142 OFFCURVE",
"287 142 CURVE",
"287 112 LINE",
"267 51 LINE",
"267 51 OFFCURVE",
"318 -10 OFFCURVE",
"475 -10 CURVE"
);
}
);
width = 737;
},
{
layerId = "1A280FA7-9E72-4FC3-84C1-49B7BD56B269";
paths = (
{
closed = 1;
nodes = (
"636 -10 OFFCURVE",
"687 72 OFFCURVE",
"687 164 CURVE",
"687 245 OFFCURVE",
"647 291 OFFCURVE",
"587 336 CURVE",
"530 378 OFFCURVE",
"482 417 OFFCURVE",
"482 451 CURVE",
"482 500 OFFCURVE",
"526 527 OFFCURVE",
"577 539 CURVE",
"577 631 LINE",
"577 631 OFFCURVE",
"500 671 OFFCURVE",
"365 671 CURVE",
"203 671 OFFCURVE",
"81 610 OFFCURVE",
"81 404 CURVE",
"81 60 LINE",
"81 1 OFFCURVE",
"60 0 OFFCURVE",
"60 0 CURVE",
"255 0 LINE",
"255 0 OFFCURVE",
"235 1 OFFCURVE",
"235 60 CURVE",
"235 397 LINE",
"235 532 OFFCURVE",
"274 561 OFFCURVE",
"357 561 CURVE",
"409 561 OFFCURVE",
"425 553 OFFCURVE",
"425 553 CURVE",
"425 550 LINE",
"378 522 OFFCURVE",
"354 479 OFFCURVE",
"354 426 CURVE",
"354 376 OFFCURVE",
"375 341 OFFCURVE",
"432 289 CURVE",
"476 249 OFFCURVE",
"535 208 OFFCURVE",
"535 156 CURVE",
"535 122 OFFCURVE",
"517 103 OFFCURVE",
"477 103 CURVE",
"372 103 OFFCURVE",
"309 173 OFFCURVE",
"309 173 CURVE",
"309 144 LINE",
"289 51 LINE",
"289 51 OFFCURVE",
"352 -10 OFFCURVE",
"475 -10 CURVE"
);
}
);
width = 737;
},
{
layerId = "CA5CD7F6-F0E6-40F5-9716-481B35A0BC32";
paths = (
{
closed = 1;
nodes = (
"587 -10 OFFCURVE",
"667 63 OFFCURVE",
"667 154 CURVE",
"667 242 OFFCURVE",
"609 303 OFFCURVE",
"535 358 CURVE",
"476 402 OFFCURVE",
"452 433 OFFCURVE",
"452 481 CURVE",
"452 544 OFFCURVE",
"526 577 OFFCURVE",
"577 589 CURVE",
"577 631 LINE",
"577 631 OFFCURVE",
"500 671 OFFCURVE",
"365 671 CURVE",
"203 671 OFFCURVE",
"81 610 OFFCURVE",
"81 404 CURVE",
"81 60 LINE",
"81 1 OFFCURVE",
"60 0 OFFCURVE",
"60 0 CURVE",
"153 0 LINE",
"153 0 OFFCURVE",
"133 1 OFFCURVE",
"133 60 CURVE",
"133 397 LINE",
"133 568 OFFCURVE",
"214 631 OFFCURVE",
"357 631 CURVE",
"448 631 OFFCURVE",
"513 613 OFFCURVE",
"513 613 CURVE",
"513 610 LINE",
"459 591 OFFCURVE",
"404 545 OFFCURVE",
"404 476 CURVE",
"404 415 OFFCURVE",
"433 375 OFFCURVE",
"492 326 CURVE",
"544 283 OFFCURVE",
"613 232 OFFCURVE",
"613 156 CURVE",
"613 79 OFFCURVE",
"543 31 OFFCURVE",
"457 31 CURVE",
"312 31 OFFCURVE",
"247 101 OFFCURVE",
"247 101 CURVE",
"247 71 LINE",
"237 41 LINE",
"237 41 OFFCURVE",
"295 -10 OFFCURVE",
"455 -10 CURVE"
);
}
);
width = 717;
}
);
leftMetricsKey = H;
rightMetricsKey = O;
unicode = 1E9E;
},
{
color = 1;
glyphname = Schwa;
layers = (
{
layerId = "083550D2-F2E8-44E3-BE3D-E8BDF41EDFC4";
paths = (
{
closed = 1;
nodes = (
"470 -10 OFFCURVE",
"576 98 OFFCURVE",
"576 304 CURVE",
"576 486 OFFCURVE",
"494 608 OFFCURVE",
"284 608 CURVE",
"129 608 OFFCURVE",
"70 568 OFFCURVE",
"70 568 CURVE",
"80 508 LINE",
"80 478 LINE",
"80 478 OFFCURVE",
"178 538 OFFCURVE",
"284 538 CURVE",
"421 538 OFFCURVE",
"464 445 OFFCURVE",
"464 305 CURVE",
"40 305 LINE",
"40 233 LINE",
"40 91 OFFCURVE",
"117 -10 OFFCURVE",
"304 -10 CURVE"
);
},
{
closed = 1;
nodes = (
"194 61 OFFCURVE",
"152 130 OFFCURVE",
"152 203 CURVE",
"152 235 LINE",
"464 235 LINE",
"464 131 OFFCURVE",
"418 61 OFFCURVE",
"304 61 CURVE"
);
}
);
width = 616;
},
{
layerId = "1A280FA7-9E72-4FC3-84C1-49B7BD56B269";
paths = (
{
closed = 1;
nodes = (
"470 -10 OFFCURVE",
"576 98 OFFCURVE",
"576 304 CURVE",
"576 486 OFFCURVE",
"494 608 OFFCURVE",
"284 608 CURVE",
"129 608 OFFCURVE",
"70 568 OFFCURVE",
"70 568 CURVE",
"80 468 LINE",
"80 438 LINE",
"80 438 OFFCURVE",
"178 508 OFFCURVE",
"284 508 CURVE",
"419 508 OFFCURVE",
"424 392 OFFCURVE",
"424 305 CURVE",
"40 305 LINE",
"40 233 LINE",
"40 91 OFFCURVE",
"117 -10 OFFCURVE",
"304 -10 CURVE"
);
},
{
closed = 1;
nodes = (
"218 91 OFFCURVE",
"192 129 OFFCURVE",
"192 193 CURVE",
"192 205 LINE",
"424 205 LINE",
"424 125 OFFCURVE",
"388 91 OFFCURVE",
"304 91 CURVE"
);
}
);
width = 616;
},
{
layerId = "CA5CD7F6-F0E6-40F5-9716-481B35A0BC32";
paths = (
{
closed = 1;
nodes = (
"470 -10 OFFCURVE",
"576 98 OFFCURVE",
"576 304 CURVE",
"576 486 OFFCURVE",
"494 608 OFFCURVE",
"284 608 CURVE",
"129 608 OFFCURVE",
"70 568 OFFCURVE",
"70 568 CURVE",
"80 538 LINE",
"80 508 LINE",
"80 508 OFFCURVE",
"172 568 OFFCURVE",
"284 568 CURVE",
"456 568 OFFCURVE",
"522 451 OFFCURVE",
"522 305 CURVE",
"40 305 LINE",
"40 233 LINE",
"40 91 OFFCURVE",
"117 -10 OFFCURVE",
"304 -10 CURVE"
);
},
{
closed = 1;
nodes = (
"184 30 OFFCURVE",
"94 94 OFFCURVE",
"94 223 CURVE",
"94 265 LINE",
"522 265 LINE",
"522 108 OFFCURVE",
"431 30 OFFCURVE",
"304 30 CURVE"
);
}
);
width = 616;
}
);
leftMetricsKey = a;
rightMetricsKey = a;
unicode = 018F;
},
{
color = 1;
glyphname = T;
layers = (
{
anchors = (
{
name = bottom;
position = "{319, 0}";
},
{
name = center;
position = "{319, 300}";
},
{
name = top;
position = "{319, 600}";
}
);
layerId = "083550D2-F2E8-44E3-BE3D-E8BDF41EDFC4";
paths = (
{
closed = 1;
nodes = (
"396 0 LINE",
"396 0 OFFCURVE",
"375 1 OFFCURVE",
"375 60 CURVE",
"375 490 LINE",
"375 519 OFFCURVE",
"375 520 OFFCURVE",
"416 520 CURVE",
"488 520 LINE",
"594 520 OFFCURVE",
"628 484 OFFCURVE",
"628 484 CURVE",
"608 580 LINE",
"608 600 LINE",
"30 600 LINE",
"30 580 LINE",
"10 484 LINE",
"10 484 OFFCURVE",
"44 520 OFFCURVE",
"150 520 CURVE",
"223 520 LINE",
"263 520 OFFCURVE",
"263 519 OFFCURVE",
"263 490 CURVE",
"263 60 LINE",
"263 1 OFFCURVE",
"242 0 OFFCURVE",
"242 0 CURVE"
);
}
);
width = 638;
},
{
anchors = (
{
name = bottom;
position = "{339, 0}";
},
{
name = center;
position = "{339, 300}";
},
{
name = top;
position = "{339, 600}";
}
);
layerId = "1A280FA7-9E72-4FC3-84C1-49B7BD56B269";
paths = (
{
closed = 1;
nodes = (
"438 0 LINE",
"438 0 OFFCURVE",
"417 1 OFFCURVE",
"417 60 CURVE",
"417 460 LINE",
"417 489 OFFCURVE",
"417 490 OFFCURVE",
"458 490 CURVE",
"530 490 LINE",
"636 490 OFFCURVE",
"670 454 OFFCURVE",
"670 454 CURVE",
"650 570 LINE",
"650 600 LINE",
"30 600 LINE",
"30 570 LINE",
"10 454 LINE",
"10 454 OFFCURVE",
"44 490 OFFCURVE",
"150 490 CURVE",
"223 490 LINE",
"263 490 OFFCURVE",
"263 489 OFFCURVE",
"263 460 CURVE",
"263 60 LINE",
"263 1 OFFCURVE",
"242 0 OFFCURVE",
"242 0 CURVE"
);
}
);
width = 680;
},
{
associatedMasterId = "083550D2-F2E8-44E3-BE3D-E8BDF41EDFC4";
layerId = "0AAF2CB4-2EBD-42C4-BAB4-4CEC92C737FB";
width = 600;
},
{
anchors = (
{
name = bottom;
position = "{299, 0}";
},
{
name = center;
position = "{299, 300}";
},
{
name = top;
position = "{299, 600}";
}
);
layerId = "CA5CD7F6-F0E6-40F5-9716-481B35A0BC32";
paths = (
{
closed = 1;
nodes = (
"346 0 LINE",
"346 0 OFFCURVE",
"325 1 OFFCURVE",
"325 60 CURVE",
"325 530 LINE",
"325 559 OFFCURVE",
"325 560 OFFCURVE",
"366 560 CURVE",
"446 560 LINE",
"552 560 OFFCURVE",
"586 544 OFFCURVE",
"586 544 CURVE",
"566 590 LINE",
"566 600 LINE",
"30 600 LINE",
"30 590 LINE",
"10 544 LINE",
"10 544 OFFCURVE",
"44 560 OFFCURVE",
"150 560 CURVE",
"232 560 LINE",
"272 560 OFFCURVE",
"272 559 OFFCURVE",
"272 530 CURVE",
"272 60 LINE",
"272 1 OFFCURVE",
"251 0 OFFCURVE",
"251 0 CURVE"
);
}
);
width = 596;
},
{
associatedMasterId = "CA5CD7F6-F0E6-40F5-9716-481B35A0BC32";
layerId = "9B8BD212-B9C5-4D01-9579-805C80756A03";
width = 600;
}
);
unicode = 0054;
},
{
color = 1;
glyphname = U;
layers = (
{
anchors = (
{
name = bottom;
position = "{368, 0}";
},
{
name = ogonek;
position = "{451, 10}";
},
{
name = top;
position = "{368, 600}";
},
{
name = topright;
position = "{715, 600}";
}
);
layerId = "083550D2-F2E8-44E3-BE3D-E8BDF41EDFC4";
paths = (
{
closed = 1;
nodes = (
"373 -10 LINE",
"572 -10 OFFCURVE",
"665 91 OFFCURVE",
"665 259 CURVE",
"665 259 OFFCURVE",
"665 482 OFFCURVE",
"665 540 CURVE",
"665 598 OFFCURVE",
"685 600 OFFCURVE",
"685 600 CURVE",
"533 600 LINE",
"533 600 OFFCURVE",
"553 599 OFFCURVE",
"553 541 CURVE",
"553 261 LINE",
"553 119 OFFCURVE",
"489 71 OFFCURVE",
"375 71 CURVE",
"364 71 LINE",
"251 71 OFFCURVE",
"182 121 OFFCURVE",
"182 261 CURVE",
"182 541 LINE",
"182 598 OFFCURVE",
"202 600 OFFCURVE",
"202 600 CURVE",
"50 600 LINE",
"50 600 OFFCURVE",
"70 600 OFFCURVE",
"70 541 CURVE",
"70 482 OFFCURVE",
"70 259 OFFCURVE",
"70 259 CURVE",
"70 91 OFFCURVE",
"160 -10 OFFCURVE",
"363 -10 CURVE"
);
}
);
width = 735;
},
{
anchors = (
{
name = bottom;
position = "{368, 0}";
},
{
name = ogonek;
position = "{451, 10}";
},
{
name = top;
position = "{368, 600}";
},
{
name = topright;
position = "{715, 600}";
}
);
layerId = "1A280FA7-9E72-4FC3-84C1-49B7BD56B269";
paths = (
{
closed = 1;
nodes = (
"373 -10 LINE",
"572 -10 OFFCURVE",
"665 91 OFFCURVE",
"665 259 CURVE",
"665 540 LINE",
"665 598 OFFCURVE",
"685 600 OFFCURVE",
"685 600 CURVE",
"493 600 LINE",
"493 600 OFFCURVE",
"513 599 OFFCURVE",
"513 541 CURVE",
"513 261 LINE",
"513 130 OFFCURVE",
"462 101 OFFCURVE",
"375 101 CURVE",
"364 101 LINE",
"279 101 OFFCURVE",
"222 132 OFFCURVE",
"222 261 CURVE",
"222 541 LINE",
"222 598 OFFCURVE",
"242 600 OFFCURVE",
"242 600 CURVE",
"50 600 LINE",
"50 600 OFFCURVE",
"70 600 OFFCURVE",
"70 541 CURVE",
"70 259 LINE",
"70 91 OFFCURVE",
"160 -10 OFFCURVE",
"363 -10 CURVE"
);
}
);
width = 735;
},
{
associatedMasterId = "083550D2-F2E8-44E3-BE3D-E8BDF41EDFC4";
layerId = "0AAF2CB4-2EBD-42C4-BAB4-4CEC92C737FB";
width = 600;
},
{
anchors = (
{
name = bottom;
position = "{348, 0}";
},
{
name = ogonek;
position = "{451, 10}";
},
{
name = top;
position = "{348, 600}";
},
{
name = topright;
position = "{715, 600}";
}
);
layerId = "CA5CD7F6-F0E6-40F5-9716-481B35A0BC32";
paths = (
{
closed = 1;
nodes = (
"353 -10 LINE",
"552 -10 OFFCURVE",
"625 75 OFFCURVE",
"625 259 CURVE",
"625 540 LINE",
"625 598 OFFCURVE",
"645 600 OFFCURVE",
"645 600 CURVE",
"551 600 LINE",
"551 600 OFFCURVE",
"571 599 OFFCURVE",
"571 541 CURVE",
"571 261 LINE",
"571 66 OFFCURVE",
"482 31 OFFCURVE",
"355 31 CURVE",
"344 31 LINE",
"209 31 OFFCURVE",
"124 68 OFFCURVE",
"124 261 CURVE",
"124 541 LINE",
"124 598 OFFCURVE",
"144 600 OFFCURVE",
"144 600 CURVE",
"50 600 LINE",
"50 600 OFFCURVE",
"70 600 OFFCURVE",
"70 541 CURVE",
"70 259 LINE",
"70 75 OFFCURVE",
"140 -10 OFFCURVE",
"343 -10 CURVE"
);
}
);
width = 695;
},
{
associatedMasterId = "CA5CD7F6-F0E6-40F5-9716-481B35A0BC32";
layerId = "FBEDC220-7916-40C5-BAC7-0AA4FF19FA6C";
width = 600;
}
);
unicode = 0055;
},
{
color = 1;
glyphname = V;
layers = (
{
layerId = "083550D2-F2E8-44E3-BE3D-E8BDF41EDFC4";
paths = (
{
closed = 1;
nodes = (
"450 0 LINE",
"450 0 OFFCURVE",
"434 1 OFFCURVE",
"450 61 CURVE",
"466 121 OFFCURVE",
"651 483 OFFCURVE",
"680 541 CURVE",
"709 599 OFFCURVE",
"727 600 OFFCURVE",
"727 600 CURVE",
"548 600 LINE",
"548 600 OFFCURVE",
"574 599 OFFCURVE",
"548 540 CURVE",
"523 481 OFFCURVE",
"371 110 OFFCURVE",
"371 110 CURVE",
"370 110 LINE",
"370 110 OFFCURVE",
"222 477 OFFCURVE",
"195 538 CURVE",
"168 599 OFFCURVE",
"195 600 OFFCURVE",
"195 600 CURVE",
"10 600 LINE",
"10 600 OFFCURVE",
"30 597 OFFCURVE",
"61 538 CURVE",
"94 477 OFFCURVE",
"274 104 OFFCURVE",
"290 61 CURVE",
"312 1 OFFCURVE",
"290 0 OFFCURVE",
"290 0 CURVE"
);
}
);
width = 737;
},
{
layerId = "1A280FA7-9E72-4FC3-84C1-49B7BD56B269";
paths = (
{
closed = 1;
nodes = (
"503 0 LINE",
"503 0 OFFCURVE",
"478 2 OFFCURVE",
"503 61 CURVE",
"527 118 OFFCURVE",
"693 483 OFFCURVE",
"722 541 CURVE",
"751 599 OFFCURVE",
"769 600 OFFCURVE",
"769 600 CURVE",
"549 600 LINE",
"549 600 OFFCURVE",
"570 600 OFFCURVE",
"549 540 CURVE",
"528 479 OFFCURVE",
"392 130 OFFCURVE",
"392 130 CURVE",
"391 130 LINE",
"391 130 OFFCURVE",
"257 474 OFFCURVE",
"237 538 CURVE",
"218 599 OFFCURVE",
"237 600 OFFCURVE",
"237 600 CURVE",
"10 600 LINE",
"10 600 OFFCURVE",
"30 597 OFFCURVE",
"61 538 CURVE",
"94 477 OFFCURVE",
"258 111 OFFCURVE",
"279 61 CURVE",
"304 2 OFFCURVE",
"279 0 OFFCURVE",
"279 0 CURVE"
);
}
);
width = 779;
},
{
associatedMasterId = "083550D2-F2E8-44E3-BE3D-E8BDF41EDFC4";
layerId = "0AAF2CB4-2EBD-42C4-BAB4-4CEC92C737FB";
width = 600;
},
{
layerId = "CA5CD7F6-F0E6-40F5-9716-481B35A0BC32";
paths = (
{
closed = 1;
nodes = (
"398 0 LINE",
"398 0 OFFCURVE",
"382 1 OFFCURVE",
"398 61 CURVE",
"414 121 OFFCURVE",
"609 483 OFFCURVE",
"638 541 CURVE",
"667 599 OFFCURVE",
"685 600 OFFCURVE",
"685 600 CURVE",
"579 600 LINE",
"579 600 OFFCURVE",
"604 596 OFFCURVE",
"579 540 CURVE",
"553 481 OFFCURVE",
"350 70 OFFCURVE",
"350 70 CURVE",
"349 70 LINE",
"349 70 OFFCURVE",
"150 478 OFFCURVE",
"121 538 CURVE",
"94 595 OFFCURVE",
"121 600 OFFCURVE",
"121 600 CURVE",
"10 600 LINE",
"10 600 OFFCURVE",
"29 597 OFFCURVE",
"61 538 CURVE",
"94 477 OFFCURVE",
"284 104 OFFCURVE",
"299 61 CURVE",
"321 1 OFFCURVE",
"299 0 OFFCURVE",
"299 0 CURVE"
);
}
);
width = 695;
},
{
associatedMasterId = "CA5CD7F6-F0E6-40F5-9716-481B35A0BC32";
layerId = "28E31C3A-9171-4CFB-93E0-C674C1A6D786";
width = 600;
}
);
unicode = 0056;
},
{
color = 1;
glyphname = W;
layers = (
{
anchors = (
{
name = bottom;
position = "{588, 0}";
},
{
name = top;
position = "{588, 600}";
}
);
layerId = "083550D2-F2E8-44E3-BE3D-E8BDF41EDFC4";
paths = (
{
closed = 1;
nodes = (
"436 0 LINE",
"436 0 OFFCURVE",
"420 3 OFFCURVE",
"436 62 CURVE",
"452 121 OFFCURVE",
"585 500 OFFCURVE",
"585 500 CURVE",
"587 500 LINE",
"587 500 OFFCURVE",
"720 122 OFFCURVE",
"738 62 CURVE",
"756 2 OFFCURVE",
"738 0 OFFCURVE",
"738 0 CURVE",
"908 0 LINE",
"908 0 OFFCURVE",
"889 2 OFFCURVE",
"908 62 CURVE",
"927 122 OFFCURVE",
"1084 477 OFFCURVE",
"1116 538 CURVE",
"1146 596 OFFCURVE",
"1166 600 OFFCURVE",
"1166 600 CURVE",
"985 600 LINE",
"985 600 OFFCURVE",
"1004 599 OFFCURVE",
"985 538 CURVE",
"966 477 OFFCURVE",
"826 108 OFFCURVE",
"826 108 CURVE",
"824 108 LINE",
"824 108 OFFCURVE",
"701 476 OFFCURVE",
"683 537 CURVE",
"664 600 OFFCURVE",
"683 600 OFFCURVE",
"683 600 CURVE",
"492 600 LINE",
"492 600 OFFCURVE",
"508 598 OFFCURVE",
"492 538 CURVE",
"473 468 OFFCURVE",
"351 108 OFFCURVE",
"351 108 CURVE",
"349 108 LINE",
"349 108 OFFCURVE",
"213 478 OFFCURVE",
"192 538 CURVE",
"171 598 OFFCURVE",
"191 600 OFFCURVE",
"191 600 CURVE",
"10 600 LINE",
"10 600 OFFCURVE",
"36 597 OFFCURVE",
"61 540 CURVE",
"92 470 OFFCURVE",
"250 102 OFFCURVE",
"266 59 CURVE",
"286 4 OFFCURVE",
"266 0 OFFCURVE",
"266 0 CURVE"
);
}
);
width = 1176;
},
{
anchors = (
{
name = bottom;
position = "{608, 0}";
},
{
name = top;
position = "{608, 600}";
}
);
layerId = "1A280FA7-9E72-4FC3-84C1-49B7BD56B269";
paths = (
{
closed = 1;
nodes = (
"488 0 LINE",
"488 0 OFFCURVE",
"472 3 OFFCURVE",
"488 62 CURVE",
"504 121 OFFCURVE",
"606 500 OFFCURVE",
"606 500 CURVE",
"608 500 LINE",
"608 500 OFFCURVE",
"711 122 OFFCURVE",
"729 62 CURVE",
"747 2 OFFCURVE",
"729 0 OFFCURVE",
"729 0 CURVE",
"960 0 LINE",
"960 0 OFFCURVE",
"941 2 OFFCURVE",
"960 62 CURVE",
"979 122 OFFCURVE",
"1126 477 OFFCURVE",
"1158 538 CURVE",
"1188 596 OFFCURVE",
"1208 600 OFFCURVE",
"1208 600 CURVE",
"986 600 LINE",
"986 600 OFFCURVE",
"1005 599 OFFCURVE",
"986 538 CURVE",
"967 477 OFFCURVE",
"847 128 OFFCURVE",
"847 128 CURVE",
"845 128 LINE",
"845 128 OFFCURVE",
"753 476 OFFCURVE",
"734 537 CURVE",
"716 600 OFFCURVE",
"734 600 OFFCURVE",
"734 600 CURVE",
"482 600 LINE",
"482 600 OFFCURVE",
"498 598 OFFCURVE",
"482 538 CURVE",
"463 468 OFFCURVE",
"372 128 OFFCURVE",
"372 128 CURVE",
"370 128 LINE",
"370 128 OFFCURVE",
"255 478 OFFCURVE",
"234 538 CURVE",
"213 598 OFFCURVE",
"233 600 OFFCURVE",
"233 600 CURVE",
"10 600 LINE",
"10 600 OFFCURVE",
"36 597 OFFCURVE",
"61 540 CURVE",
"92 470 OFFCURVE",
"240 102 OFFCURVE",
"256 59 CURVE",
"276 4 OFFCURVE",
"256 0 OFFCURVE",
"256 0 CURVE"
);
}
);
width = 1218;
},
{
associatedMasterId = "083550D2-F2E8-44E3-BE3D-E8BDF41EDFC4";
layerId = "0AAF2CB4-2EBD-42C4-BAB4-4CEC92C737FB";
width = 600;
},
{
anchors = (
{
name = bottom;
position = "{568, 0}";
},
{
name = top;
position = "{568, 600}";
}
);
layerId = "CA5CD7F6-F0E6-40F5-9716-481B35A0BC32";
paths = (
{
closed = 1;
nodes = (
"381 0 LINE",
"381 0 OFFCURVE",
"365 3 OFFCURVE",
"381 62 CURVE",
"397 121 OFFCURVE",
"562 520 OFFCURVE",
"562 520 CURVE",
"564 520 LINE",
"564 520 OFFCURVE",
"731 122 OFFCURVE",
"749 62 CURVE",
"767 2 OFFCURVE",
"749 0 OFFCURVE",
"749 0 CURVE",
"853 0 LINE",
"853 0 OFFCURVE",
"834 2 OFFCURVE",
"853 62 CURVE",
"872 122 OFFCURVE",
"1040 477 OFFCURVE",
"1072 538 CURVE",
"1102 596 OFFCURVE",
"1122 600 OFFCURVE",
"1122 600 CURVE",
"1006 600 LINE",
"1006 600 OFFCURVE",
"1025 599 OFFCURVE",
"1006 538 CURVE",
"987 477 OFFCURVE",
"803 68 OFFCURVE",
"803 68 CURVE",
"801 68 LINE",
"801 68 OFFCURVE",
"637 476 OFFCURVE",
"618 537 CURVE",
"600 600 OFFCURVE",
"618 600 OFFCURVE",
"618 600 CURVE",
"513 600 LINE",
"513 600 OFFCURVE",
"529 598 OFFCURVE",
"513 538 CURVE",
"494 468 OFFCURVE",
"328 68 OFFCURVE",
"328 68 CURVE",
"326 68 LINE",
"326 68 OFFCURVE",
"148 478 OFFCURVE",
"127 538 CURVE",
"106 598 OFFCURVE",
"126 600 OFFCURVE",
"126 600 CURVE",
"10 600 LINE",
"10 600 OFFCURVE",
"36 597 OFFCURVE",
"61 540 CURVE",
"92 470 OFFCURVE",
"261 102 OFFCURVE",
"277 59 CURVE",
"297 4 OFFCURVE",
"277 0 OFFCURVE",
"277 0 CURVE"
);
}
);
width = 1132;
},
{
associatedMasterId = "CA5CD7F6-F0E6-40F5-9716-481B35A0BC32";
layerId = "6E521F11-4495-4D41-9F10-88C9E35EE6F2";
width = 600;
}
);
unicode = 0057;
},
{
color = 1;
glyphname = X;
layers = (
{
layerId = "083550D2-F2E8-44E3-BE3D-E8BDF41EDFC4";
paths = (
{
closed = 1;
nodes = (
"198 0 LINE",
"198 0 OFFCURVE",
"175 3 OFFCURVE",
"219 60 CURVE",
"261 115 OFFCURVE",
"350 228 OFFCURVE",
"361 243 CURVE",
"363 243 LINE",
"375 227 OFFCURVE",
"472 109 OFFCURVE",
"507 62 CURVE",
"551 2 OFFCURVE",
"528 0 OFFCURVE",
"528 0 CURVE",
"712 0 LINE",
"712 0 OFFCURVE",
"694 4 OFFCURVE",
"640 62 CURVE",
"588 118 OFFCURVE",
"432 301 OFFCURVE",
"432 301 CURVE",
"432 301 OFFCURVE",
"591 481 OFFCURVE",
"644 541 CURVE",
"696 599 OFFCURVE",
"711 600 OFFCURVE",
"711 600 CURVE",
"524 600 LINE",
"524 600 OFFCURVE",
"545 600 OFFCURVE",
"503 540 CURVE",
"464 484 OFFCURVE",
"375 368 OFFCURVE",
"364 353 CURVE",
"362 353 LINE",
"350 369 OFFCURVE",
"262 490 OFFCURVE",
"226 538 CURVE",
"177 602 OFFCURVE",
"205 600 OFFCURVE",
"205 600 CURVE",
"10 600 LINE",
"10 600 OFFCURVE",
"28 598 OFFCURVE",
"82 538 CURVE",
"133 481 OFFCURVE",
"292 301 OFFCURVE",
"292 301 CURVE",
"292 301 OFFCURVE",
"131 119 OFFCURVE",
"77 59 CURVE",
"26 3 OFFCURVE",
"10 0 OFFCURVE",
"10 0 CURVE"
);
}
);
width = 722;
},
{
layerId = "1A280FA7-9E72-4FC3-84C1-49B7BD56B269";
paths = (
{
closed = 1;
nodes = (
"249 0 LINE",
"249 0 OFFCURVE",
"224 0 OFFCURVE",
"270 60 CURVE",
"312 115 OFFCURVE",
"370 188 OFFCURVE",
"381 203 CURVE",
"383 203 LINE",
"395 187 OFFCURVE",
"461 109 OFFCURVE",
"496 62 CURVE",
"541 0 OFFCURVE",
"516 0 OFFCURVE",
"516 0 CURVE",
"753 0 LINE",
"753 0 OFFCURVE",
"737 1 OFFCURVE",
"681 62 CURVE",
"629 118 OFFCURVE",
"472 301 OFFCURVE",
"472 301 CURVE",
"472 301 OFFCURVE",
"632 480 OFFCURVE",
"685 541 CURVE",
"737 600 OFFCURVE",
"752 600 OFFCURVE",
"752 600 CURVE",
"512 600 LINE",
"512 600 OFFCURVE",
"529 600 OFFCURVE",
"492 540 CURVE",
"455 482 OFFCURVE",
"395 408 OFFCURVE",
"384 393 CURVE",
"382 393 LINE",
"370 409 OFFCURVE",
"308 486 OFFCURVE",
"277 538 CURVE",
"241 599 OFFCURVE",
"256 600 OFFCURVE",
"256 600 CURVE",
"10 600 LINE",
"10 600 OFFCURVE",
"28 599 OFFCURVE",
"82 538 CURVE",
"132 481 OFFCURVE",
"292 301 OFFCURVE",
"292 301 CURVE",
"292 301 OFFCURVE",
"132 118 OFFCURVE",
"77 59 CURVE",
"22 1 OFFCURVE",
"10 0 OFFCURVE",
"10 0 CURVE"
);
}
);
width = 763;
},
{
associatedMasterId = "083550D2-F2E8-44E3-BE3D-E8BDF41EDFC4";
layerId = "0AAF2CB4-2EBD-42C4-BAB4-4CEC92C737FB";
width = 600;
},
{
layerId = "CA5CD7F6-F0E6-40F5-9716-481B35A0BC32";
paths = (
{
closed = 1;
nodes = (
"128 0 LINE",
"128 0 OFFCURVE",
"96 0 OFFCURVE",
"149 60 CURVE",
"195 112 OFFCURVE",
"329 258 OFFCURVE",
"340 273 CURVE",
"342 273 LINE",
"354 257 OFFCURVE",
"497 106 OFFCURVE",
"535 62 CURVE",
"587 2 OFFCURVE",
"556 0 OFFCURVE",
"556 0 CURVE",
"670 0 LINE",
"670 0 OFFCURVE",
"648 4 OFFCURVE",
"598 62 CURVE",
"548 120 OFFCURVE",
"381 301 OFFCURVE",
"381 301 CURVE",
"381 301 OFFCURVE",
"551 479 OFFCURVE",
"603 541 CURVE",
"652 599 OFFCURVE",
"670 600 OFFCURVE",
"670 600 CURVE",
"552 600 LINE",
"552 600 OFFCURVE",
"579 597 OFFCURVE",
"531 540 CURVE",
"487 488 OFFCURVE",
"354 338 OFFCURVE",
"343 323 CURVE",
"341 323 LINE",
"329 339 OFFCURVE",
"195 493 OFFCURVE",
"156 538 CURVE",
"104 598 OFFCURVE",
"135 600 OFFCURVE",
"135 600 CURVE",
"10 600 LINE",
"10 600 OFFCURVE",
"27 598 OFFCURVE",
"82 538 CURVE",
"134 482 OFFCURVE",
"301 301 OFFCURVE",
"301 301 CURVE",
"301 301 OFFCURVE",
"131 119 OFFCURVE",
"77 59 CURVE",
"25 2 OFFCURVE",
"10 0 OFFCURVE",
"10 0 CURVE"
);
}
);
width = 680;
},
{
associatedMasterId = "CA5CD7F6-F0E6-40F5-9716-481B35A0BC32";
layerId = "C22D7463-A6D5-4982-BCB1-467ED8BE9AE5";
width = 600;
}
);
unicode = 0058;
},
{
color = 1;
glyphname = Y;
layers = (
{
anchors = (
{
name = bottom;
position = "{361, 0}";
},
{
name = top;
position = "{361, 600}";
},
{
name = topleft;
position = "{20, 600}";
}
);
layerId = "083550D2-F2E8-44E3-BE3D-E8BDF41EDFC4";
paths = (
{
closed = 1;
nodes = (
"438 0 LINE",
"438 0 OFFCURVE",
"418 0 OFFCURVE",
"418 60 CURVE",
"418 277 LINE",
"418 277 OFFCURVE",
"592 480 OFFCURVE",
"645 541 CURVE",
"696 599 OFFCURVE",
"712 600 OFFCURVE",
"712 600 CURVE",
"524 600 LINE",
"524 600 OFFCURVE",
"545 601 OFFCURVE",
"504 540 CURVE",
"459 473 OFFCURVE",
"363 352 OFFCURVE",
"363 352 CURVE",
"362 352 LINE",
"362 352 OFFCURVE",
"263 484 OFFCURVE",
"225 538 CURVE",
"183 598 OFFCURVE",
"205 600 OFFCURVE",
"205 600 CURVE",
"10 600 LINE",
"10 600 OFFCURVE",
"29 597 OFFCURVE",
"82 538 CURVE",
"133 481 OFFCURVE",
"306 277 OFFCURVE",
"306 277 CURVE",
"306 60 LINE",
"306 0 OFFCURVE",
"281 0 OFFCURVE",
"281 0 CURVE"
);
}
);
width = 722;
},
{
anchors = (
{
name = bottom;
position = "{381, 0}";
},
{
name = top;
position = "{381, 600}";
},
{
name = topleft;
position = "{20, 600}";
}
);
layerId = "1A280FA7-9E72-4FC3-84C1-49B7BD56B269";
paths = (
{
closed = 1;
nodes = (
"479 0 LINE",
"479 0 OFFCURVE",
"459 0 OFFCURVE",
"459 60 CURVE",
"459 266 LINE",
"459 266 OFFCURVE",
"633 480 OFFCURVE",
"686 541 CURVE",
"735 598 OFFCURVE",
"753 600 OFFCURVE",
"753 600 CURVE",
"523 600 LINE",
"523 600 OFFCURVE",
"544 601 OFFCURVE",
"503 540 CURVE",
"458 473 OFFCURVE",
"383 362 OFFCURVE",
"383 362 CURVE",
"382 362 LINE",
"382 362 OFFCURVE",
"304 484 OFFCURVE",
"266 538 CURVE",
"224 598 OFFCURVE",
"246 600 OFFCURVE",
"246 600 CURVE",
"10 600 LINE",
"10 600 OFFCURVE",
"30 600 OFFCURVE",
"82 538 CURVE",
"131 479 OFFCURVE",
"305 266 OFFCURVE",
"305 266 CURVE",
"306 60 LINE",
"306 0 OFFCURVE",
"280 0 OFFCURVE",
"280 0 CURVE"
);
}
);
width = 763;
},
{
associatedMasterId = "083550D2-F2E8-44E3-BE3D-E8BDF41EDFC4";
layerId = "0AAF2CB4-2EBD-42C4-BAB4-4CEC92C737FB";
width = 600;
},
{
anchors = (
{
name = bottom;
position = "{341, 0}";
},
{
name = top;
position = "{341, 600}";
},
{
name = topleft;
position = "{20, 600}";
}
);
layerId = "CA5CD7F6-F0E6-40F5-9716-481B35A0BC32";
paths = (
{
closed = 1;
nodes = (
"389 0 LINE",
"389 0 OFFCURVE",
"369 0 OFFCURVE",
"369 60 CURVE",
"369 287 LINE",
"369 287 OFFCURVE",
"551 480 OFFCURVE",
"603 541 CURVE",
"651 597 OFFCURVE",
"670 600 OFFCURVE",
"670 600 CURVE",
"552 600 LINE",
"552 600 OFFCURVE",
"580 599 OFFCURVE",
"532 540 CURVE",
"481 477 OFFCURVE",
"342 322 OFFCURVE",
"342 322 CURVE",
"341 322 LINE",
"341 322 OFFCURVE",
"200 490 OFFCURVE",
"155 538 CURVE",
"101 596 OFFCURVE",
"135 600 OFFCURVE",
"135 600 CURVE",
"10 600 LINE",
"10 600 OFFCURVE",
"27 599 OFFCURVE",
"82 538 CURVE",
"133 481 OFFCURVE",
"314 287 OFFCURVE",
"314 287 CURVE",
"314 60 LINE",
"314 0 OFFCURVE",
"289 0 OFFCURVE",
"289 0 CURVE"
);
}
);
width = 680;
},
{
associatedMasterId = "CA5CD7F6-F0E6-40F5-9716-481B35A0BC32";
layerId = "A6B36F3E-39F7-4EFC-BCB9-28E8A14FA912";
width = 600;
}
);
unicode = 0059;
},
{
color = 1;
glyphname = Z;
layers = (
{
anchors = (
{
name = bottom;
position = "{343, 0}";
},
{
name = top;
position = "{343, 600}";
}
);
layerId = "083550D2-F2E8-44E3-BE3D-E8BDF41EDFC4";
paths = (
{
closed = 1;
nodes = (
"646 0 LINE",
"646 31 LINE",
"666 121 LINE",
"666 121 OFFCURVE",
"639 81 OFFCURVE",
"536 81 CURVE",
"198 81 LINE",
"198 84 LINE",
"198 84 OFFCURVE",
"452 380 OFFCURVE",
"592 544 CURVE",
"624 581 OFFCURVE",
"636 600 OFFCURVE",
"636 600 CURVE",
"40 600 LINE",
"40 480 LINE",
"40 480 OFFCURVE",
"51 520 OFFCURVE",
"170 520 CURVE",
"439 520 LINE",
"439 518 LINE",
"439 518 OFFCURVE",
"149 180 OFFCURVE",
"50 58 CURVE",
"15 15 OFFCURVE",
"10 0 OFFCURVE",
"10 0 CURVE"
);
}
);
width = 676;
},
{
anchors = (
{
name = bottom;
position = "{333, 0}";
},
{
name = top;
position = "{333, 600}";
}
);
layerId = "1A280FA7-9E72-4FC3-84C1-49B7BD56B269";
paths = (
{
closed = 1;
nodes = (
"646 0 LINE",
"646 31 LINE",
"666 153 LINE",
"666 153 OFFCURVE",
"640 112 OFFCURVE",
"536 112 CURVE",
"268 112 LINE",
"268 115 LINE",
"268 115 OFFCURVE",
"475 384 OFFCURVE",
"598 544 CURVE",
"628 583 OFFCURVE",
"636 600 OFFCURVE",
"636 600 CURVE",
"40 600 LINE",
"40 448 LINE",
"40 448 OFFCURVE",
"51 488 OFFCURVE",
"170 488 CURVE",
"369 488 LINE",
"369 486 LINE",
"369 486 OFFCURVE",
"136 178 OFFCURVE",
"45 58 CURVE",
"12 14 OFFCURVE",
"10 0 OFFCURVE",
"10 0 CURVE"
);
}
);
width = 676;
},
{
associatedMasterId = "083550D2-F2E8-44E3-BE3D-E8BDF41EDFC4";
layerId = "0AAF2CB4-2EBD-42C4-BAB4-4CEC92C737FB";
width = 600;
},
{
anchors = (
{
name = bottom;
position = "{343, 0}";
},
{
name = top;
position = "{343, 600}";
}
);
layerId = "CA5CD7F6-F0E6-40F5-9716-481B35A0BC32";
paths = (
{
closed = 1;
nodes = (
"646 0 LINE",
"646 11 LINE",
"666 72 LINE",
"666 72 OFFCURVE",
"636 41 OFFCURVE",
"536 41 CURVE",
"110 41 LINE",
"110 44 LINE",
"110 44 OFFCURVE",
"450 395 OFFCURVE",
"592 544 CURVE",
"626 579 OFFCURVE",
"636 600 OFFCURVE",
"636 600 CURVE",
"40 600 LINE",
"40 518 LINE",
"40 518 OFFCURVE",
"51 558 OFFCURVE",
"170 558 CURVE",
"527 558 LINE",
"527 556 LINE",
"527 556 OFFCURVE",
"167 176 OFFCURVE",
"50 58 CURVE",
"11 19 OFFCURVE",
"10 0 OFFCURVE",
"10 0 CURVE"
);
}
);
width = 676;
},
{
associatedMasterId = "CA5CD7F6-F0E6-40F5-9716-481B35A0BC32";
layerId = "77DE080D-4F13-4B9D-ACE1-2D8FECF180E0";
width = 600;
}
);
unicode = 005A;
},
{
color = 1;
glyphname = a;
layers = (
{
anchors = (
{
name = bottom;
position = "{308, 0}";
},
{
name = ogonek;
position = "{545, 10}";
},
{
name = top;
position = "{298, 468}";
}
);
layerId = "083550D2-F2E8-44E3-BE3D-E8BDF41EDFC4";
paths = (
{
closed = 1;
nodes = (
"326 -10 OFFCURVE",
"399 10 OFFCURVE",
"443 50 CURVE",
"445 49 LINE",
"443 30 LINE",
"443 0 LINE",
"565 0 LINE",
"556 9 OFFCURVE",
"545 22 OFFCURVE",
"545 60 CURVE",
"545 260 LINE",
"545 408 OFFCURVE",
"471 478 OFFCURVE",
"303 478 CURVE",
"170 478 OFFCURVE",
"88 446 OFFCURVE",
"70 438 CURVE",
"80 363 LINE",
"80 343 LINE",
"93 356 OFFCURVE",
"176 408 OFFCURVE",
"295 408 CURVE",
"404 408 OFFCURVE",
"442 362 OFFCURVE",
"443 244 CURVE",
"422 258 OFFCURVE",
"359 286 OFFCURVE",
"255 286 CURVE",
"109 286 OFFCURVE",
"40 229 OFFCURVE",
"40 136 CURVE",
"40 46 OFFCURVE",
"91 -10 OFFCURVE",
"237 -10 CURVE"
);
},
{
closed = 1;
nodes = (
"179 61 OFFCURVE",
"141 84 OFFCURVE",
"141 136 CURVE",
"141 189 OFFCURVE",
"178 216 OFFCURVE",
"281 216 CURVE",
"391 216 OFFCURVE",
"443 184 OFFCURVE",
"443 144 CURVE",
"443 96 OFFCURVE",
"378 61 OFFCURVE",
"270 61 CURVE"
);
}
);
width = 605;
},
{
anchors = (
{
name = bottom;
position = "{298, 0}";
},
{
name = ogonek;
position = "{517, 10}";
},
{
name = top;
position = "{298, 468}";
}
);
layerId = "1A280FA7-9E72-4FC3-84C1-49B7BD56B269";
paths = (
{
closed = 1;
nodes = (
"332 -10 OFFCURVE",
"392 19 OFFCURVE",
"413 42 CURVE",
"415 40 LINE",
"413 21 LINE",
"413 0 LINE",
"575 0 LINE",
"566 9 OFFCURVE",
"555 22 OFFCURVE",
"555 60 CURVE",
"555 240 LINE",
"555 390 OFFCURVE",
"510 478 OFFCURVE",
"313 478 CURVE",
"169 478 OFFCURVE",
"83 446 OFFCURVE",
"70 439 CURVE",
"80 341 LINE",
"80 311 LINE",
"102 333 OFFCURVE",
"182 378 OFFCURVE",
"305 378 CURVE",
"389 378 OFFCURVE",
"412 341 OFFCURVE",
"412 258 CURVE",
"399 266 OFFCURVE",
"347 296 OFFCURVE",
"255 296 CURVE",
"131 296 OFFCURVE",
"40 249 OFFCURVE",
"40 140 CURVE",
"40 34 OFFCURVE",
"117 -10 OFFCURVE",
"237 -10 CURVE"
);
},
{
closed = 1;
nodes = (
"218 91 OFFCURVE",
"181 100 OFFCURVE",
"181 140 CURVE",
"181 172 OFFCURVE",
"209 196 OFFCURVE",
"285 196 CURVE",
"364 196 OFFCURVE",
"413 173 OFFCURVE",
"413 143 CURVE",
"413 112 OFFCURVE",
"367 91 OFFCURVE",
"284 91 CURVE"
);
}
);
width = 615;
},
{
anchors = (
{
name = bottom;
position = "{298, 0}";
},
{
name = ogonek;
position = "{585, 10}";
},
{
name = top;
position = "{288, 468}";
}
);
layerId = "CA5CD7F6-F0E6-40F5-9716-481B35A0BC32";
paths = (
{
closed = 1;
nodes = (
"420 -10 OFFCURVE",
"468 52 OFFCURVE",
"485 71 CURVE",
"487 70 LINE",
"485 51 LINE",
"485 0 LINE",
"555 0 LINE",
"546 9 OFFCURVE",
"535 22 OFFCURVE",
"535 60 CURVE",
"535 260 LINE",
"535 408 OFFCURVE",
"467 478 OFFCURVE",
"294 478 CURVE",
"153 478 OFFCURVE",
"80 443 OFFCURVE",
"70 438 CURVE",
"80 393 LINE",
"80 383 LINE",
"104 407 OFFCURVE",
"194 438 OFFCURVE",
"286 438 CURVE",
"447 438 OFFCURVE",
"485 377 OFFCURVE",
"485 227 CURVE",
"469 243 OFFCURVE",
"413 286 OFFCURVE",
"276 286 CURVE",
"113 286 OFFCURVE",
"40 232 OFFCURVE",
"40 136 CURVE",
"40 38 OFFCURVE",
"102 -10 OFFCURVE",
"248 -10 CURVE"
);
},
{
closed = 1;
nodes = (
"141 31 OFFCURVE",
"91 63 OFFCURVE",
"91 136 CURVE",
"91 210 OFFCURVE",
"155 246 OFFCURVE",
"282 246 CURVE",
"424 246 OFFCURVE",
"485 203 OFFCURVE",
"485 147 CURVE",
"485 80 OFFCURVE",
"384 31 OFFCURVE",
"261 31 CURVE"
);
}
);
width = 595;
}
);
rightMetricsKey = n;
unicode = 0061;
},
{
color = 1;
glyphname = a.alt;
layers = (
{
layerId = "083550D2-F2E8-44E3-BE3D-E8BDF41EDFC4";
paths = (
{
closed = 1;
nodes = (
"361 -10 OFFCURVE",
"413 16 OFFCURVE",
"444 51 CURVE",
"447 50 LINE",
"444 31 LINE",
"444 0 LINE",
"566 0 LINE",
"566 0 OFFCURVE",
"546 1 OFFCURVE",
"546 60 CURVE",
"546 468 LINE",
"444 468 LINE",
"444 441 LINE",
"446 422 LINE",
"444 421 LINE",
"413 454 OFFCURVE",
"361 478 OFFCURVE",
"281 478 CURVE",
"91 478 OFFCURVE",
"40 372 OFFCURVE",
"40 233 CURVE",
"40 94 OFFCURVE",
"91 -10 OFFCURVE",
"281 -10 CURVE"
);
},
{
closed = 1;
nodes = (
"172 61 OFFCURVE",
"141 125 OFFCURVE",
"141 232 CURVE",
"141 339 OFFCURVE",
"176 408 OFFCURVE",
"288 408 CURVE",
"422 408 OFFCURVE",
"444 303 OFFCURVE",
"444 233 CURVE",
"444 154 OFFCURVE",
"423 61 OFFCURVE",
"288 61 CURVE"
);
}
);
width = 612;
},
{
layerId = "1A280FA7-9E72-4FC3-84C1-49B7BD56B269";
paths = (
{
closed = 1;
nodes = (
"329 -10 OFFCURVE",
"373 7 OFFCURVE",
"404 33 CURVE",
"407 32 LINE",
"404 13 LINE",
"404 0 LINE",
"566 0 LINE",
"566 0 OFFCURVE",
"546 1 OFFCURVE",
"546 60 CURVE",
"546 468 LINE",
"404 468 LINE",
"404 458 LINE",
"406 439 LINE",
"404 438 LINE",
"374 463 OFFCURVE",
"330 478 OFFCURVE",
"271 478 CURVE",
"92 478 OFFCURVE",
"40 372 OFFCURVE",
"40 233 CURVE",
"40 94 OFFCURVE",
"92 -10 OFFCURVE",
"271 -10 CURVE"
);
},
{
closed = 1;
nodes = (
"221 91 OFFCURVE",
"181 125 OFFCURVE",
"181 232 CURVE",
"181 339 OFFCURVE",
"224 378 OFFCURVE",
"288 378 CURVE",
"376 378 OFFCURVE",
"404 319 OFFCURVE",
"404 233 CURVE",
"404 147 OFFCURVE",
"377 91 OFFCURVE",
"288 91 CURVE"
);
}
);
width = 612;
},
{
layerId = "CA5CD7F6-F0E6-40F5-9716-481B35A0BC32";
paths = (
{
closed = 1;
nodes = (
"420 -10 OFFCURVE",
"463 37 OFFCURVE",
"494 72 CURVE",
"497 71 LINE",
"494 52 LINE",
"494 0 LINE",
"566 0 LINE",
"566 0 OFFCURVE",
"546 1 OFFCURVE",
"546 60 CURVE",
"546 468 LINE",
"494 468 LINE",
"494 420 LINE",
"496 401 LINE",
"494 400 LINE",
"464 433 OFFCURVE",
"415 478 OFFCURVE",
"281 478 CURVE",
"91 478 OFFCURVE",
"40 372 OFFCURVE",
"40 233 CURVE",
"40 94 OFFCURVE",
"91 -10 OFFCURVE",
"281 -10 CURVE"
);
},
{
closed = 1;
nodes = (
"145 30 OFFCURVE",
"91 98 OFFCURVE",
"91 232 CURVE",
"91 371 OFFCURVE",
"149 438 OFFCURVE",
"288 438 CURVE",
"448 438 OFFCURVE",
"494 348 OFFCURVE",
"494 233 CURVE",
"494 122 OFFCURVE",
"449 30 OFFCURVE",
"288 30 CURVE"
);
}
);
width = 612;
}
);
leftMetricsKey = o;
},
{
color = 1;
glyphname = ae;
layers = (
{
anchors = (
{
name = bottom;
position = "{503, 0}";
},
{
name = top;
position = "{503, 468}";
}
);
components = (
{
name = e;
transform = "{1, 0, 0, 1, 410, 0}";
}
);
layerId = "083550D2-F2E8-44E3-BE3D-E8BDF41EDFC4";
paths = (
{
closed = 1;
nodes = (
"326 -10 OFFCURVE",
"407 15 OFFCURVE",
"455 45 CURVE",
"503 75 OFFCURVE",
"545 113 OFFCURVE",
"545 210 CURVE",
"545 260 LINE",
"545 408 OFFCURVE",
"471 478 OFFCURVE",
"303 478 CURVE",
"138 478 OFFCURVE",
"70 438 OFFCURVE",
"70 438 CURVE",
"80 363 LINE",
"80 333 LINE",
"80 333 OFFCURVE",
"152 408 OFFCURVE",
"295 408 CURVE",
"404 408 OFFCURVE",
"442 362 OFFCURVE",
"443 244 CURVE",
"422 258 OFFCURVE",
"359 286 OFFCURVE",
"255 286 CURVE",
"109 286 OFFCURVE",
"40 229 OFFCURVE",
"40 136 CURVE",
"40 46 OFFCURVE",
"91 -10 OFFCURVE",
"237 -10 CURVE"
);
},
{
closed = 1;
nodes = (
"179 61 OFFCURVE",
"141 82 OFFCURVE",
"141 134 CURVE",
"141 187 OFFCURVE",
"178 216 OFFCURVE",
"281 216 CURVE",
"391 216 OFFCURVE",
"443 184 OFFCURVE",
"443 144 CURVE",
"443 96 OFFCURVE",
"378 61 OFFCURVE",
"270 61 CURVE"
);
}
);
width = 975;
},
{
anchors = (
{
name = bottom;
position = "{483, 0}";
},
{
name = top;
position = "{483, 468}";
}
);
components = (
{
name = e;
transform = "{1, 0, 0, 1, 360, 0}";
}
);
layerId = "1A280FA7-9E72-4FC3-84C1-49B7BD56B269";
paths = (
{
closed = 1;
nodes = (
"330 -10 OFFCURVE",
"405 13 OFFCURVE",
"451 42 CURVE",
"497 71 OFFCURVE",
"544 109 OFFCURVE",
"544 200 CURVE",
"544 240 LINE",
"544 390 OFFCURVE",
"501 478 OFFCURVE",
"302 478 CURVE",
"147 478 OFFCURVE",
"69 449 OFFCURVE",
"69 449 CURVE",
"79 341 LINE",
"79 311 LINE",
"79 311 OFFCURVE",
"147 378 OFFCURVE",
"294 378 CURVE",
"388 378 OFFCURVE",
"401 340 OFFCURVE",
"401 268 CURVE",
"384 277 OFFCURVE",
"339 296 OFFCURVE",
"244 296 CURVE",
"120 296 OFFCURVE",
"40 245 OFFCURVE",
"40 137 CURVE",
"40 30 OFFCURVE",
"118 -10 OFFCURVE",
"236 -10 CURVE"
);
},
{
closed = 1;
nodes = (
"213 91 OFFCURVE",
"181 102 OFFCURVE",
"181 142 CURVE",
"181 174 OFFCURVE",
"204 196 OFFCURVE",
"280 196 CURVE",
"367 196 OFFCURVE",
"402 175 OFFCURVE",
"402 145 CURVE",
"402 114 OFFCURVE",
"362 91 OFFCURVE",
"279 91 CURVE"
);
}
);
width = 936;
},
{
associatedMasterId = "083550D2-F2E8-44E3-BE3D-E8BDF41EDFC4";
layerId = "0AAF2CB4-2EBD-42C4-BAB4-4CEC92C737FB";
width = 600;
},
{
anchors = (
{
name = bottom;
position = "{523, 0}";
},
{
name = top;
position = "{523, 468}";
}
);
components = (
{
name = e;
transform = "{1, 0, 0, 1, 460, 0}";
}
);
layerId = "CA5CD7F6-F0E6-40F5-9716-481B35A0BC32";
paths = (
{
closed = 1;
nodes = (
"397 0 OFFCURVE",
"469 59 OFFCURVE",
"485 71 CURVE",
"501 83 OFFCURVE",
"545 131 OFFCURVE",
"545 190 CURVE",
"545 270 LINE",
"545 418 OFFCURVE",
"475 488 OFFCURVE",
"304 488 CURVE",
"147 488 OFFCURVE",
"70 448 OFFCURVE",
"70 448 CURVE",
"80 413 LINE",
"80 383 LINE",
"80 383 OFFCURVE",
"148 448 OFFCURVE",
"296 448 CURVE",
"438 448 OFFCURVE",
"484 401 OFFCURVE",
"485 243 CURVE",
"457 271 OFFCURVE",
"396 296 OFFCURVE",
"276 296 CURVE",
"100 296 OFFCURVE",
"40 231 OFFCURVE",
"40 146 CURVE",
"40 64 OFFCURVE",
"97 0 OFFCURVE",
"238 0 CURVE"
);
},
{
closed = 1;
nodes = (
"164 41 OFFCURVE",
"101 75 OFFCURVE",
"101 146 CURVE",
"101 220 OFFCURVE",
"163 256 OFFCURVE",
"282 256 CURVE",
"416 256 OFFCURVE",
"485 218 OFFCURVE",
"485 157 CURVE",
"485 88 OFFCURVE",
"397 41 OFFCURVE",
"271 41 CURVE"
);
}
);
width = 1015;
},
{
associatedMasterId = "CA5CD7F6-F0E6-40F5-9716-481B35A0BC32";
layerId = "3F3F918E-8D5E-47AF-871D-369546CA17FC";
width = 600;
}
);
leftMetricsKey = a;
rightMetricsKey = e;
unicode = 00E6;
},
{
color = 1;
glyphname = b;
layers = (
{
layerId = "083550D2-F2E8-44E3-BE3D-E8BDF41EDFC4";
paths = (
{
closed = 1;
nodes = (
"512 -10 OFFCURVE",
"572 94 OFFCURVE",
"572 233 CURVE",
"572 372 OFFCURVE",
"509 478 OFFCURVE",
"324 478 CURVE",
"251 478 OFFCURVE",
"194 452 OFFCURVE",
"168 427 CURVE",
"166 429 LINE",
"168 448 LINE",
"168 690 LINE",
"46 690 LINE",
"46 690 OFFCURVE",
"66 688 OFFCURVE",
"66 630 CURVE",
"66 60 LINE",
"66 1 OFFCURVE",
"46 0 OFFCURVE",
"46 0 CURVE",
"168 0 LINE",
"168 19 LINE",
"166 38 LINE",
"168 39 LINE",
"202 8 OFFCURVE",
"251 -10 OFFCURVE",
"324 -10 CURVE"
);
},
{
closed = 1;
nodes = (
"202 61 OFFCURVE",
"168 127 OFFCURVE",
"168 233 CURVE",
"168 329 OFFCURVE",
"194 408 OFFCURVE",
"314 408 CURVE",
"437 408 OFFCURVE",
"470 343 OFFCURVE",
"470 233 CURVE",
"470 123 OFFCURVE",
"438 61 OFFCURVE",
"314 61 CURVE"
);
}
);
width = 612;
},
{
layerId = "1A280FA7-9E72-4FC3-84C1-49B7BD56B269";
paths = (
{
closed = 1;
nodes = (
"522 -10 OFFCURVE",
"572 94 OFFCURVE",
"572 233 CURVE",
"572 372 OFFCURVE",
"519 478 OFFCURVE",
"334 478 CURVE",
"282 478 OFFCURVE",
"227 457 OFFCURVE",
"208 440 CURVE",
"206 441 LINE",
"208 460 LINE",
"208 690 LINE",
"46 690 LINE",
"46 690 OFFCURVE",
"66 688 OFFCURVE",
"66 630 CURVE",
"66 60 LINE",
"66 1 OFFCURVE",
"46 0 OFFCURVE",
"46 0 CURVE",
"208 0 LINE",
"208 6 LINE",
"206 25 LINE",
"208 27 LINE",
"235 3 OFFCURVE",
"282 -10 OFFCURVE",
"334 -10 CURVE"
);
},
{
closed = 1;
nodes = (
"248 91 OFFCURVE",
"208 128 OFFCURVE",
"208 232 CURVE",
"208 334 OFFCURVE",
"247 378 OFFCURVE",
"314 378 CURVE",
"397 378 OFFCURVE",
"430 343 OFFCURVE",
"430 233 CURVE",
"430 123 OFFCURVE",
"398 91 OFFCURVE",
"314 91 CURVE"
);
}
);
width = 612;
},
{
associatedMasterId = "083550D2-F2E8-44E3-BE3D-E8BDF41EDFC4";
layerId = "0AAF2CB4-2EBD-42C4-BAB4-4CEC92C737FB";
width = 600;
},
{
layerId = "CA5CD7F6-F0E6-40F5-9716-481B35A0BC32";
paths = (
{
closed = 1;
nodes = (
"504 -10 OFFCURVE",
"572 86 OFFCURVE",
"572 233 CURVE",
"572 372 OFFCURVE",
"509 478 OFFCURVE",
"324 478 CURVE",
"198 478 OFFCURVE",
"141 421 OFFCURVE",
"116 389 CURVE",
"114 390 LINE",
"116 409 LINE",
"116 690 LINE",
"46 690 LINE",
"46 690 OFFCURVE",
"66 688 OFFCURVE",
"66 630 CURVE",
"66 60 LINE",
"66 1 OFFCURVE",
"46 0 OFFCURVE",
"46 0 CURVE",
"116 0 LINE",
"116 57 LINE",
"114 76 LINE",
"116 77 LINE",
"152 26 OFFCURVE",
"217 -10 OFFCURVE",
"324 -10 CURVE"
);
},
{
closed = 1;
nodes = (
"192 30 OFFCURVE",
"116 98 OFFCURVE",
"116 232 CURVE",
"116 360 OFFCURVE",
"179 438 OFFCURVE",
"314 438 CURVE",
"453 438 OFFCURVE",
"520 375 OFFCURVE",
"520 233 CURVE",
"520 96 OFFCURVE",
"457 30 OFFCURVE",
"314 30 CURVE"
);
}
);
width = 612;
},
{
associatedMasterId = "CA5CD7F6-F0E6-40F5-9716-481B35A0BC32";
layerId = "8C17FEDB-9D26-4442-B869-0145B014F356";
width = 600;
}
);
leftMetricsKey = n;
rightMetricsKey = o;
unicode = 0062;
},
{
color = 1;
glyphname = c;
layers = (
{
anchors = (
{
name = bottom;
position = "{288, 0}";
},
{
name = top;
position = "{288, 468}";
}
);
layerId = "083550D2-F2E8-44E3-BE3D-E8BDF41EDFC4";
paths = (
{
closed = 1;
nodes = (
"465 -10 OFFCURVE",
"525 38 OFFCURVE",
"525 38 CURVE",
"515 106 LINE",
"515 126 LINE",
"515 126 OFFCURVE",
"464 61 OFFCURVE",
"335 61 CURVE",
"222 61 OFFCURVE",
"141 95 OFFCURVE",
"141 232 CURVE",
"141 372 OFFCURVE",
"221 407 OFFCURVE",
"308 407 CURVE",
"463 407 OFFCURVE",
"525 341 OFFCURVE",
"525 341 CURVE",
"505 428 LINE",
"505 448 LINE",
"505 448 OFFCURVE",
"443 477 OFFCURVE",
"301 477 CURVE",
"130 477 OFFCURVE",
"40 396 OFFCURVE",
"40 233 CURVE",
"40 95 OFFCURVE",
"102 -10 OFFCURVE",
"311 -10 CURVE"
);
}
);
width = 565;
},
{
anchors = (
{
name = _center;
position = "{326, 250}";
},
{
name = bottom;
position = "{288, 0}";
},
{
name = top;
position = "{288, 468}";
}
);
layerId = "1A280FA7-9E72-4FC3-84C1-49B7BD56B269";
paths = (
{
closed = 1;
nodes = (
"465 -10 OFFCURVE",
"525 38 OFFCURVE",
"525 38 CURVE",
"515 118 LINE",
"515 148 LINE",
"515 148 OFFCURVE",
"464 93 OFFCURVE",
"335 93 CURVE",
"222 93 OFFCURVE",
"181 133 OFFCURVE",
"181 232 CURVE",
"181 332 OFFCURVE",
"221 377 OFFCURVE",
"308 377 CURVE",
"455 377 OFFCURVE",
"525 311 OFFCURVE",
"525 311 CURVE",
"505 418 LINE",
"505 448 LINE",
"505 448 OFFCURVE",
"423 477 OFFCURVE",
"301 477 CURVE",
"130 477 OFFCURVE",
"40 396 OFFCURVE",
"40 233 CURVE",
"40 95 OFFCURVE",
"102 -10 OFFCURVE",
"311 -10 CURVE"
);
}
);
width = 565;
},
{
associatedMasterId = "083550D2-F2E8-44E3-BE3D-E8BDF41EDFC4";
layerId = "0AAF2CB4-2EBD-42C4-BAB4-4CEC92C737FB";
width = 600;
},
{
anchors = (
{
name = bottom;
position = "{288, 0}";
},
{
name = top;
position = "{288, 468}";
}
);
layerId = "CA5CD7F6-F0E6-40F5-9716-481B35A0BC32";
paths = (
{
closed = 1;
nodes = (
"455 -10 OFFCURVE",
"525 48 OFFCURVE",
"525 48 CURVE",
"515 86 LINE",
"515 96 LINE",
"515 96 OFFCURVE",
"455 30 OFFCURVE",
"315 30 CURVE",
"181 30 OFFCURVE",
"91 95 OFFCURVE",
"91 232 CURVE",
"91 372 OFFCURVE",
"168 437 OFFCURVE",
"298 437 CURVE",
"456 437 OFFCURVE",
"515 381 OFFCURVE",
"515 381 CURVE",
"505 428 LINE",
"505 438 LINE",
"505 438 OFFCURVE",
"443 477 OFFCURVE",
"291 477 CURVE",
"128 477 OFFCURVE",
"40 396 OFFCURVE",
"40 233 CURVE",
"40 95 OFFCURVE",
"106 -10 OFFCURVE",
"301 -10 CURVE"
);
}
);
width = 565;
},
{
associatedMasterId = "CA5CD7F6-F0E6-40F5-9716-481B35A0BC32";
layerId = "1A3A5ACC-1143-4C8D-BEBA-B289F63E5C07";
width = 600;
}
);
leftMetricsKey = o;
unicode = 0063;
},
{
color = 1;
glyphname = d;
layers = (
{
anchors = (
{
name = bottom;
position = "{318, 0}";
},
{
name = center;
position = "{458, 564}";
},
{
name = top;
position = "{258, 468}";
},
{
name = topright;
position = "{585, 468}";
}
);
layerId = "083550D2-F2E8-44E3-BE3D-E8BDF41EDFC4";
paths = (
{
closed = 1;
nodes = (
"361 -10 OFFCURVE",
"413 16 OFFCURVE",
"444 51 CURVE",
"447 50 LINE",
"444 31 LINE",
"444 0 LINE",
"566 0 LINE",
"566 0 OFFCURVE",
"546 1 OFFCURVE",
"546 60 CURVE",
"546 690 LINE",
"424 690 LINE",
"424 690 OFFCURVE",
"444 688 OFFCURVE",
"444 630 CURVE",
"444 441 LINE",
"446 422 LINE",
"444 421 LINE",
"413 454 OFFCURVE",
"361 478 OFFCURVE",
"281 478 CURVE",
"91 478 OFFCURVE",
"40 372 OFFCURVE",
"40 233 CURVE",
"40 94 OFFCURVE",
"91 -10 OFFCURVE",
"281 -10 CURVE"
);
},
{
closed = 1;
nodes = (
"172 61 OFFCURVE",
"141 125 OFFCURVE",
"141 232 CURVE",
"141 339 OFFCURVE",
"176 408 OFFCURVE",
"288 408 CURVE",
"422 408 OFFCURVE",
"444 303 OFFCURVE",
"444 233 CURVE",
"444 154 OFFCURVE",
"423 61 OFFCURVE",
"288 61 CURVE"
);
}
);
width = 616;
},
{
anchors = (
{
name = bottom;
position = "{298, 0}";
},
{
name = center;
position = "{458, 564}";
},
{
name = top;
position = "{238, 468}";
},
{
name = topright;
position = "{585, 468}";
}
);
layerId = "1A280FA7-9E72-4FC3-84C1-49B7BD56B269";
paths = (
{
closed = 1;
nodes = (
"329 -10 OFFCURVE",
"373 7 OFFCURVE",
"404 33 CURVE",
"407 32 LINE",
"404 13 LINE",
"404 0 LINE",
"566 0 LINE",
"566 0 OFFCURVE",
"546 1 OFFCURVE",
"546 60 CURVE",
"546 690 LINE",
"384 690 LINE",
"384 690 OFFCURVE",
"404 688 OFFCURVE",
"404 630 CURVE",
"404 458 LINE",
"406 439 LINE",
"404 438 LINE",
"374 463 OFFCURVE",
"330 478 OFFCURVE",
"271 478 CURVE",
"92 478 OFFCURVE",
"40 372 OFFCURVE",
"40 233 CURVE",
"40 94 OFFCURVE",
"92 -10 OFFCURVE",
"271 -10 CURVE"
);
},
{
closed = 1;
nodes = (
"221 91 OFFCURVE",
"181 125 OFFCURVE",
"181 232 CURVE",
"181 339 OFFCURVE",
"224 378 OFFCURVE",
"288 378 CURVE",
"376 378 OFFCURVE",
"404 319 OFFCURVE",
"404 233 CURVE",
"404 147 OFFCURVE",
"377 91 OFFCURVE",
"288 91 CURVE"
);
}
);
width = 616;
},
{
associatedMasterId = "083550D2-F2E8-44E3-BE3D-E8BDF41EDFC4";
layerId = "0AAF2CB4-2EBD-42C4-BAB4-4CEC92C737FB";
width = 600;
},
{
anchors = (
{
name = bottom;
position = "{328, 0}";
},
{
name = center;
position = "{458, 564}";
},
{
name = top;
position = "{268, 468}";
},
{
name = topright;
position = "{585, 468}";
}
);
layerId = "CA5CD7F6-F0E6-40F5-9716-481B35A0BC32";
paths = (
{
closed = 1;
nodes = (
"420 -10 OFFCURVE",
"463 48 OFFCURVE",
"494 83 CURVE",
"497 82 LINE",
"494 63 LINE",
"494 0 LINE",
"566 0 LINE",
"566 0 OFFCURVE",
"546 1 OFFCURVE",
"546 60 CURVE",
"546 690 LINE",
"474 690 LINE",
"474 690 OFFCURVE",
"494 688 OFFCURVE",
"494 630 CURVE",
"494 409 LINE",
"496 390 LINE",
"494 389 LINE",
"472 418 OFFCURVE",
"409 478 OFFCURVE",
"281 478 CURVE",
"96 478 OFFCURVE",
"40 372 OFFCURVE",
"40 233 CURVE",
"40 94 OFFCURVE",
"91 -10 OFFCURVE",
"281 -10 CURVE"
);
},
{
closed = 1;
nodes = (
"153 30 OFFCURVE",
"91 98 OFFCURVE",
"91 232 CURVE",
"91 376 OFFCURVE",
"157 438 OFFCURVE",
"288 438 CURVE",
"430 438 OFFCURVE",
"494 351 OFFCURVE",
"494 233 CURVE",
"494 122 OFFCURVE",
"431 30 OFFCURVE",
"288 30 CURVE"
);
}
);
width = 616;
},
{
associatedMasterId = "CA5CD7F6-F0E6-40F5-9716-481B35A0BC32";
layerId = "5A46FAA8-3A4F-4D09-B744-4E5A84EACDB2";
width = 600;
}
);
leftMetricsKey = o;
unicode = 0064;
},
{
color = 1;
glyphname = eth;
layers = (
{
layerId = "083550D2-F2E8-44E3-BE3D-E8BDF41EDFC4";
paths = (
{
closed = 1;
nodes = (
"451 -10 OFFCURVE",
"556 93 OFFCURVE",
"556 334 CURVE",
"556 598 OFFCURVE",
"449 708 OFFCURVE",
"252 708 CURVE",
"110 708 OFFCURVE",
"40 648 OFFCURVE",
"40 648 CURVE",
"60 588 LINE",
"60 558 LINE",
"60 558 OFFCURVE",
"137 648 OFFCURVE",
"264 648 CURVE",
"408 648 OFFCURVE",
"441 514 OFFCURVE",
"444 397 CURVE",
"446 377 LINE",
"444 376 LINE",
"424 400 OFFCURVE",
"365 445 OFFCURVE",
"282 445 CURVE",
"147 445 OFFCURVE",
"60 368 OFFCURVE",
"60 223 CURVE",
"60 93 OFFCURVE",
"143 -10 OFFCURVE",
"293 -10 CURVE"
);
},
{
closed = 1;
nodes = (
"220 61 OFFCURVE",
"172 111 OFFCURVE",
"172 223 CURVE",
"172 337 OFFCURVE",
"224 375 OFFCURVE",
"290 375 CURVE",
"381 375 OFFCURVE",
"434 321 OFFCURVE",
"434 222 CURVE",
"434 126 OFFCURVE",
"394 61 OFFCURVE",
"300 61 CURVE"
);
},
{
closed = 1;
nodes = (
"500 689 LINE",
"458 731 LINE",
"278 551 LINE",
"320 509 LINE"
);
}
);
width = 606;
},
{
layerId = "1A280FA7-9E72-4FC3-84C1-49B7BD56B269";
paths = (
{
closed = 1;
nodes = (
"451 -10 OFFCURVE",
"556 93 OFFCURVE",
"556 334 CURVE",
"556 598 OFFCURVE",
"449 708 OFFCURVE",
"252 708 CURVE",
"110 708 OFFCURVE",
"40 648 OFFCURVE",
"40 648 CURVE",
"60 548 LINE",
"60 518 LINE",
"60 518 OFFCURVE",
"137 618 OFFCURVE",
"264 618 CURVE",
"394 618 OFFCURVE",
"402 497 OFFCURVE",
"404 407 CURVE",
"406 387 LINE",
"404 386 LINE",
"397 401 OFFCURVE",
"357 445 OFFCURVE",
"282 445 CURVE",
"147 445 OFFCURVE",
"60 368 OFFCURVE",
"60 223 CURVE",
"60 93 OFFCURVE",
"143 -10 OFFCURVE",
"293 -10 CURVE"
);
},
{
closed = 1;
nodes = (
"246 91 OFFCURVE",
"212 138 OFFCURVE",
"212 223 CURVE",
"212 310 OFFCURVE",
"240 345 OFFCURVE",
"290 345 CURVE",
"368 345 OFFCURVE",
"394 286 OFFCURVE",
"394 222 CURVE",
"394 144 OFFCURVE",
"368 91 OFFCURVE",
"300 91 CURVE"
);
},
{
closed = 1;
nodes = (
"510 679 LINE",
"458 731 LINE",
"278 551 LINE",
"330 499 LINE"
);
}
);
width = 606;
},
{
associatedMasterId = "083550D2-F2E8-44E3-BE3D-E8BDF41EDFC4";
layerId = "0AAF2CB4-2EBD-42C4-BAB4-4CEC92C737FB";
width = 600;
},
{
layerId = "CA5CD7F6-F0E6-40F5-9716-481B35A0BC32";
paths = (
{
closed = 1;
nodes = (
"451 -10 OFFCURVE",
"556 93 OFFCURVE",
"556 334 CURVE",
"556 598 OFFCURVE",
"449 708 OFFCURVE",
"252 708 CURVE",
"110 708 OFFCURVE",
"40 648 OFFCURVE",
"40 648 CURVE",
"50 618 LINE",
"50 588 LINE",
"50 588 OFFCURVE",
"121 668 OFFCURVE",
"264 668 CURVE",
"433 668 OFFCURVE",
"502 537 OFFCURVE",
"502 357 CURVE",
"504 337 LINE",
"502 336 LINE",
"470 385 OFFCURVE",
"408 445 OFFCURVE",
"282 445 CURVE",
"147 445 OFFCURVE",
"60 368 OFFCURVE",
"60 223 CURVE",
"60 93 OFFCURVE",
"143 -10 OFFCURVE",
"293 -10 CURVE"
);
},
{
closed = 1;
nodes = (
"172 30 OFFCURVE",
"114 111 OFFCURVE",
"114 223 CURVE",
"114 326 OFFCURVE",
"171 405 OFFCURVE",
"290 405 CURVE",
"416 405 OFFCURVE",
"492 331 OFFCURVE",
"492 222 CURVE",
"492 115 OFFCURVE",
"421 30 OFFCURVE",
"300 30 CURVE"
);
},
{
closed = 1;
nodes = (
"480 699 LINE",
"448 731 LINE",
"268 551 LINE",
"300 519 LINE"
);
}
);
width = 606;
},
{
associatedMasterId = "CA5CD7F6-F0E6-40F5-9716-481B35A0BC32";
layerId = "5BD55B05-A82C-4FC3-9BCD-D521657EC87F";
width = 600;
}
);
leftMetricsKey = d;
rightMetricsKey = d;
unicode = 00F0;
},
{
color = 1;
glyphname = e;
layers = (
{
anchors = (
{
name = bottom;
position = "{283, 0}";
},
{
name = ogonek;
position = "{460, 10}";
},
{
name = top;
position = "{283, 468}";
}
);
layerId = "083550D2-F2E8-44E3-BE3D-E8BDF41EDFC4";
paths = (
{
closed = 1;
nodes = (
"448 -10 OFFCURVE",
"515 30 OFFCURVE",
"515 30 CURVE",
"505 96 LINE",
"505 116 LINE",
"505 116 OFFCURVE",
"454 61 OFFCURVE",
"317 61 CURVE",
"201 61 OFFCURVE",
"142 122 OFFCURVE",
"142 221 CURVE",
"182 221 OFFCURVE",
"331 221 OFFCURVE",
"405 221 CURVE",
"524 221 OFFCURVE",
"525 211 OFFCURVE",
"525 211 CURVE",
"525 258 LINE",
"525 356 OFFCURVE",
"493 478 OFFCURVE",
"296 478 CURVE",
"126 478 OFFCURVE",
"40 384 OFFCURVE",
"40 233 CURVE",
"40 95 OFFCURVE",
"91 -10 OFFCURVE",
"302 -10 CURVE"
);
},
{
closed = 1;
nodes = (
"161 287 OFFCURVE",
"154 294 OFFCURVE",
"154 307 CURVE",
"154 359 OFFCURVE",
"209 408 OFFCURVE",
"296 408 CURVE",
"398 408 OFFCURVE",
"425 338 OFFCURVE",
"425 287 CURVE",
"425 287 OFFCURVE",
"184 287 OFFCURVE",
"182 287 CURVE"
);
}
);
width = 565;
},
{
anchors = (
{
name = bottom;
position = "{293, 0}";
},
{
name = ogonek;
position = "{460, 10}";
},
{
name = top;
position = "{293, 468}";
}
);
layerId = "1A280FA7-9E72-4FC3-84C1-49B7BD56B269";
paths = (
{
closed = 1;
nodes = (
"468 -10 OFFCURVE",
"525 30 OFFCURVE",
"525 30 CURVE",
"515 106 LINE",
"515 136 LINE",
"515 136 OFFCURVE",
"443 91 OFFCURVE",
"327 91 CURVE",
"226 91 OFFCURVE",
"184 128 OFFCURVE",
"184 201 CURVE",
"416 201 LINE",
"535 201 OFFCURVE",
"536 191 OFFCURVE",
"536 191 CURVE",
"536 238 LINE",
"536 352 OFFCURVE",
"499 478 OFFCURVE",
"296 478 CURVE",
"123 478 OFFCURVE",
"40 384 OFFCURVE",
"40 233 CURVE",
"40 81 OFFCURVE",
"101 -10 OFFCURVE",
"312 -10 CURVE"
);
},
{
closed = 1;
nodes = (
"200 287 OFFCURVE",
"193 293 OFFCURVE",
"193 307 CURVE",
"193 340 OFFCURVE",
"222 378 OFFCURVE",
"296 378 CURVE",
"369 378 OFFCURVE",
"394 331 OFFCURVE",
"394 287 CURVE",
"394 287 OFFCURVE",
"223 287 OFFCURVE",
"221 287 CURVE"
);
}
);
width = 576;
},
{
anchors = (
{
name = bottom;
position = "{283, 0}";
},
{
name = ogonek;
position = "{460, 10}";
},
{
name = top;
position = "{283, 468}";
}
);
layerId = "CA5CD7F6-F0E6-40F5-9716-481B35A0BC32";
paths = (
{
closed = 1;
nodes = (
"461 -10 OFFCURVE",
"505 40 OFFCURVE",
"505 40 CURVE",
"495 76 LINE",
"495 86 LINE",
"495 86 OFFCURVE",
"450 30 OFFCURVE",
"307 30 CURVE",
"156 30 OFFCURVE",
"89 105 OFFCURVE",
"89 236 CURVE",
"405 236 LINE",
"511 236 OFFCURVE",
"515 226 OFFCURVE",
"515 226 CURVE",
"515 258 LINE",
"515 367 OFFCURVE",
"464 478 OFFCURVE",
"287 478 CURVE",
"136 478 OFFCURVE",
"40 395 OFFCURVE",
"40 233 CURVE",
"40 92 OFFCURVE",
"102 -10 OFFCURVE",
"307 -10 CURVE"
);
},
{
closed = 1;
nodes = (
"106 277 OFFCURVE",
"99 284 OFFCURVE",
"99 297 CURVE",
"99 359 OFFCURVE",
"165 438 OFFCURVE",
"287 438 CURVE",
"417 438 OFFCURVE",
"462 361 OFFCURVE",
"462 277 CURVE",
"462 277 OFFCURVE",
"128 277 OFFCURVE",
"127 277 CURVE"
);
}
);
width = 555;
}
);
leftMetricsKey = o;
unicode = 0065;
},
{
color = 1;
glyphname = schwa;
layers = (
{
layerId = "083550D2-F2E8-44E3-BE3D-E8BDF41EDFC4";
paths = (
{
closed = 1;
nodes = (
"459 -10 OFFCURVE",
"546 89 OFFCURVE",
"546 234 CURVE",
"546 371 OFFCURVE",
"483 478 OFFCURVE",
"284 478 CURVE",
"126 478 OFFCURVE",
"70 438 OFFCURVE",
"70 438 CURVE",
"80 378 LINE",
"80 348 LINE",
"80 348 OFFCURVE",
"162 408 OFFCURVE",
"284 408 CURVE",
"391 408 OFFCURVE",
"434 346 OFFCURVE",
"434 255 CURVE",
"40 255 LINE",
"40 213 LINE",
"40 76 OFFCURVE",
"111 -10 OFFCURVE",
"293 -10 CURVE"
);
},
{
closed = 1;
nodes = (
"199 61 OFFCURVE",
"152 99 OFFCURVE",
"152 173 CURVE",
"152 185 LINE",
"434 185 LINE",
"434 107 OFFCURVE",
"387 61 OFFCURVE",
"293 61 CURVE"
);
}
);
width = 586;
},
{
layerId = "1A280FA7-9E72-4FC3-84C1-49B7BD56B269";
paths = (
{
closed = 1;
nodes = (
"459 -10 OFFCURVE",
"546 89 OFFCURVE",
"546 234 CURVE",
"546 371 OFFCURVE",
"483 478 OFFCURVE",
"284 478 CURVE",
"126 478 OFFCURVE",
"70 438 OFFCURVE",
"70 438 CURVE",
"80 338 LINE",
"80 308 LINE",
"80 308 OFFCURVE",
"167 378 OFFCURVE",
"284 378 CURVE",
"378 378 OFFCURVE",
"394 314 OFFCURVE",
"394 255 CURVE",
"40 255 LINE",
"40 193 LINE",
"40 80 OFFCURVE",
"111 -10 OFFCURVE",
"293 -10 CURVE"
);
},
{
closed = 1;
nodes = (
"213 91 OFFCURVE",
"192 129 OFFCURVE",
"192 163 CURVE",
"192 175 LINE",
"394 175 LINE",
"394 134 OFFCURVE",
"372 91 OFFCURVE",
"293 91 CURVE"
);
}
);
width = 586;
},
{
layerId = "CA5CD7F6-F0E6-40F5-9716-481B35A0BC32";
paths = (
{
closed = 1;
nodes = (
"459 -10 OFFCURVE",
"546 89 OFFCURVE",
"546 234 CURVE",
"546 371 OFFCURVE",
"483 478 OFFCURVE",
"284 478 CURVE",
"126 478 OFFCURVE",
"70 438 OFFCURVE",
"70 438 CURVE",
"80 408 LINE",
"80 378 LINE",
"80 378 OFFCURVE",
"143 438 OFFCURVE",
"284 438 CURVE",
"405 438 OFFCURVE",
"484 373 OFFCURVE",
"484 255 CURVE",
"40 255 LINE",
"40 213 LINE",
"40 76 OFFCURVE",
"111 -10 OFFCURVE",
"293 -10 CURVE"
);
},
{
closed = 1;
nodes = (
"159 30 OFFCURVE",
"102 102 OFFCURVE",
"102 203 CURVE",
"102 215 LINE",
"484 215 LINE",
"484 84 OFFCURVE",
"408 30 OFFCURVE",
"293 30 CURVE"
);
}
);
width = 586;
}
);
leftMetricsKey = a;
rightMetricsKey = a;
unicode = 0259;
},
{
color = 1;
glyphname = f;
layers = (
{
layerId = "083550D2-F2E8-44E3-BE3D-E8BDF41EDFC4";
paths = (
{
closed = 1;
nodes = (
"212.206 0 LINE",
"212.206 0 OFFCURVE",
"192.206 1 OFFCURVE",
"192.206 60 CURVE",
"192 398 LINE",
"363 398 LINE",
"363 436 OFFCURVE",
"383.206 468.002 OFFCURVE",
"383.206 468.002 CURVE",
"213.206 468.002 LINE",
"182.003 468.002 OFFCURVE",
"182 469.002 OFFCURVE",
"182 498.002 CURVE",
"182 560.002 LINE",
"182 629.002 OFFCURVE",
"207 649 OFFCURVE",
"263 649 CURVE",
"349 649 OFFCURVE",
"433 610 OFFCURVE",
"433.206 600.002 CURVE",
"413 679 LINE",
"413.206 700.002 LINE",
"413.206 700.002 OFFCURVE",
"349 720.002 OFFCURVE",
"250.206 720.002 CURVE",
"143.872 720.002 OFFCURVE",
"80 676.002 OFFCURVE",
"80 571.002 CURVE",
"80 519.336 OFFCURVE",
"97 476.002 OFFCURVE",
"100.625 470.002 CURVE",
"100 468.002 LINE",
"0 468.002 LINE",
"0 433.002 OFFCURVE",
"0 398 OFFCURVE",
"0 398 CURVE",
"90 398 LINE",
"90.206 60 LINE",
"90.206 1 OFFCURVE",
"70.206 0 OFFCURVE",
"70.206 0 CURVE"
);
}
);
width = 403;
},
{
layerId = "1A280FA7-9E72-4FC3-84C1-49B7BD56B269";
paths = (
{
closed = 1;
nodes = (
"254 0 LINE",
"254 0 OFFCURVE",
"234 1 OFFCURVE",
"234 60 CURVE",
"234 368 LINE",
"385 368 LINE",
"385 440 OFFCURVE",
"405 468 OFFCURVE",
"405 468 CURVE",
"255 468 LINE",
"224 468 OFFCURVE",
"224 469 OFFCURVE",
"224 498 CURVE",
"224 560 LINE",
"224 598 OFFCURVE",
"240 619 OFFCURVE",
"283 619 CURVE",
"369 619 OFFCURVE",
"454 560 OFFCURVE",
"454 560 CURVE",
"434 669 LINE",
"434 700 LINE",
"434 700 OFFCURVE",
"366 720 OFFCURVE",
"250 720 CURVE",
"144 720 OFFCURVE",
"80 676 OFFCURVE",
"80 571 CURVE",
"80 519 OFFCURVE",
"97 476 OFFCURVE",
"101 470 CURVE",
"100 468 LINE",
"0 468 LINE",
"0 433 OFFCURVE",
"0 368 OFFCURVE",
"0 368 CURVE",
"90 368 LINE",
"90 60 LINE",
"90 1 OFFCURVE",
"70 0 OFFCURVE",
"70 0 CURVE"
);
}
);
width = 424;
},
{
layerId = "CA5CD7F6-F0E6-40F5-9716-481B35A0BC32";
paths = (
{
closed = 1;
nodes = (
"162 0 LINE",
"162 0 OFFCURVE",
"142 1 OFFCURVE",
"142 60 CURVE",
"142.182 428.002 LINE",
"353 428.002 LINE",
"353 466.002 OFFCURVE",
"373 468.002 OFFCURVE",
"373 468.002 CURVE",
"163 468.002 LINE",
"131.797 468.002 OFFCURVE",
"131.794 469.002 OFFCURVE",
"131.794 498.002 CURVE",
"131.794 560.002 LINE",
"131.794 639.669 OFFCURVE",
"163.548 679.002 OFFCURVE",
"243 679.002 CURVE",
"350.333 679.002 OFFCURVE",
"413 650.002 OFFCURVE",
"413 650.002 CURVE",
"393 689.002 LINE",
"393 700.002 LINE",
"393 700.002 OFFCURVE",
"342.57 720.002 OFFCURVE",
"250.206 720.002 CURVE",
"143.872 720.002 OFFCURVE",
"80 676.002 OFFCURVE",
"80 571.002 CURVE",
"80 519.336 OFFCURVE",
"99 475 OFFCURVE",
"100 470 CURVE",
"99 468 LINE",
"0 468.002 LINE",
"0 433.002 OFFCURVE",
"0 428.002 OFFCURVE",
"0 428.002 CURVE",
"90.206 428.002 LINE",
"90.206 60 LINE",
"90.206 1 OFFCURVE",
"70.206 0 OFFCURVE",
"70.206 0 CURVE"
);
}
);
width = 383;
}
);
unicode = 0066;
},
{
glyphname = f_joint;
layers = (
{
layerId = "CA5CD7F6-F0E6-40F5-9716-481B35A0BC32";
paths = (
{
closed = 1;
nodes = (
"162 0 LINE",
"162 0 OFFCURVE",
"142 1 OFFCURVE",
"142 60 CURVE",
"142.182 428.002 LINE",
"375 428.002 LINE",
"375 466.002 OFFCURVE",
"375 468.002 OFFCURVE",
"375 468.002 CURVE",
"163 468.002 LINE",
"131.797 468.002 OFFCURVE",
"131.794 469.002 OFFCURVE",
"131.794 498.002 CURVE",
"131.794 560.002 LINE",
"131.794 639.669 OFFCURVE",
"163.548 679.002 OFFCURVE",
"243 679.002 CURVE",
"364 679.002 OFFCURVE",
"413 610.002 OFFCURVE",
"413 610.002 CURVE",
"413 650.002 LINE",
"413 650.002 OFFCURVE",
"363 720.002 OFFCURVE",
"250.206 720.002 CURVE",
"143.872 720.002 OFFCURVE",
"80 676.002 OFFCURVE",
"80 571.002 CURVE",
"80 519.336 OFFCURVE",
"97 476.002 OFFCURVE",
"100.625 470.002 CURVE",
"100 468.002 LINE",
"0 468.002 LINE",
"0 433.002 OFFCURVE",
"0 428.002 OFFCURVE",
"0 428.002 CURVE",
"90.206 428.002 LINE",
"90.206 60 LINE",
"90.206 1 OFFCURVE",
"70.206 0 OFFCURVE",
"70.206 0 CURVE"
);
}
);
width = 283;
},
{
layerId = "083550D2-F2E8-44E3-BE3D-E8BDF41EDFC4";
paths = (
{
closed = 1;
nodes = (
"212.206 0 LINE",
"212.206 0 OFFCURVE",
"192.206 1 OFFCURVE",
"192.206 60 CURVE",
"192.387 398.002 LINE",
"375 398.002 LINE",
"375 436.002 OFFCURVE",
"375 468.002 OFFCURVE",
"375 468.002 CURVE",
"213.206 468.002 LINE",
"182.003 468.002 OFFCURVE",
"182 469.002 OFFCURVE",
"182 498.002 CURVE",
"182 560.002 LINE",
"182 629.002 OFFCURVE",
"207 649.002 OFFCURVE",
"263 649.002 CURVE",
"362 649.002 OFFCURVE",
"413 580.002 OFFCURVE",
"413 580.002 CURVE",
"413.206 650.002 LINE",
"413.206 650.002 OFFCURVE",
"349 720.002 OFFCURVE",
"250.206 720.002 CURVE",
"143.872 720.002 OFFCURVE",
"80 676.002 OFFCURVE",
"80 571.002 CURVE",
"80 519.336 OFFCURVE",
"97 476.002 OFFCURVE",
"100.625 470.002 CURVE",
"100 468.002 LINE",
"0 468.002 LINE",
"0 433.002 OFFCURVE",
"0 398.002 OFFCURVE",
"0 398.002 CURVE",
"90.206 398.002 LINE",
"90.206 60 LINE",
"90.206 1 OFFCURVE",
"70.206 0 OFFCURVE",
"70.206 0 CURVE"
);
}
);
width = 283;
},
{
layerId = "1A280FA7-9E72-4FC3-84C1-49B7BD56B269";
paths = (
{
closed = 1;
nodes = (
"254.206 0 LINE",
"254.206 0 OFFCURVE",
"234.206 1 OFFCURVE",
"234.206 60 CURVE",
"234.387 368.002 LINE",
"375 368.002 LINE",
"375 406.002 OFFCURVE",
"375 468.002 OFFCURVE",
"375 468.002 CURVE",
"255.206 468.002 LINE",
"224.003 468.002 OFFCURVE",
"224 469.002 OFFCURVE",
"224 498.002 CURVE",
"224 560.002 LINE",
"224 598.323 OFFCURVE",
"240.333 619.002 OFFCURVE",
"283 619.002 CURVE",
"369 619.002 OFFCURVE",
"435 520.002 OFFCURVE",
"435 520.002 CURVE",
"435 650.002 LINE",
"435 650.002 OFFCURVE",
"378 720.002 OFFCURVE",
"250.206 720.002 CURVE",
"143.872 720.002 OFFCURVE",
"80 676.002 OFFCURVE",
"80 571.002 CURVE",
"80 519.336 OFFCURVE",
"97 476.002 OFFCURVE",
"100.625 470.002 CURVE",
"100 468.002 LINE",
"0 468.002 LINE",
"0 433.002 OFFCURVE",
"0 368.002 OFFCURVE",
"0 368.002 CURVE",
"90.206 368.002 LINE",
"90.206 60 LINE",
"90.206 1 OFFCURVE",
"70.206 0 OFFCURVE",
"70.206 0 CURVE"
);
}
);
width = 305;
}
);
leftMetricsKey = f;
},
{
color = 1;
glyphname = g;
layers = (
{
anchors = (
{
name = bottom;
position = "{308, 0}";
},
{
name = top;
position = "{308, 468}";
}
);
layerId = "083550D2-F2E8-44E3-BE3D-E8BDF41EDFC4";
paths = (
{
closed = 1;
nodes = (
"466 -244 OFFCURVE",
"546 -170 OFFCURVE",
"546 23 CURVE",
"546 406 LINE",
"546 466 OFFCURVE",
"566 468 OFFCURVE",
"566 468 CURVE",
"444 468 LINE",
"444 441 LINE",
"446 422 LINE",
"444 421 LINE",
"413 454 OFFCURVE",
"361 478 OFFCURVE",
"281 478 CURVE",
"90 478 OFFCURVE",
"40 372 OFFCURVE",
"40 233 CURVE",
"40 94 OFFCURVE",
"91 -10 OFFCURVE",
"281 -10 CURVE",
"361 -10 OFFCURVE",
"417 21 OFFCURVE",
"444 55 CURVE",
"446 53 LINE",
"444 35 LINE",
"444 -2 LINE",
"444 -103 OFFCURVE",
"424 -174 OFFCURVE",
"291 -174 CURVE",
"134 -174 OFFCURVE",
"70 -75 OFFCURVE",
"70 -75 CURVE",
"70 -104 LINE",
"50 -194 LINE",
"50 -194 OFFCURVE",
"136 -244 OFFCURVE",
"295 -244 CURVE"
);
},
{
closed = 1;
nodes = (
"175 61 OFFCURVE",
"141 125 OFFCURVE",
"141 232 CURVE",
"141 339 OFFCURVE",
"176 408 OFFCURVE",
"288 408 CURVE",
"411 408 OFFCURVE",
"444 343 OFFCURVE",
"444 233 CURVE",
"444 120 OFFCURVE",
"412 61 OFFCURVE",
"288 61 CURVE"
);
}
);
width = 616;
},
{
anchors = (
{
name = bottom;
position = "{308, -240}";
},
{
name = top;
position = "{308, 468}";
}
);
layerId = "1A280FA7-9E72-4FC3-84C1-49B7BD56B269";
paths = (
{
closed = 1;
nodes = (
"466 -244 OFFCURVE",
"546 -170 OFFCURVE",
"546 23 CURVE",
"546 406 LINE",
"546 466 OFFCURVE",
"566 468 OFFCURVE",
"566 468 CURVE",
"404 468 LINE",
"404 462 LINE",
"406 443 LINE",
"404 442 LINE",
"374 467 OFFCURVE",
"317 478 OFFCURVE",
"261 478 CURVE",
"97 478 OFFCURVE",
"40 372 OFFCURVE",
"40 233 CURVE",
"40 94 OFFCURVE",
"98 -10 OFFCURVE",
"261 -10 CURVE",
"315 -10 OFFCURVE",
"376 4 OFFCURVE",
"404 34 CURVE",
"406 32 LINE",
"404 14 LINE",
"404 -2 LINE",
"404 -97 OFFCURVE",
"365 -144 OFFCURVE",
"291 -144 CURVE",
"134 -144 OFFCURVE",
"70 -15 OFFCURVE",
"70 -15 CURVE",
"70 -44 LINE",
"50 -194 LINE",
"50 -194 OFFCURVE",
"136 -244 OFFCURVE",
"295 -244 CURVE"
);
},
{
closed = 1;
nodes = (
"220 91 OFFCURVE",
"181 125 OFFCURVE",
"181 232 CURVE",
"181 339 OFFCURVE",
"221 378 OFFCURVE",
"288 378 CURVE",
"357 378 OFFCURVE",
"404 343 OFFCURVE",
"404 233 CURVE",
"404 120 OFFCURVE",
"358 91 OFFCURVE",
"288 91 CURVE"
);
}
);
width = 616;
},
{
associatedMasterId = "083550D2-F2E8-44E3-BE3D-E8BDF41EDFC4";
layerId = "0AAF2CB4-2EBD-42C4-BAB4-4CEC92C737FB";
width = 600;
},
{
anchors = (
{
name = bottom;
position = "{308, 0}";
},
{
name = top;
position = "{308, 468}";
}
);
layerId = "CA5CD7F6-F0E6-40F5-9716-481B35A0BC32";
paths = (
{
closed = 1;
nodes = (
"471 -244 OFFCURVE",
"546 -160 OFFCURVE",
"546 -7 CURVE",
"546 406 LINE",
"546 466 OFFCURVE",
"566 468 OFFCURVE",
"566 468 CURVE",
"494 468 LINE",
"494 409 LINE",
"496 390 LINE",
"494 389 LINE",
"476 414 OFFCURVE",
"417 478 OFFCURVE",
"281 478 CURVE",
"101 478 OFFCURVE",
"40 372 OFFCURVE",
"40 233 CURVE",
"40 94 OFFCURVE",
"91 -10 OFFCURVE",
"281 -10 CURVE",
"418 -10 OFFCURVE",
"471 50 OFFCURVE",
"494 86 CURVE",
"496 84 LINE",
"494 66 LINE",
"494 8 LINE",
"494 -130 OFFCURVE",
"443 -204 OFFCURVE",
"291 -204 CURVE",
"134 -204 OFFCURVE",
"60 -120 OFFCURVE",
"60 -120 CURVE",
"60 -129 LINE",
"50 -184 LINE",
"74 -201 OFFCURVE",
"141 -244 OFFCURVE",
"295 -244 CURVE"
);
},
{
closed = 1;
nodes = (
"135 30 OFFCURVE",
"91 114 OFFCURVE",
"91 232 CURVE",
"91 355 OFFCURVE",
"136 438 OFFCURVE",
"288 438 CURVE",
"430 438 OFFCURVE",
"494 351 OFFCURVE",
"494 233 CURVE",
"494 110 OFFCURVE",
"423 30 OFFCURVE",
"288 30 CURVE"
);
}
);
width = 616;
},
{
associatedMasterId = "CA5CD7F6-F0E6-40F5-9716-481B35A0BC32";
layerId = "F23DAC85-E1F4-41E5-A1F6-3C6652F1C9C3";
width = 600;
}
);
leftMetricsKey = o;
unicode = 0067;
},
{
color = 1;
glyphname = h;
layers = (
{
anchors = (
{
name = bottom;
position = "{298, 0}";
},
{
name = center;
position = "{158, 564}";
},
{
name = top;
position = "{118, 668}";
}
);
layerId = "083550D2-F2E8-44E3-BE3D-E8BDF41EDFC4";
paths = (
{
closed = 1;
nodes = (
"188 0 LINE",
"188 0 OFFCURVE",
"168 1 OFFCURVE",
"168 60 CURVE",
"168 247 LINE",
"168 364 OFFCURVE",
"244 408 OFFCURVE",
"319 408 CURVE",
"388 408 OFFCURVE",
"437 374 OFFCURVE",
"437 256 CURVE",
"437 251 OFFCURVE",
"437 119 OFFCURVE",
"437 60 CURVE",
"437 1 OFFCURVE",
"417 0 OFFCURVE",
"417 0 CURVE",
"559 0 LINE",
"559 0 OFFCURVE",
"539 1 OFFCURVE",
"539 60 CURVE",
"539 119 OFFCURVE",
"539 259 OFFCURVE",
"539 259 CURVE",
"539 410 OFFCURVE",
"471 478 OFFCURVE",
"347 478 CURVE",
"252 478 OFFCURVE",
"197 439 OFFCURVE",
"168 402 CURVE",
"166 404 LINE",
"168 417 LINE",
"168 690 LINE",
"168 690 OFFCURVE",
"126 690 OFFCURVE",
"46 690 CURVE",
"46 690 OFFCURVE",
"66 688 OFFCURVE",
"66 630 CURVE",
"66 60 LINE",
"66 1 OFFCURVE",
"46 0 OFFCURVE",
"46 0 CURVE"
);
}
);
width = 599;
},
{
anchors = (
{
name = bottom;
position = "{298, 0}";
},
{
name = center;
position = "{158, 564}";
},
{
name = top;
position = "{128, 668}";
}
);
layerId = "1A280FA7-9E72-4FC3-84C1-49B7BD56B269";
paths = (
{
closed = 1;
nodes = (
"228 0 LINE",
"228 0 OFFCURVE",
"208 1 OFFCURVE",
"208 60 CURVE",
"208 247 LINE",
"208 340 OFFCURVE",
"262 378 OFFCURVE",
"319 378 CURVE",
"364 378 OFFCURVE",
"397 350 OFFCURVE",
"397 256 CURVE",
"397 251 OFFCURVE",
"397 119 OFFCURVE",
"397 60 CURVE",
"397 1 OFFCURVE",
"377 0 OFFCURVE",
"377 0 CURVE",
"559 0 LINE",
"559 0 OFFCURVE",
"539 1 OFFCURVE",
"539 60 CURVE",
"539 119 OFFCURVE",
"539 259 OFFCURVE",
"539 259 CURVE",
"539 410 OFFCURVE",
"471 478 OFFCURVE",
"347 478 CURVE",
"259 478 OFFCURVE",
"213 415 OFFCURVE",
"208 402 CURVE",
"206 404 LINE",
"208 417 LINE",
"208 690 LINE",
"208 690 OFFCURVE",
"126 690 OFFCURVE",
"46 690 CURVE",
"46 690 OFFCURVE",
"66 688 OFFCURVE",
"66 630 CURVE",
"66 60 LINE",
"66 1 OFFCURVE",
"46 0 OFFCURVE",
"46 0 CURVE"
);
}
);
width = 599;
},
{
anchors = (
{
name = bottom;
position = "{298, 0}";
},
{
name = center;
position = "{158, 564}";
},
{
name = top;
position = "{98, 668}";
}
);
layerId = "CA5CD7F6-F0E6-40F5-9716-481B35A0BC32";
paths = (
{
closed = 1;
nodes = (
"138 0 LINE",
"138 0 OFFCURVE",
"118 1 OFFCURVE",
"118 60 CURVE",
"118 227 LINE",
"118 352 OFFCURVE",
"206 438 OFFCURVE",
"319 438 CURVE",
"423 438 OFFCURVE",
"487 395 OFFCURVE",
"487 256 CURVE",
"487 251 OFFCURVE",
"487 119 OFFCURVE",
"487 60 CURVE",
"487 1 OFFCURVE",
"467 0 OFFCURVE",
"467 0 CURVE",
"559 0 LINE",
"559 0 OFFCURVE",
"539 1 OFFCURVE",
"539 60 CURVE",
"539 119 OFFCURVE",
"539 259 OFFCURVE",
"539 259 CURVE",
"539 412 OFFCURVE",
"464 478 OFFCURVE",
"337 478 CURVE",
"214 478 OFFCURVE",
"146 418 OFFCURVE",
"118 371 CURVE",
"116 373 LINE",
"118 386 LINE",
"118 690 LINE",
"118 690 OFFCURVE",
"126 690 OFFCURVE",
"46 690 CURVE",
"46 690 OFFCURVE",
"66 688 OFFCURVE",
"66 630 CURVE",
"66 60 LINE",
"66 1 OFFCURVE",
"46 0 OFFCURVE",
"46 0 CURVE"
);
}
);
width = 599;
}
);
leftMetricsKey = n;
rightMetricsKey = n;
unicode = 0068;
},
{
color = 1;
glyphname = i;
layers = (
{
anchors = (
{
name = bottom;
position = "{117, 0}";
}
);
layerId = "083550D2-F2E8-44E3-BE3D-E8BDF41EDFC4";
paths = (
{
closed = 1;
nodes = (
"188 0 LINE",
"188 0 OFFCURVE",
"168 1 OFFCURVE",
"168 60 CURVE",
"168 60 OFFCURVE",
"168 347 OFFCURVE",
"168 407 CURVE",
"168 467 OFFCURVE",
"168 468 OFFCURVE",
"168 468 CURVE",
"46 468 LINE",
"46 468 OFFCURVE",
"66 466 OFFCURVE",
"66 408 CURVE",
"66 60 LINE",
"66 1 OFFCURVE",
"46 0 OFFCURVE",
"46 0 CURVE"
);
},
{
closed = 1;
nodes = (
"146 564 OFFCURVE",
"168 589 OFFCURVE",
"168 619 CURVE",
"168 649 OFFCURVE",
"147 674 OFFCURVE",
"107 674 CURVE",
"67 674 OFFCURVE",
"46 649 OFFCURVE",
"46 619 CURVE",
"46 589 OFFCURVE",
"68 564 OFFCURVE",
"107 564 CURVE"
);
}
);
width = 228;
},
{
anchors = (
{
name = bottom;
position = "{137, 0}";
}
);
layerId = "1A280FA7-9E72-4FC3-84C1-49B7BD56B269";
paths = (
{
closed = 1;
nodes = (
"46 0 OFFCURVE",
"229 0 OFFCURVE",
"229 0 CURVE",
"229 0 OFFCURVE",
"209 1 OFFCURVE",
"209 60 CURVE",
"209 468 LINE",
"209 468 OFFCURVE",
"47 468 OFFCURVE",
"47 468 CURVE",
"47 468 OFFCURVE",
"67 467 OFFCURVE",
"67 408 CURVE",
"67 60 LINE",
"67 1 OFFCURVE",
"46 0 OFFCURVE",
"46 0 CURVE"
);
},
{
closed = 1;
nodes = (
"177 544 OFFCURVE",
"208 572 OFFCURVE",
"208 619 CURVE",
"208 666 OFFCURVE",
"178 694 OFFCURVE",
"127 694 CURVE",
"76 694 OFFCURVE",
"46 666 OFFCURVE",
"46 619 CURVE",
"46 572 OFFCURVE",
"77 544 OFFCURVE",
"127 544 CURVE"
);
}
);
width = 279;
},
{
anchors = (
{
name = bottom;
position = "{117, 0}";
}
);
layerId = "CA5CD7F6-F0E6-40F5-9716-481B35A0BC32";
paths = (
{
closed = 1;
nodes = (
"138 0 LINE",
"138 0 OFFCURVE",
"118 1 OFFCURVE",
"118 60 CURVE",
"118 468 LINE",
"46 468 LINE",
"46 468 OFFCURVE",
"66 466 OFFCURVE",
"66 408 CURVE",
"66 60 LINE",
"66 1 OFFCURVE",
"46 0 OFFCURVE",
"46 0 CURVE"
);
},
{
closed = 1;
nodes = (
"119 579 OFFCURVE",
"135 597 OFFCURVE",
"135 619 CURVE",
"135 641 OFFCURVE",
"119 659 OFFCURVE",
"90 659 CURVE",
"61 659 OFFCURVE",
"46 641 OFFCURVE",
"46 619 CURVE",
"46 597 OFFCURVE",
"62 579 OFFCURVE",
"90 579 CURVE"
);
}
);
width = 188;
}
);
leftMetricsKey = n;
unicode = 0069;
},
{
color = 1;
glyphname = idotless;
layers = (
{
anchors = (
{
name = bottom;
position = "{117, 0}";
},
{
name = ogonek;
position = "{153, 10}";
},
{
name = top;
position = "{117, 468}";
}
);
layerId = "083550D2-F2E8-44E3-BE3D-E8BDF41EDFC4";
paths = (
{
closed = 1;
nodes = (
"188 0 LINE",
"188 0 OFFCURVE",
"168 1 OFFCURVE",
"168 60 CURVE",
"168 60 OFFCURVE",
"168 347 OFFCURVE",
"168 407 CURVE",
"168 467 OFFCURVE",
"168 468 OFFCURVE",
"168 468 CURVE",
"46 468 LINE",
"46 468 OFFCURVE",
"66 466 OFFCURVE",
"66 408 CURVE",
"66 60 LINE",
"66 1 OFFCURVE",
"46 0 OFFCURVE",
"46 0 CURVE"
);
}
);
width = 228;
},
{
anchors = (
{
name = bottom;
position = "{129, 0}";
},
{
name = ogonek;
position = "{153, 10}";
},
{
name = top;
position = "{129, 468}";
}
);
layerId = "1A280FA7-9E72-4FC3-84C1-49B7BD56B269";
paths = (
{
closed = 1;
nodes = (
"46 0 OFFCURVE",
"229 0 OFFCURVE",
"229 0 CURVE",
"229 0 OFFCURVE",
"209 1 OFFCURVE",
"209 60 CURVE",
"209 468 LINE",
"209 468 OFFCURVE",
"47 468 OFFCURVE",
"47 468 CURVE",
"47 468 OFFCURVE",
"67 467 OFFCURVE",
"67 408 CURVE",
"67 60 LINE",
"67 1 OFFCURVE",
"46 0 OFFCURVE",
"46 0 CURVE"
);
}
);
width = 279;
},
{
associatedMasterId = "083550D2-F2E8-44E3-BE3D-E8BDF41EDFC4";
layerId = "0AAF2CB4-2EBD-42C4-BAB4-4CEC92C737FB";
width = 600;
},
{
anchors = (
{
name = bottom;
position = "{97, 0}";
},
{
name = ogonek;
position = "{154, 10}";
},
{
name = top;
position = "{97, 468}";
}
);
layerId = "CA5CD7F6-F0E6-40F5-9716-481B35A0BC32";
paths = (
{
closed = 1;
nodes = (
"148 0 LINE SMOOTH",
"148 0 OFFCURVE",
"128 1 OFFCURVE",
"128 60 CURVE SMOOTH",
"128 468 LINE",
"46 468 LINE SMOOTH",
"46 468 OFFCURVE",
"66 466 OFFCURVE",
"66 408 CURVE SMOOTH",
"66 60 LINE SMOOTH",
"66 1 OFFCURVE",
"46 0 OFFCURVE",
"46 0 CURVE SMOOTH"
);
}
);
width = 198;
},
{
associatedMasterId = "CA5CD7F6-F0E6-40F5-9716-481B35A0BC32";
layerId = "6049CB65-5985-4A62-816F-7B890CDB5E0C";
width = 600;
}
);
leftMetricsKey = i;
rightMetricsKey = i;
unicode = 0131;
},
{
color = 1;
glyphname = j;
layers = (
{
layerId = "083550D2-F2E8-44E3-BE3D-E8BDF41EDFC4";
paths = (
{
closed = 1;
nodes = (
"143 -244 OFFCURVE",
"222 -190 OFFCURVE",
"222 -9 CURVE",
"222 468 LINE",
"100 468 LINE",
"100 468 OFFCURVE",
"120 466 OFFCURVE",
"120 408 CURVE",
"120 -55 LINE",
"120 -138 OFFCURVE",
"110 -175 OFFCURVE",
"62 -175 CURVE",
"4 -175 OFFCURVE",
"-30 -124 OFFCURVE",
"-30 -124 CURVE",
"-30 -154 LINE",
"-50 -224 LINE",
"-50 -224 OFFCURVE",
"-20 -244 OFFCURVE",
"60 -244 CURVE"
);
},
{
closed = 1;
nodes = (
"200 564 OFFCURVE",
"222 589 OFFCURVE",
"222 619 CURVE",
"222 649 OFFCURVE",
"201 674 OFFCURVE",
"161 674 CURVE",
"121 674 OFFCURVE",
"100 649 OFFCURVE",
"100 619 CURVE",
"100 589 OFFCURVE",
"122 564 OFFCURVE",
"161 564 CURVE"
);
}
);
width = 292;
},
{
layerId = "1A280FA7-9E72-4FC3-84C1-49B7BD56B269";
paths = (
{
closed = 1;
nodes = (
"199 -244 OFFCURVE",
"263 -189 OFFCURVE",
"263 -11 CURVE",
"263 468 LINE",
"101 468 LINE",
"101 468 OFFCURVE",
"121 467 OFFCURVE",
"121 408 CURVE",
"121 -11 LINE",
"121 -103 OFFCURVE",
"105 -145 OFFCURVE",
"62 -145 CURVE",
"-2 -145 OFFCURVE",
"-30 -84 OFFCURVE",
"-30 -84 CURVE",
"-30 -114 LINE",
"-50 -224 LINE",
"-50 -224 OFFCURVE",
"-17 -244 OFFCURVE",
"60 -244 CURVE"
);
},
{
closed = 1;
nodes = (
"263 468 LINE"
);
},
{
closed = 1;
nodes = (
"231 544 OFFCURVE",
"262 572 OFFCURVE",
"262 619 CURVE",
"262 666 OFFCURVE",
"232 694 OFFCURVE",
"181 694 CURVE",
"130 694 OFFCURVE",
"100 666 OFFCURVE",
"100 619 CURVE",
"100 572 OFFCURVE",
"131 544 OFFCURVE",
"181 544 CURVE"
);
}
);
width = 333;
},
{
layerId = "CA5CD7F6-F0E6-40F5-9716-481B35A0BC32";
paths = (
{
closed = 1;
nodes = (
"125 -244 OFFCURVE",
"170 -189 OFFCURVE",
"170 -69 CURVE",
"170 468 LINE",
"100 468 LINE",
"100 468 OFFCURVE",
"120 466 OFFCURVE",
"120 408 CURVE",
"120 -75 LINE",
"120 -163 OFFCURVE",
"95 -205 OFFCURVE",
"42 -205 CURVE",
"-11 -205 OFFCURVE",
"-40 -164 OFFCURVE",
"-40 -164 CURVE",
"-40 -174 LINE",
"-50 -224 LINE",
"-50 -224 OFFCURVE",
"-32 -244 OFFCURVE",
"40 -244 CURVE"
);
},
{
closed = 1;
nodes = (
"173 579 OFFCURVE",
"189 597 OFFCURVE",
"189 619 CURVE",
"189 641 OFFCURVE",
"173 659 OFFCURVE",
"144 659 CURVE",
"115 659 OFFCURVE",
"100 641 OFFCURVE",
"100 619 CURVE",
"100 597 OFFCURVE",
"116 579 OFFCURVE",
"144 579 CURVE"
);
}
);
width = 259;
}
);
unicode = 006A;
},
{
color = 1;
glyphname = jdotless;
layers = (
{
anchors = (
{
name = bottom;
position = "{136, 0}";
},
{
name = top;
position = "{166, 468}";
}
);
layerId = "083550D2-F2E8-44E3-BE3D-E8BDF41EDFC4";
paths = (
{
closed = 1;
nodes = (
"181 -244 OFFCURVE",
"222 -144 OFFCURVE",
"222 -9 CURVE",
"222 -9 OFFCURVE",
"222 347 OFFCURVE",
"222 407 CURVE",
"222 467 OFFCURVE",
"222 468 OFFCURVE",
"222 468 CURVE",
"100 468 LINE",
"100 468 OFFCURVE",
"120 466 OFFCURVE",
"120 408 CURVE",
"120 -55 LINE",
"120 -138 OFFCURVE",
"107 -185 OFFCURVE",
"62 -185 CURVE",
"1 -185 OFFCURVE",
"-30 -124 OFFCURVE",
"-30 -124 CURVE",
"-30 -154 LINE",
"-50 -224 LINE",
"-50 -224 OFFCURVE",
"-20 -244 OFFCURVE",
"60 -244 CURVE"
);
}
);
width = 292;
},
{
anchors = (
{
name = bottom;
position = "{106, 0}";
},
{
name = top;
position = "{186, 468}";
}
);
layerId = "1A280FA7-9E72-4FC3-84C1-49B7BD56B269";
paths = (
{
closed = 1;
nodes = (
"199 -244 OFFCURVE",
"263 -189 OFFCURVE",
"263 -11 CURVE",
"263 468 LINE",
"101 468 LINE",
"101 468 OFFCURVE",
"121 467 OFFCURVE",
"121 408 CURVE",
"121 -11 LINE",
"121 -70 OFFCURVE",
"126 -145 OFFCURVE",
"62 -145 CURVE",
"-2 -145 OFFCURVE",
"-30 -84 OFFCURVE",
"-30 -84 CURVE",
"-30 -114 LINE",
"-50 -224 LINE",
"-50 -224 OFFCURVE",
"-17 -244 OFFCURVE",
"60 -244 CURVE"
);
},
{
closed = 1;
nodes = (
"263 468 LINE"
);
}
);
width = 333;
},
{
anchors = (
{
name = bottom;
position = "{136, 0}";
},
{
name = top;
position = "{146, 468}";
}
);
layerId = "CA5CD7F6-F0E6-40F5-9716-481B35A0BC32";
paths = (
{
closed = 1;
nodes = (
"123 -244 OFFCURVE",
"180 -192 OFFCURVE",
"180 -59 CURVE SMOOTH",
"180 468 LINE",
"100 468 LINE SMOOTH",
"100 468 OFFCURVE",
"120 466 OFFCURVE",
"120 408 CURVE SMOOTH",
"120 -95 LINE SMOOTH",
"120 -173 OFFCURVE",
"93 -205 OFFCURVE",
"42 -205 CURVE SMOOTH",
"-11 -205 OFFCURVE",
"-40 -164 OFFCURVE",
"-40 -164 CURVE SMOOTH",
"-40 -194 LINE",
"-50 -224 LINE SMOOTH",
"-50 -224 OFFCURVE",
"-32 -244 OFFCURVE",
"40 -244 CURVE SMOOTH"
);
}
);
width = 250;
}
);
leftMetricsKey = j;
rightMetricsKey = j;
unicode = 0237;
},
{
color = 1;
glyphname = k;
layers = (
{
anchors = (
{
name = bottom;
position = "{283, 0}";
},
{
name = top;
position = "{273, 468}";
}
);
layerId = "083550D2-F2E8-44E3-BE3D-E8BDF41EDFC4";
paths = (
{
closed = 1;
nodes = (
"188 0 LINE",
"188 0 OFFCURVE",
"168 1 OFFCURVE",
"168 60 CURVE",
"168 169 LINE",
"168 199 OFFCURVE",
"168 199 OFFCURVE",
"209 199 CURVE",
"293 199 OFFCURVE",
"348 140 OFFCURVE",
"383 70 CURVE",
"417 2 OFFCURVE",
"399 0 OFFCURVE",
"399 0 CURVE",
"561 0 LINE",
"561 0 OFFCURVE",
"540 1 OFFCURVE",
"503 60 CURVE",
"463 124 OFFCURVE",
"433 165 OFFCURVE",
"392 196 CURVE",
"362 218 OFFCURVE",
"335 232 OFFCURVE",
"305 242 CURVE",
"385 275 OFFCURVE",
"414 323 OFFCURVE",
"460 407 CURVE",
"493 467 OFFCURVE",
"511 468 OFFCURVE",
"511 468 CURVE",
"348 468 LINE",
"348 468 OFFCURVE",
"362 467 OFFCURVE",
"348 407 CURVE",
"325 311 OFFCURVE",
"270 270 OFFCURVE",
"209 270 CURVE",
"169 270 OFFCURVE",
"168 271 OFFCURVE",
"168 301 CURVE SMOOTH",
"168 629 LINE SMOOTH",
"168 689 OFFCURVE",
"168 690 OFFCURVE",
"168 690 CURVE",
"46 690 LINE",
"46 690 OFFCURVE",
"66 688 OFFCURVE",
"66 630 CURVE",
"66 60 LINE",
"66 1 OFFCURVE",
"46 0 OFFCURVE",
"46 0 CURVE"
);
}
);
width = 561;
},
{
anchors = (
{
name = bottom;
position = "{303, 0}";
},
{
name = top;
position = "{273, 468}";
}
);
layerId = "1A280FA7-9E72-4FC3-84C1-49B7BD56B269";
paths = (
{
closed = 1;
nodes = (
"228 0 LINE",
"228 0 OFFCURVE",
"208 1 OFFCURVE",
"208 60 CURVE",
"208 159 LINE",
"208 189 OFFCURVE",
"208 189 OFFCURVE",
"229 189 CURVE",
"283 189 OFFCURVE",
"345 145 OFFCURVE",
"383 70 CURVE",
"417 2 OFFCURVE",
"399 0 OFFCURVE",
"399 0 CURVE",
"601 0 LINE",
"601 0 OFFCURVE",
"580 1 OFFCURVE",
"543 60 CURVE",
"503 124 OFFCURVE",
"458 202 OFFCURVE",
"365 242 CURVE",
"418 269 OFFCURVE",
"459 324 OFFCURVE",
"500 407 CURVE",
"530 468 OFFCURVE",
"551 468 OFFCURVE",
"551 468 CURVE",
"348 468 LINE",
"348 468 OFFCURVE",
"361 467 OFFCURVE",
"348 407 CURVE",
"331 328 OFFCURVE",
"274 281 OFFCURVE",
"229 281 CURVE",
"209 281 OFFCURVE",
"208 282 OFFCURVE",
"208 312 CURVE SMOOTH",
"208 629 LINE SMOOTH",
"208 689 OFFCURVE",
"208 690 OFFCURVE",
"208 690 CURVE",
"46 690 LINE",
"46 690 OFFCURVE",
"66 688 OFFCURVE",
"66 630 CURVE",
"66 60 LINE",
"66 1 OFFCURVE",
"46 0 OFFCURVE",
"46 0 CURVE"
);
}
);
width = 611;
},
{
associatedMasterId = "083550D2-F2E8-44E3-BE3D-E8BDF41EDFC4";
layerId = "0AAF2CB4-2EBD-42C4-BAB4-4CEC92C737FB";
width = 600;
},
{
anchors = (
{
name = bottom;
position = "{263, 0}";
},
{
name = top;
position = "{243, 468}";
}
);
layerId = "CA5CD7F6-F0E6-40F5-9716-481B35A0BC32";
paths = (
{
closed = 1;
nodes = (
"138 0 LINE",
"138 0 OFFCURVE",
"118 1 OFFCURVE",
"118 60 CURVE",
"118 178 LINE",
"118 208 OFFCURVE",
"118 219 OFFCURVE",
"159 219 CURVE",
"294 219 OFFCURVE",
"370 140 OFFCURVE",
"405 70 CURVE",
"439 2 OFFCURVE",
"421 0 OFFCURVE",
"421 0 CURVE",
"531 0 LINE",
"531 0 OFFCURVE",
"510 1 OFFCURVE",
"473 60 CURVE",
"433 124 OFFCURVE",
"404 161 OFFCURVE",
"363 192 CURVE",
"333 214 OFFCURVE",
"287 235 OFFCURVE",
"249 242 CURVE",
"327 260 OFFCURVE",
"383 317 OFFCURVE",
"430 407 CURVE",
"461 467 OFFCURVE",
"471 468 OFFCURVE",
"471 468 CURVE",
"370 468 LINE",
"370 468 OFFCURVE",
"387 466 OFFCURVE",
"367 408 CURVE",
"336 316 OFFCURVE",
"255 259 OFFCURVE",
"159 259 CURVE",
"119 259 OFFCURVE",
"118 260 OFFCURVE",
"118 290 CURVE",
"118 320 OFFCURVE",
"118 690 OFFCURVE",
"118 690 CURVE",
"46 690 LINE",
"46 690 OFFCURVE",
"66 688 OFFCURVE",
"66 630 CURVE",
"66 60 LINE",
"66 1 OFFCURVE",
"46 0 OFFCURVE",
"46 0 CURVE"
);
}
);
width = 521;
},
{
associatedMasterId = "CA5CD7F6-F0E6-40F5-9716-481B35A0BC32";
layerId = "59A0F7F5-84ED-4FEA-B653-20FBFCEEBA9F";
width = 600;
}
);
leftMetricsKey = n;
unicode = 006B;
},
{
color = 1;
glyphname = kgreenlandic;
layers = (
{
layerId = "083550D2-F2E8-44E3-BE3D-E8BDF41EDFC4";
paths = (
{
closed = 1;
nodes = (
"188 0 LINE",
"188 0 OFFCURVE",
"168 1 OFFCURVE",
"168 60 CURVE",
"168 60 OFFCURVE",
"168 139 OFFCURVE",
"168 169 CURVE",
"168 199 OFFCURVE",
"168 199 OFFCURVE",
"209 199 CURVE",
"293 199 OFFCURVE",
"348 140 OFFCURVE",
"383 70 CURVE",
"417 2 OFFCURVE",
"399 0 OFFCURVE",
"399 0 CURVE",
"561 0 LINE",
"561 0 OFFCURVE",
"540 1 OFFCURVE",
"503 60 CURVE",
"463 124 OFFCURVE",
"433 165 OFFCURVE",
"392 196 CURVE",
"362 218 OFFCURVE",
"335 232 OFFCURVE",
"305 242 CURVE",
"385 275 OFFCURVE",
"414 323 OFFCURVE",
"460 407 CURVE",
"493 467 OFFCURVE",
"511 468 OFFCURVE",
"511 468 CURVE",
"348 468 LINE",
"348 468 OFFCURVE",
"362 467 OFFCURVE",
"348 407 CURVE",
"325 311 OFFCURVE",
"270 270 OFFCURVE",
"209 270 CURVE",
"169 270 OFFCURVE",
"168 271 OFFCURVE",
"168 301 CURVE SMOOTH",
"168 407 LINE SMOOTH",
"168 467 OFFCURVE",
"168 468 OFFCURVE",
"168 468 CURVE",
"46 468 LINE",
"46 468 OFFCURVE",
"66 466 OFFCURVE",
"66 408 CURVE",
"66 60 LINE",
"66 1 OFFCURVE",
"46 0 OFFCURVE",
"46 0 CURVE"
);
}
);
width = 561;
},
{
layerId = "1A280FA7-9E72-4FC3-84C1-49B7BD56B269";
paths = (
{
closed = 1;
nodes = (
"228 0 LINE",
"228 0 OFFCURVE",
"208 1 OFFCURVE",
"208 60 CURVE",
"208 60 OFFCURVE",
"208 129 OFFCURVE",
"208 159 CURVE",
"208 189 OFFCURVE",
"208 189 OFFCURVE",
"229 189 CURVE",
"283 189 OFFCURVE",
"345 145 OFFCURVE",
"383 70 CURVE",
"417 2 OFFCURVE",
"399 0 OFFCURVE",
"399 0 CURVE",
"601 0 LINE",
"601 0 OFFCURVE",
"580 1 OFFCURVE",
"543 60 CURVE",
"503 124 OFFCURVE",
"458 202 OFFCURVE",
"365 242 CURVE",
"418 269 OFFCURVE",
"459 324 OFFCURVE",
"500 407 CURVE",
"530 468 OFFCURVE",
"551 468 OFFCURVE",
"551 468 CURVE",
"348 468 LINE",
"348 468 OFFCURVE",
"361 467 OFFCURVE",
"348 407 CURVE",
"331 328 OFFCURVE",
"274 281 OFFCURVE",
"229 281 CURVE",
"209 281 OFFCURVE",
"208 282 OFFCURVE",
"208 312 CURVE SMOOTH",
"208 407 LINE SMOOTH",
"208 467 OFFCURVE",
"208 468 OFFCURVE",
"208 468 CURVE",
"46 468 LINE",
"46 468 OFFCURVE",
"66 466 OFFCURVE",
"66 408 CURVE",
"66 60 LINE",
"66 1 OFFCURVE",
"46 0 OFFCURVE",
"46 0 CURVE"
);
}
);
width = 611;
},
{
layerId = "CA5CD7F6-F0E6-40F5-9716-481B35A0BC32";
paths = (
{
closed = 1;
nodes = (
"138 0 LINE",
"138 0 OFFCURVE",
"118 1 OFFCURVE",
"118 60 CURVE",
"118 178 LINE",
"118 208 OFFCURVE",
"118 219 OFFCURVE",
"159 219 CURVE",
"294 219 OFFCURVE",
"370 140 OFFCURVE",
"405 70 CURVE",
"439 2 OFFCURVE",
"421 0 OFFCURVE",
"421 0 CURVE",
"531 0 LINE",
"531 0 OFFCURVE",
"510 1 OFFCURVE",
"473 60 CURVE",
"433 124 OFFCURVE",
"404 161 OFFCURVE",
"363 192 CURVE",
"333 214 OFFCURVE",
"287 235 OFFCURVE",
"249 242 CURVE",
"327 260 OFFCURVE",
"383 317 OFFCURVE",
"430 407 CURVE",
"461 467 OFFCURVE",
"471 468 OFFCURVE",
"471 468 CURVE",
"370 468 LINE",
"370 468 OFFCURVE",
"387 466 OFFCURVE",
"367 408 CURVE",
"336 316 OFFCURVE",
"255 259 OFFCURVE",
"159 259 CURVE",
"119 259 OFFCURVE",
"118 260 OFFCURVE",
"118 290 CURVE",
"118 320 OFFCURVE",
"118 469 OFFCURVE",
"118 469 CURVE",
"46 469 LINE",
"46 469 OFFCURVE",
"66 467 OFFCURVE",
"66 409 CURVE",
"66 60 LINE",
"66 1 OFFCURVE",
"46 0 OFFCURVE",
"46 0 CURVE"
);
}
);
width = 521;
}
);
leftMetricsKey = k;
rightMetricsKey = k;
unicode = 0138;
},
{
color = 1;
glyphname = l;
layers = (
{
anchors = (
{
name = bottom;
position = "{121, 0}";
},
{
name = center;
position = "{121, 364}";
},
{
name = top;
position = "{121, 668}";
},
{
name = topright;
position = "{212, 468}";
}
);
layerId = "083550D2-F2E8-44E3-BE3D-E8BDF41EDFC4";
paths = (
{
closed = 1;
nodes = (
"192 0 LINE",
"192 0 OFFCURVE",
"172 1 OFFCURVE",
"172 60 CURVE",
"172 60 OFFCURVE",
"172 589 OFFCURVE",
"172 649 CURVE",
"172 709 OFFCURVE",
"172 710 OFFCURVE",
"172 710 CURVE",
"172 710 OFFCURVE",
"131 690 OFFCURVE",
"50 690 CURVE",
"50 690 OFFCURVE",
"70 688 OFFCURVE",
"70 630 CURVE",
"70 60 LINE",
"70 1 OFFCURVE",
"50 0 OFFCURVE",
"50 0 CURVE"
);
}
);
width = 242;
},
{
anchors = (
{
name = bottom;
position = "{141, 0}";
},
{
name = center;
position = "{141, 364}";
},
{
name = top;
position = "{141, 668}";
},
{
name = topright;
position = "{212, 468}";
}
);
layerId = "1A280FA7-9E72-4FC3-84C1-49B7BD56B269";
paths = (
{
closed = 1;
nodes = (
"50 0 OFFCURVE",
"233 0 OFFCURVE",
"233 0 CURVE SMOOTH",
"233 0 OFFCURVE",
"213 1 OFFCURVE",
"213 60 CURVE SMOOTH",
"213 710 LINE SMOOTH",
"213 710 OFFCURVE",
"172 690 OFFCURVE",
"51 690 CURVE SMOOTH",
"51 690 OFFCURVE",
"71 689 OFFCURVE",
"71 630 CURVE SMOOTH",
"71 60 LINE SMOOTH",
"71 1 OFFCURVE",
"50 0 OFFCURVE",
"50 0 CURVE SMOOTH"
);
}
);
width = 283;
},
{
associatedMasterId = "083550D2-F2E8-44E3-BE3D-E8BDF41EDFC4";
layerId = "0AAF2CB4-2EBD-42C4-BAB4-4CEC92C737FB";
width = 600;
},
{
anchors = (
{
name = bottom;
position = "{101, 0}";
},
{
name = center;
position = "{101, 364}";
},
{
name = top;
position = "{101, 668}";
},
{
name = topright;
position = "{212, 468}";
}
);
layerId = "CA5CD7F6-F0E6-40F5-9716-481B35A0BC32";
paths = (
{
closed = 1;
nodes = (
"142 0 LINE",
"142 0 OFFCURVE",
"122 1 OFFCURVE",
"122 60 CURVE",
"122 710 LINE",
"122 710 OFFCURVE",
"105 690 OFFCURVE",
"50 690 CURVE",
"50 690 OFFCURVE",
"70 688 OFFCURVE",
"70 630 CURVE",
"70 60 LINE",
"70 1 OFFCURVE",
"50 0 OFFCURVE",
"50 0 CURVE"
);
}
);
width = 192;
},
{
associatedMasterId = "CA5CD7F6-F0E6-40F5-9716-481B35A0BC32";
layerId = "1D3E9B48-D6FA-4791-BE16-0E894ABAA3D3";
width = 600;
}
);
unicode = 006C;
},
{
color = 1;
glyphname = m;
layers = (
{
layerId = "083550D2-F2E8-44E3-BE3D-E8BDF41EDFC4";
paths = (
{
closed = 1;
nodes = (
"188 0 LINE",
"188 0 OFFCURVE",
"168 1 OFFCURVE",
"168 60 CURVE",
"168 247 LINE",
"168 364 OFFCURVE",
"224 408 OFFCURVE",
"299 408 CURVE",
"368 408 OFFCURVE",
"417 374 OFFCURVE",
"417 256 CURVE",
"417 251 OFFCURVE",
"417 119 OFFCURVE",
"417 60 CURVE",
"417 1 OFFCURVE",
"397 0 OFFCURVE",
"397 0 CURVE",
"539 0 LINE",
"539 0 OFFCURVE",
"519 1 OFFCURVE",
"519 60 CURVE",
"519 119 OFFCURVE",
"519 259 OFFCURVE",
"519 259 CURVE",
"519 410 OFFCURVE",
"451 478 OFFCURVE",
"327 478 CURVE",
"232 478 OFFCURVE",
"197 439 OFFCURVE",
"168 402 CURVE",
"166 404 LINE",
"168 417 LINE",
"168 478 LINE",
"168 478 OFFCURVE",
"126 458 OFFCURVE",
"46 458 CURVE",
"46 458 OFFCURVE",
"66 456 OFFCURVE",
"66 398 CURVE",
"66 60 LINE",
"66 1 OFFCURVE",
"46 0 OFFCURVE",
"46 0 CURVE"
);
},
{
closed = 1;
nodes = (
"889 0 LINE",
"889 0 OFFCURVE",
"869 1 OFFCURVE",
"869 60 CURVE",
"869 119 OFFCURVE",
"869 259 OFFCURVE",
"869 259 CURVE",
"869 410 OFFCURVE",
"801 478 OFFCURVE",
"677 478 CURVE",
"512 478 OFFCURVE",
"478 348 OFFCURVE",
"478 348 CURVE",
"519 248 LINE",
"519 364 OFFCURVE",
"572 408 OFFCURVE",
"649 408 CURVE",
"718 408 OFFCURVE",
"767 374 OFFCURVE",
"767 256 CURVE",
"767 251 OFFCURVE",
"767 119 OFFCURVE",
"767 60 CURVE",
"767 1 OFFCURVE",
"747 0 OFFCURVE",
"747 0 CURVE"
);
}
);
width = 929;
},
{
layerId = "1A280FA7-9E72-4FC3-84C1-49B7BD56B269";
paths = (
{
closed = 1;
nodes = (
"228 0 LINE",
"228 0 OFFCURVE",
"208 1 OFFCURVE",
"208 60 CURVE",
"208 247 LINE",
"208 340 OFFCURVE",
"262 378 OFFCURVE",
"319 378 CURVE",
"364 378 OFFCURVE",
"397 350 OFFCURVE",
"397 256 CURVE",
"397 251 OFFCURVE",
"397 119 OFFCURVE",
"397 60 CURVE",
"397 1 OFFCURVE",
"377 0 OFFCURVE",
"377 0 CURVE",
"559 0 LINE",
"559 0 OFFCURVE",
"539 1 OFFCURVE",
"539 60 CURVE",
"539 119 OFFCURVE",
"539 259 OFFCURVE",
"539 259 CURVE",
"539 410 OFFCURVE",
"471 478 OFFCURVE",
"347 478 CURVE",
"259 478 OFFCURVE",
"213 415 OFFCURVE",
"208 402 CURVE",
"206 404 LINE",
"208 417 LINE",
"208 478 LINE",
"208 478 OFFCURVE",
"126 458 OFFCURVE",
"46 458 CURVE",
"46 458 OFFCURVE",
"66 456 OFFCURVE",
"66 398 CURVE",
"66 60 LINE",
"66 1 OFFCURVE",
"46 0 OFFCURVE",
"46 0 CURVE"
);
},
{
closed = 1;
nodes = (
"539 237 LINE",
"539 242 OFFCURVE",
"539 246 OFFCURVE",
"539 250 CURVE",
"539 256 OFFCURVE",
"539 259 OFFCURVE",
"539 259 CURVE",
"539 314 OFFCURVE",
"530 358 OFFCURVE",
"513 391 CURVE",
"484 350 OFFCURVE",
"466 293 OFFCURVE",
"466 237 CURVE"
);
},
{
closed = 1;
nodes = (
"889 0 LINE",
"889 0 OFFCURVE",
"869 2 OFFCURVE",
"869 60 CURVE",
"869 249 LINE",
"869 420 OFFCURVE",
"797 478 OFFCURVE",
"677 478 CURVE",
"601 478 OFFCURVE",
"549 439 OFFCURVE",
"518 399 CURVE",
"516 396 OFFCURVE",
"514 394 OFFCURVE",
"513 391 CURVE",
"530 358 OFFCURVE",
"539 314 OFFCURVE",
"539 259 CURVE",
"539 259 OFFCURVE",
"539 256 OFFCURVE",
"539 250 CURVE",
"543 322 OFFCURVE",
"576 378 OFFCURVE",
"649 378 CURVE",
"706 378 OFFCURVE",
"727 327 OFFCURVE",
"727 247 CURVE",
"727 60 LINE",
"727 2 OFFCURVE",
"707 0 OFFCURVE",
"707 0 CURVE"
);
}
);
width = 929;
},
{
associatedMasterId = "083550D2-F2E8-44E3-BE3D-E8BDF41EDFC4";
layerId = "0AAF2CB4-2EBD-42C4-BAB4-4CEC92C737FB";
width = 600;
},
{
layerId = "CA5CD7F6-F0E6-40F5-9716-481B35A0BC32";
paths = (
{
closed = 1;
nodes = (
"138 0 LINE",
"138 0 OFFCURVE",
"118 1 OFFCURVE",
"118 60 CURVE",
"118 227 LINE",
"118 357 OFFCURVE",
"210 438 OFFCURVE",
"309 438 CURVE",
"405 438 OFFCURVE",
"447 387 OFFCURVE",
"447 256 CURVE",
"447 251 OFFCURVE",
"447 119 OFFCURVE",
"447 60 CURVE",
"447 1 OFFCURVE",
"427 0 OFFCURVE",
"427 0 CURVE",
"519 0 LINE",
"519 0 OFFCURVE",
"499 1 OFFCURVE",
"499 60 CURVE",
"499 119 OFFCURVE",
"499 259 OFFCURVE",
"499 259 CURVE",
"499 399 OFFCURVE",
"451 478 OFFCURVE",
"327 478 CURVE",
"219 478 OFFCURVE",
"148 421 OFFCURVE",
"118 371 CURVE",
"116 373 LINE",
"118 386 LINE",
"118 478 LINE",
"118 478 OFFCURVE",
"104 458 OFFCURVE",
"46 458 CURVE",
"46 458 OFFCURVE",
"66 456 OFFCURVE",
"66 398 CURVE",
"66 60 LINE",
"66 1 OFFCURVE",
"46 0 OFFCURVE",
"46 0 CURVE"
);
},
{
closed = 1;
nodes = (
"889 0 LINE",
"889 0 OFFCURVE",
"869 1 OFFCURVE",
"869 60 CURVE",
"869 119 OFFCURVE",
"869 259 OFFCURVE",
"869 259 CURVE",
"869 410 OFFCURVE",
"802 478 OFFCURVE",
"667 478 CURVE",
"470 478 OFFCURVE",
"458 308 OFFCURVE",
"458 308 CURVE",
"499 248 LINE",
"499 364 OFFCURVE",
"558 438 OFFCURVE",
"659 438 CURVE",
"736 438 OFFCURVE",
"817 398 OFFCURVE",
"817 256 CURVE",
"817 251 OFFCURVE",
"817 119 OFFCURVE",
"817 60 CURVE",
"817 1 OFFCURVE",
"797 0 OFFCURVE",
"797 0 CURVE"
);
}
);
width = 929;
},
{
associatedMasterId = "CA5CD7F6-F0E6-40F5-9716-481B35A0BC32";
layerId = "AA49BA8A-CFB6-403A-A391-5D77F108A598";
width = 600;
}
);
leftMetricsKey = n;
rightMetricsKey = n;
unicode = 006D;
},
{
color = 1;
glyphname = n;
layers = (
{
anchors = (
{
name = bottom;
position = "{298, 0}";
},
{
name = top;
position = "{298, 468}";
}
);
layerId = "083550D2-F2E8-44E3-BE3D-E8BDF41EDFC4";
paths = (
{
closed = 1;
nodes = (
"188 0 LINE",
"188 0 OFFCURVE",
"168 1 OFFCURVE",
"168 60 CURVE",
"168 247 LINE",
"168 364 OFFCURVE",
"244 408 OFFCURVE",
"319 408 CURVE",
"388 408 OFFCURVE",
"437 374 OFFCURVE",
"437 256 CURVE",
"437 251 OFFCURVE",
"437 119 OFFCURVE",
"437 60 CURVE",
"437 1 OFFCURVE",
"417 0 OFFCURVE",
"417 0 CURVE",
"559 0 LINE",
"559 0 OFFCURVE",
"539 1 OFFCURVE",
"539 60 CURVE",
"539 119 OFFCURVE",
"539 259 OFFCURVE",
"539 259 CURVE",
"539 410 OFFCURVE",
"471 478 OFFCURVE",
"347 478 CURVE",
"252 478 OFFCURVE",
"197 439 OFFCURVE",
"168 402 CURVE",
"166 404 LINE",
"168 417 LINE",
"168 478 LINE",
"168 478 OFFCURVE",
"126 458 OFFCURVE",
"46 458 CURVE",
"46 458 OFFCURVE",
"66 456 OFFCURVE",
"66 398 CURVE",
"66 60 LINE",
"66 1 OFFCURVE",
"46 0 OFFCURVE",
"46 0 CURVE"
);
}
);
width = 599;
},
{
anchors = (
{
name = bottom;
position = "{294, 0}";
},
{
name = top;
position = "{304, 468}";
}
);
layerId = "1A280FA7-9E72-4FC3-84C1-49B7BD56B269";
paths = (
{
closed = 1;
nodes = (
"228 0 LINE",
"228 0 OFFCURVE",
"208 1 OFFCURVE",
"208 60 CURVE",
"208 247 LINE",
"208 340 OFFCURVE",
"262 378 OFFCURVE",
"319 378 CURVE",
"364 378 OFFCURVE",
"397 350 OFFCURVE",
"397 256 CURVE",
"397 251 OFFCURVE",
"397 119 OFFCURVE",
"397 60 CURVE",
"397 1 OFFCURVE",
"377 0 OFFCURVE",
"377 0 CURVE",
"559 0 LINE",
"559 0 OFFCURVE",
"539 1 OFFCURVE",
"539 60 CURVE",
"539 119 OFFCURVE",
"539 259 OFFCURVE",
"539 259 CURVE",
"539 410 OFFCURVE",
"471 478 OFFCURVE",
"347 478 CURVE",
"259 478 OFFCURVE",
"213 415 OFFCURVE",
"208 402 CURVE",
"206 404 LINE",
"208 417 LINE",
"208 478 LINE",
"208 478 OFFCURVE",
"126 458 OFFCURVE",
"46 458 CURVE",
"46 458 OFFCURVE",
"66 456 OFFCURVE",
"66 398 CURVE",
"66 60 LINE",
"66 1 OFFCURVE",
"46 0 OFFCURVE",
"46 0 CURVE"
);
}
);
width = 599;
},
{
associatedMasterId = "083550D2-F2E8-44E3-BE3D-E8BDF41EDFC4";
layerId = "0AAF2CB4-2EBD-42C4-BAB4-4CEC92C737FB";
width = 600;
},
{
anchors = (
{
name = bottom;
position = "{298, 0}";
},
{
name = top;
position = "{298, 468}";
}
);
layerId = "CA5CD7F6-F0E6-40F5-9716-481B35A0BC32";
paths = (
{
closed = 1;
nodes = (
"138 0 LINE",
"138 0 OFFCURVE",
"118 1 OFFCURVE",
"118 60 CURVE",
"118 227 LINE",
"118 360 OFFCURVE",
"210 438 OFFCURVE",
"319 438 CURVE",
"431 438 OFFCURVE",
"487 387 OFFCURVE",
"487 256 CURVE",
"487 251 OFFCURVE",
"487 119 OFFCURVE",
"487 60 CURVE",
"487 1 OFFCURVE",
"467 0 OFFCURVE",
"467 0 CURVE",
"559 0 LINE",
"559 0 OFFCURVE",
"539 1 OFFCURVE",
"539 60 CURVE",
"539 119 OFFCURVE",
"539 259 OFFCURVE",
"539 259 CURVE",
"539 410 OFFCURVE",
"469 478 OFFCURVE",
"337 478 CURVE",
"214 478 OFFCURVE",
"148 421 OFFCURVE",
"118 371 CURVE",
"116 373 LINE",
"118 386 LINE",
"118 478 LINE",
"118 478 OFFCURVE",
"104 458 OFFCURVE",
"46 458 CURVE",
"46 458 OFFCURVE",
"66 456 OFFCURVE",
"66 398 CURVE",
"66 60 LINE",
"66 1 OFFCURVE",
"46 0 OFFCURVE",
"46 0 CURVE"
);
}
);
width = 599;
},
{
associatedMasterId = "CA5CD7F6-F0E6-40F5-9716-481B35A0BC32";
layerId = "3BB848BD-AE25-42C8-8590-3368FA6CB332";
width = 600;
}
);
unicode = 006E;
},
{
color = 1;
glyphname = eng;
layers = (
{
layerId = "083550D2-F2E8-44E3-BE3D-E8BDF41EDFC4";
paths = (
{
closed = 1;
nodes = (
"188 0 LINE",
"188 0 OFFCURVE",
"168 1 OFFCURVE",
"168 60 CURVE",
"168 247 LINE",
"168 364 OFFCURVE",
"244 408 OFFCURVE",
"319 408 CURVE",
"388 408 OFFCURVE",
"437 374 OFFCURVE",
"437 256 CURVE",
"437 251 OFFCURVE",
"437 119 OFFCURVE",
"437 60 CURVE",
"437 1 OFFCURVE",
"437 0 OFFCURVE",
"437 0 CURVE",
"539 0 LINE",
"539 0 OFFCURVE",
"539 1 OFFCURVE",
"539 60 CURVE",
"539 119 OFFCURVE",
"539 259 OFFCURVE",
"539 259 CURVE",
"539 410 OFFCURVE",
"471 478 OFFCURVE",
"347 478 CURVE",
"252 478 OFFCURVE",
"197 439 OFFCURVE",
"168 402 CURVE",
"166 404 LINE",
"168 417 LINE",
"168 478 LINE",
"168 478 OFFCURVE",
"126 458 OFFCURVE",
"46 458 CURVE",
"46 458 OFFCURVE",
"66 456 OFFCURVE",
"66 398 CURVE",
"66 60 LINE",
"66 1 OFFCURVE",
"46 0 OFFCURVE",
"46 0 CURVE"
);
},
{
closed = 1;
nodes = (
"377 -173 OFFCURVE",
"389 -173 OFFCURVE",
"398 -173 CURVE",
"501 -173 OFFCURVE",
"539 -109 OFFCURVE",
"539 0 CURVE",
"539 60 LINE",
"437 60 LINE",
"437 -10 LINE",
"437 -84 OFFCURVE",
"424 -113 OFFCURVE",
"377 -113 CURVE",
"377 -173 LINE"
);
}
);
width = 579;
},
{
layerId = "1A280FA7-9E72-4FC3-84C1-49B7BD56B269";
paths = (
{
closed = 1;
nodes = (
"228 0 LINE",
"228 0 OFFCURVE",
"208 1 OFFCURVE",
"208 60 CURVE",
"208 247 LINE",
"208 340 OFFCURVE",
"262 378 OFFCURVE",
"319 378 CURVE",
"364 378 OFFCURVE",
"397 350 OFFCURVE",
"397 256 CURVE",
"397 251 OFFCURVE",
"397 119 OFFCURVE",
"397 60 CURVE",
"397 1 OFFCURVE",
"397 0 OFFCURVE",
"397 0 CURVE",
"539 0 LINE",
"539 0 OFFCURVE",
"539 1 OFFCURVE",
"539 60 CURVE",
"539 119 OFFCURVE",
"539 259 OFFCURVE",
"539 259 CURVE",
"539 410 OFFCURVE",
"471 478 OFFCURVE",
"347 478 CURVE",
"259 478 OFFCURVE",
"213 415 OFFCURVE",
"208 402 CURVE",
"206 404 LINE",
"208 417 LINE",
"208 478 LINE",
"208 478 OFFCURVE",
"126 458 OFFCURVE",
"46 458 CURVE",
"46 458 OFFCURVE",
"66 456 OFFCURVE",
"66 398 CURVE",
"66 60 LINE",
"66 1 OFFCURVE",
"46 0 OFFCURVE",
"46 0 CURVE"
);
},
{
closed = 1;
nodes = (
"337 -173 OFFCURVE",
"389 -173 OFFCURVE",
"398 -173 CURVE",
"501 -173 OFFCURVE",
"539 -109 OFFCURVE",
"539 0 CURVE",
"539 60 LINE",
"397 60 LINE",
"397 -10 LINE",
"397 -58 OFFCURVE",
"384 -83 OFFCURVE",
"337 -83 CURVE",
"337 -173 LINE"
);
}
);
width = 579;
},
{
layerId = "CA5CD7F6-F0E6-40F5-9716-481B35A0BC32";
paths = (
{
closed = 1;
nodes = (
"138 0 LINE",
"138 0 OFFCURVE",
"118 1 OFFCURVE",
"118 60 CURVE",
"118 227 LINE",
"118 352 OFFCURVE",
"204 438 OFFCURVE",
"319 438 CURVE",
"444 438 OFFCURVE",
"487 374 OFFCURVE",
"487 256 CURVE",
"487 251 OFFCURVE",
"487 119 OFFCURVE",
"487 60 CURVE",
"487 1 OFFCURVE",
"487 0 OFFCURVE",
"487 0 CURVE",
"539 0 LINE",
"539 0 OFFCURVE",
"539 1 OFFCURVE",
"539 60 CURVE",
"539 119 OFFCURVE",
"539 259 OFFCURVE",
"539 259 CURVE",
"539 410 OFFCURVE",
"472 478 OFFCURVE",
"337 478 CURVE",
"220 478 OFFCURVE",
"145 425 OFFCURVE",
"118 371 CURVE",
"116 373 LINE",
"118 386 LINE",
"118 478 LINE",
"118 478 OFFCURVE",
"97 458 OFFCURVE",
"46 458 CURVE",
"46 458 OFFCURVE",
"66 456 OFFCURVE",
"66 398 CURVE",
"66 60 LINE",
"66 1 OFFCURVE",
"46 0 OFFCURVE",
"46 0 CURVE"
);
},
{
closed = 1;
nodes = (
"387 -173 OFFCURVE",
"389 -173 OFFCURVE",
"398 -173 CURVE",
"501 -173 OFFCURVE",
"539 -109 OFFCURVE",
"539 0 CURVE",
"539 60 LINE",
"487 60 LINE",
"487 -10 LINE",
"487 -100 OFFCURVE",
"460 -133 OFFCURVE",
"387 -133 CURVE",
"387 -173 LINE"
);
}
);
width = 579;
}
);
leftMetricsKey = n;
rightMetricsKey = n;
unicode = 014B;
},
{
color = 1;
glyphname = nhookleft;
layers = (
{
layerId = "083550D2-F2E8-44E3-BE3D-E8BDF41EDFC4";
paths = (
{
closed = 1;
nodes = (
"173 0 LINE",
"173 0 OFFCURVE",
"173 1 OFFCURVE",
"173 60 CURVE",
"173 247 LINE",
"173 364 OFFCURVE",
"249 408 OFFCURVE",
"324 408 CURVE",
"393 408 OFFCURVE",
"442 374 OFFCURVE",
"442 256 CURVE",
"442 251 OFFCURVE",
"442 119 OFFCURVE",
"442 60 CURVE",
"442 1 OFFCURVE",
"422 0 OFFCURVE",
"422 0 CURVE",
"564 0 LINE",
"564 0 OFFCURVE",
"544 1 OFFCURVE",
"544 60 CURVE",
"544 119 OFFCURVE",
"544 259 OFFCURVE",
"544 259 CURVE",
"544 410 OFFCURVE",
"476 478 OFFCURVE",
"352 478 CURVE",
"257 478 OFFCURVE",
"202 439 OFFCURVE",
"173 402 CURVE",
"171 404 LINE",
"173 417 LINE",
"173 478 LINE",
"173 478 OFFCURVE",
"131 458 OFFCURVE",
"51 458 CURVE",
"51 458 OFFCURVE",
"71 456 OFFCURVE",
"71 398 CURVE",
"71 60 LINE",
"71 1 OFFCURVE",
"71 0 OFFCURVE",
"71 0 CURVE"
);
},
{
closed = 1;
nodes = (
"136 -182 OFFCURVE",
"173 -107 OFFCURVE",
"173 -19 CURVE",
"173 1 LINE",
"71 1 LINE",
"71 1 OFFCURVE",
"71 1 OFFCURVE",
"71 -18 CURVE",
"71 -86 OFFCURVE",
"65 -112 OFFCURVE",
"13 -112 CURVE",
"-18 -112 OFFCURVE",
"-50 -92 OFFCURVE",
"-50 -92 CURVE",
"-39 -124 LINE",
"-39 -173 LINE",
"-39 -173 OFFCURVE",
"-16 -182 OFFCURVE",
"25 -182 CURVE"
);
}
);
width = 604;
},
{
layerId = "1A280FA7-9E72-4FC3-84C1-49B7BD56B269";
paths = (
{
closed = 1;
nodes = (
"213 0 LINE",
"213 0 OFFCURVE",
"213 1 OFFCURVE",
"213 60 CURVE",
"213 247 LINE",
"213 340 OFFCURVE",
"267 378 OFFCURVE",
"324 378 CURVE",
"369 378 OFFCURVE",
"402 350 OFFCURVE",
"402 256 CURVE",
"402 251 OFFCURVE",
"402 119 OFFCURVE",
"402 60 CURVE",
"402 1 OFFCURVE",
"382 0 OFFCURVE",
"382 0 CURVE",
"564 0 LINE",
"564 0 OFFCURVE",
"544 1 OFFCURVE",
"544 60 CURVE",
"544 119 OFFCURVE",
"544 259 OFFCURVE",
"544 259 CURVE",
"544 410 OFFCURVE",
"476 478 OFFCURVE",
"352 478 CURVE",
"264 478 OFFCURVE",
"218 415 OFFCURVE",
"213 402 CURVE",
"211 404 LINE",
"213 417 LINE",
"213 478 LINE",
"213 478 OFFCURVE",
"131 458 OFFCURVE",
"51 458 CURVE",
"51 458 OFFCURVE",
"71 456 OFFCURVE",
"71 398 CURVE",
"71 60 LINE",
"71 1 OFFCURVE",
"71 0 OFFCURVE",
"71 0 CURVE"
);
},
{
closed = 1;
nodes = (
"147 -182 OFFCURVE",
"213 -125 OFFCURVE",
"213 -19 CURVE",
"213 1 LINE",
"71 1 LINE",
"71 1 OFFCURVE",
"71 1 OFFCURVE",
"71 -18 CURVE",
"71 -59 OFFCURVE",
"65 -81 OFFCURVE",
"13 -81 CURVE",
"-18 -81 OFFCURVE",
"-50 -61 OFFCURVE",
"-50 -61 CURVE",
"-39 -93 LINE",
"-39 -173 LINE",
"-39 -173 OFFCURVE",
"-16 -182 OFFCURVE",
"25 -182 CURVE"
);
}
);
width = 604;
},
{
layerId = "CA5CD7F6-F0E6-40F5-9716-481B35A0BC32";
paths = (
{
closed = 1;
nodes = (
"123 0 LINE",
"123 0 OFFCURVE",
"123 1 OFFCURVE",
"123 60 CURVE",
"123 227 LINE",
"123 360 OFFCURVE",
"215 438 OFFCURVE",
"324 438 CURVE",
"436 438 OFFCURVE",
"492 387 OFFCURVE",
"492 256 CURVE",
"492 251 OFFCURVE",
"492 119 OFFCURVE",
"492 60 CURVE",
"492 1 OFFCURVE",
"472 0 OFFCURVE",
"472 0 CURVE",
"564 0 LINE",
"564 0 OFFCURVE",
"544 1 OFFCURVE",
"544 60 CURVE",
"544 119 OFFCURVE",
"544 259 OFFCURVE",
"544 259 CURVE",
"544 410 OFFCURVE",
"474 478 OFFCURVE",
"342 478 CURVE",
"219 478 OFFCURVE",
"153 421 OFFCURVE",
"123 371 CURVE",
"121 373 LINE",
"123 386 LINE",
"123 478 LINE",
"123 478 OFFCURVE",
"109 458 OFFCURVE",
"51 458 CURVE",
"51 458 OFFCURVE",
"71 456 OFFCURVE",
"71 398 CURVE",
"71 60 LINE",
"71 1 OFFCURVE",
"71 0 OFFCURVE",
"71 0 CURVE"
);
},
{
closed = 1;
nodes = (
"80 -182 OFFCURVE",
"123 -150 OFFCURVE",
"123 -60 CURVE",
"123 1 LINE",
"71 1 LINE",
"71 1 OFFCURVE",
"71 -20 OFFCURVE",
"71 -39 CURVE",
"71 -101 OFFCURVE",
"65 -133 OFFCURVE",
"13 -133 CURVE",
"-18 -133 OFFCURVE",
"-50 -113 OFFCURVE",
"-50 -113 CURVE",
"-39 -144 LINE",
"-39 -173 LINE",
"-39 -173 OFFCURVE",
"-16 -182 OFFCURVE",
"25 -182 CURVE"
);
}
);
width = 604;
}
);
leftMetricsKey = j;
rightMetricsKey = n;
unicode = 0272;
},
{
color = 1;
glyphname = o;
layers = (
{
anchors = (
{
name = bottom;
position = "{298, 0}";
},
{
name = center;
position = "{298, 234}";
},
{
name = ogonek;
position = "{383, 10}";
},
{
name = top;
position = "{298, 468}";
},
{
name = topright;
position = "{566, 398}";
}
);
layerId = "083550D2-F2E8-44E3-BE3D-E8BDF41EDFC4";
paths = (
{
closed = 1;
nodes = (
"499 -10 OFFCURVE",
"556 94 OFFCURVE",
"556 233 CURVE",
"556 372 OFFCURVE",
"496 478 OFFCURVE",
"298 478 CURVE",
"100 478 OFFCURVE",
"40 372 OFFCURVE",
"40 233 CURVE",
"40 94 OFFCURVE",
"97 -10 OFFCURVE",
"298 -10 CURVE"
);
},
{
closed = 1;
nodes = (
"174 61 OFFCURVE",
"142 125 OFFCURVE",
"142 232 CURVE",
"142 339 OFFCURVE",
"175 408 OFFCURVE",
"298 408 CURVE",
"421 408 OFFCURVE",
"454 343 OFFCURVE",
"454 233 CURVE",
"454 123 OFFCURVE",
"422 61 OFFCURVE",
"298 61 CURVE"
);
}
);
width = 596;
},
{
anchors = (
{
name = bottom;
position = "{298, 0}";
},
{
name = center;
position = "{298, 234}";
},
{
name = ogonek;
position = "{383, 10}";
},
{
name = top;
position = "{298, 468}";
},
{
name = topright;
position = "{576, 378}";
}
);
layerId = "1A280FA7-9E72-4FC3-84C1-49B7BD56B269";
paths = (
{
closed = 1;
nodes = (
"499 -10 OFFCURVE",
"556 94 OFFCURVE",
"556 233 CURVE",
"556 372 OFFCURVE",
"496 478 OFFCURVE",
"298 478 CURVE",
"100 478 OFFCURVE",
"40 372 OFFCURVE",
"40 233 CURVE",
"40 94 OFFCURVE",
"97 -10 OFFCURVE",
"298 -10 CURVE"
);
},
{
closed = 1;
nodes = (
"214 91 OFFCURVE",
"182 125 OFFCURVE",
"182 232 CURVE",
"182 339 OFFCURVE",
"215 378 OFFCURVE",
"298 378 CURVE",
"381 378 OFFCURVE",
"414 343 OFFCURVE",
"414 233 CURVE",
"414 123 OFFCURVE",
"382 91 OFFCURVE",
"298 91 CURVE"
);
}
);
width = 596;
},
{
associatedMasterId = "083550D2-F2E8-44E3-BE3D-E8BDF41EDFC4";
layerId = "0AAF2CB4-2EBD-42C4-BAB4-4CEC92C737FB";
width = 600;
},
{
anchors = (
{
name = bottom;
position = "{298, 0}";
},
{
name = center;
position = "{298, 234}";
},
{
name = ogonek;
position = "{393, 10}";
},
{
name = top;
position = "{298, 468}";
},
{
name = topright;
position = "{586, 398}";
}
);
layerId = "CA5CD7F6-F0E6-40F5-9716-481B35A0BC32";
paths = (
{
closed = 1;
nodes = (
"491 -10 OFFCURVE",
"556 94 OFFCURVE",
"556 233 CURVE",
"556 372 OFFCURVE",
"496 478 OFFCURVE",
"298 478 CURVE",
"100 478 OFFCURVE",
"40 372 OFFCURVE",
"40 233 CURVE",
"40 94 OFFCURVE",
"97 -10 OFFCURVE",
"298 -10 CURVE"
);
},
{
closed = 1;
nodes = (
"161 30 OFFCURVE",
"92 88 OFFCURVE",
"92 232 CURVE",
"92 376 OFFCURVE",
"162 438 OFFCURVE",
"298 438 CURVE",
"434 438 OFFCURVE",
"504 380 OFFCURVE",
"504 233 CURVE",
"504 86 OFFCURVE",
"435 30 OFFCURVE",
"298 30 CURVE"
);
}
);
width = 596;
},
{
associatedMasterId = "CA5CD7F6-F0E6-40F5-9716-481B35A0BC32";
layerId = "162CFB55-A7FE-4FDF-9D42-BABD7001CBC1";
width = 600;
}
);
unicode = 006F;
},
{
color = 1;
glyphname = p;
layers = (
{
layerId = "083550D2-F2E8-44E3-BE3D-E8BDF41EDFC4";
paths = (
{
closed = 1;
nodes = (
"188 -222 LINE",
"188 -222 OFFCURVE",
"168 -221 OFFCURVE",
"168 -162 CURVE",
"168 19 LINE",
"166 38 LINE",
"168 39 LINE",
"202 8 OFFCURVE",
"251 -10 OFFCURVE",
"324 -10 CURVE",
"512 -10 OFFCURVE",
"572 94 OFFCURVE",
"572 233 CURVE",
"572 372 OFFCURVE",
"509 478 OFFCURVE",
"324 478 CURVE",
"251 478 OFFCURVE",
"194 452 OFFCURVE",
"168 427 CURVE",
"166 429 LINE",
"168 448 LINE",
"168 468 LINE",
"46 468 LINE",
"46 468 OFFCURVE",
"66 466 OFFCURVE",
"66 408 CURVE",
"66 -162 LINE",
"66 -221 OFFCURVE",
"46 -222 OFFCURVE",
"46 -222 CURVE"
);
},
{
closed = 1;
nodes = (
"198 61 OFFCURVE",
"168 133 OFFCURVE",
"168 232 CURVE",
"168 328 OFFCURVE",
"194 408 OFFCURVE",
"314 408 CURVE",
"437 408 OFFCURVE",
"470 343 OFFCURVE",
"470 233 CURVE",
"470 123 OFFCURVE",
"438 61 OFFCURVE",
"314 61 CURVE"
);
}
);
width = 612;
},
{
layerId = "1A280FA7-9E72-4FC3-84C1-49B7BD56B269";
paths = (
{
closed = 1;
nodes = (
"228 -222 LINE",
"228 -222 OFFCURVE",
"208 -221 OFFCURVE",
"208 -162 CURVE",
"208 6 LINE",
"206 26 LINE",
"208 27 LINE",
"235 3 OFFCURVE",
"282 -10 OFFCURVE",
"334 -10 CURVE",
"522 -10 OFFCURVE",
"572 94 OFFCURVE",
"572 233 CURVE",
"572 372 OFFCURVE",
"519 478 OFFCURVE",
"334 478 CURVE",
"282 478 OFFCURVE",
"227 457 OFFCURVE",
"208 440 CURVE",
"206 441 LINE",
"208 460 LINE",
"208 468 LINE",
"46 468 LINE",
"46 468 OFFCURVE",
"66 466 OFFCURVE",
"66 408 CURVE",
"66 -162 LINE",
"66 -221 OFFCURVE",
"46 -222 OFFCURVE",
"46 -222 CURVE"
);
},
{
closed = 1;
nodes = (
"248 91 OFFCURVE",
"208 128 OFFCURVE",
"208 232 CURVE",
"208 334 OFFCURVE",
"247 378 OFFCURVE",
"314 378 CURVE",
"397 378 OFFCURVE",
"430 343 OFFCURVE",
"430 233 CURVE",
"430 123 OFFCURVE",
"398 91 OFFCURVE",
"314 91 CURVE"
);
}
);
width = 612;
},
{
associatedMasterId = "083550D2-F2E8-44E3-BE3D-E8BDF41EDFC4";
layerId = "0AAF2CB4-2EBD-42C4-BAB4-4CEC92C737FB";
width = 600;
},
{
layerId = "CA5CD7F6-F0E6-40F5-9716-481B35A0BC32";
paths = (
{
closed = 1;
nodes = (
"137 -222 LINE",
"137 -222 OFFCURVE",
"116 -221 OFFCURVE",
"116 -162 CURVE",
"116 57 LINE",
"114 76 LINE",
"116 77 LINE",
"152 26 OFFCURVE",
"209 -10 OFFCURVE",
"324 -10 CURVE",
"506 -10 OFFCURVE",
"572 94 OFFCURVE",
"572 233 CURVE",
"572 372 OFFCURVE",
"506 478 OFFCURVE",
"324 478 CURVE",
"202 478 OFFCURVE",
"153 433 OFFCURVE",
"116 389 CURVE",
"114 391 LINE",
"116 410 LINE",
"116 468 LINE",
"46 468 LINE",
"46 468 OFFCURVE",
"66 466 OFFCURVE",
"66 408 CURVE",
"66 -162 LINE",
"66 -221 OFFCURVE",
"46 -222 OFFCURVE",
"46 -222 CURVE"
);
},
{
closed = 1;
nodes = (
"182 30 OFFCURVE",
"116 106 OFFCURVE",
"116 232 CURVE",
"116 355 OFFCURVE",
"188 438 OFFCURVE",
"314 438 CURVE",
"453 438 OFFCURVE",
"520 370 OFFCURVE",
"520 233 CURVE",
"520 96 OFFCURVE",
"454 30 OFFCURVE",
"314 30 CURVE"
);
}
);
width = 612;
},
{
associatedMasterId = "CA5CD7F6-F0E6-40F5-9716-481B35A0BC32";
layerId = "D914797A-3AA2-414A-97FF-76DB3D2D1007";
width = 600;
}
);
leftMetricsKey = n;
rightMetricsKey = o;
unicode = 0070;
},
{
color = 1;
glyphname = thorn;
layers = (
{
layerId = "083550D2-F2E8-44E3-BE3D-E8BDF41EDFC4";
paths = (
{
closed = 1;
nodes = (
"188 -222 LINE",
"188 -222 OFFCURVE",
"168 -221 OFFCURVE",
"168 -162 CURVE",
"168 19 LINE",
"166 38 LINE",
"168 39 LINE",
"202 8 OFFCURVE",
"251 -10 OFFCURVE",
"324 -10 CURVE",
"512 -10 OFFCURVE",
"572 94 OFFCURVE",
"572 233 CURVE",
"572 372 OFFCURVE",
"509 478 OFFCURVE",
"324 478 CURVE",
"251 478 OFFCURVE",
"194 452 OFFCURVE",
"168 427 CURVE",
"166 429 LINE",
"168 448 LINE",
"168 689 LINE",
"46 689 LINE",
"46 689 OFFCURVE",
"66 687 OFFCURVE",
"66 629 CURVE",
"66 -162 LINE",
"66 -221 OFFCURVE",
"46 -222 OFFCURVE",
"46 -222 CURVE"
);
},
{
closed = 1;
nodes = (
"198 61 OFFCURVE",
"168 133 OFFCURVE",
"168 232 CURVE",
"168 328 OFFCURVE",
"194 408 OFFCURVE",
"314 408 CURVE",
"437 408 OFFCURVE",
"470 343 OFFCURVE",
"470 233 CURVE",
"470 123 OFFCURVE",
"438 61 OFFCURVE",
"314 61 CURVE"
);
}
);
width = 612;
},
{
layerId = "1A280FA7-9E72-4FC3-84C1-49B7BD56B269";
paths = (
{
closed = 1;
nodes = (
"228 -222 LINE",
"228 -222 OFFCURVE",
"208 -221 OFFCURVE",
"208 -162 CURVE",
"208 6 LINE",
"206 26 LINE",
"208 27 LINE",
"235 3 OFFCURVE",
"282 -10 OFFCURVE",
"334 -10 CURVE",
"522 -10 OFFCURVE",
"572 94 OFFCURVE",
"572 233 CURVE",
"572 372 OFFCURVE",
"519 478 OFFCURVE",
"334 478 CURVE",
"282 478 OFFCURVE",
"227 457 OFFCURVE",
"208 440 CURVE",
"206 441 LINE",
"208 460 LINE",
"208 689 LINE",
"46 689 LINE",
"46 689 OFFCURVE",
"66 687 OFFCURVE",
"66 629 CURVE",
"66 -162 LINE",
"66 -221 OFFCURVE",
"46 -222 OFFCURVE",
"46 -222 CURVE"
);
},
{
closed = 1;
nodes = (
"248 91 OFFCURVE",
"208 128 OFFCURVE",
"208 232 CURVE",
"208 334 OFFCURVE",
"247 378 OFFCURVE",
"314 378 CURVE",
"397 378 OFFCURVE",
"430 343 OFFCURVE",
"430 233 CURVE",
"430 123 OFFCURVE",
"398 91 OFFCURVE",
"314 91 CURVE"
);
}
);
width = 612;
},
{
associatedMasterId = "083550D2-F2E8-44E3-BE3D-E8BDF41EDFC4";
layerId = "0AAF2CB4-2EBD-42C4-BAB4-4CEC92C737FB";
width = 600;
},
{
layerId = "CA5CD7F6-F0E6-40F5-9716-481B35A0BC32";
paths = (
{
closed = 1;
nodes = (
"137 -222 LINE",
"137 -222 OFFCURVE",
"116 -221 OFFCURVE",
"116 -162 CURVE",
"116 57 LINE",
"114 76 LINE",
"116 77 LINE",
"152 26 OFFCURVE",
"209 -10 OFFCURVE",
"324 -10 CURVE",
"506 -10 OFFCURVE",
"572 94 OFFCURVE",
"572 233 CURVE",
"572 377 OFFCURVE",
"501 478 OFFCURVE",
"324 478 CURVE",
"203 478 OFFCURVE",
"141 424 OFFCURVE",
"116 389 CURVE",
"114 391 LINE",
"116 410 LINE",
"116 689 LINE",
"46 689 LINE",
"46 689 OFFCURVE",
"66 687 OFFCURVE",
"66 629 CURVE",
"66 -162 LINE",
"66 -221 OFFCURVE",
"46 -222 OFFCURVE",
"46 -222 CURVE"
);
},
{
closed = 1;
nodes = (
"182 30 OFFCURVE",
"116 106 OFFCURVE",
"116 232 CURVE",
"116 366 OFFCURVE",
"188 438 OFFCURVE",
"314 438 CURVE",
"453 438 OFFCURVE",
"520 370 OFFCURVE",
"520 233 CURVE",
"520 96 OFFCURVE",
"454 30 OFFCURVE",
"314 30 CURVE"
);
}
);
width = 612;
},
{
associatedMasterId = "CA5CD7F6-F0E6-40F5-9716-481B35A0BC32";
layerId = "4EF9C598-AE41-4C8B-9C56-8F47D132AC15";
width = 600;
}
);
leftMetricsKey = n;
rightMetricsKey = o;
unicode = 00FE;
},
{
color = 1;
glyphname = q;
layers = (
{
layerId = "083550D2-F2E8-44E3-BE3D-E8BDF41EDFC4";
paths = (
{
closed = 1;
nodes = (
"434 -244 OFFCURVE",
"485 -224 OFFCURVE",
"565 -224 CURVE",
"565 -224 OFFCURVE",
"546 -223 OFFCURVE",
"546 -164 CURVE",
"546 406 LINE",
"546 466 OFFCURVE",
"567 468 OFFCURVE",
"567 468 CURVE",
"444 468 LINE",
"444 441 LINE",
"446 422 LINE",
"444 421 LINE",
"413 454 OFFCURVE",
"361 478 OFFCURVE",
"281 478 CURVE",
"91 478 OFFCURVE",
"40 372 OFFCURVE",
"40 233 CURVE",
"40 94 OFFCURVE",
"91 -10 OFFCURVE",
"281 -10 CURVE",
"361 -10 OFFCURVE",
"413 16 OFFCURVE",
"444 51 CURVE",
"446 50 LINE",
"444 31 LINE",
"444 -164 LINE",
"444 -220 OFFCURVE",
"434 -244 OFFCURVE",
"434 -244 CURVE"
);
},
{
closed = 1;
nodes = (
"172 61 OFFCURVE",
"141 125 OFFCURVE",
"141 232 CURVE",
"141 339 OFFCURVE",
"176 408 OFFCURVE",
"288 408 CURVE",
"422 408 OFFCURVE",
"444 303 OFFCURVE",
"444 233 CURVE",
"444 154 OFFCURVE",
"423 61 OFFCURVE",
"288 61 CURVE"
);
}
);
width = 617;
},
{
layerId = "1A280FA7-9E72-4FC3-84C1-49B7BD56B269";
paths = (
{
closed = 1;
nodes = (
"394 -244 OFFCURVE",
"482 -224 OFFCURVE",
"565 -224 CURVE",
"565 -224 OFFCURVE",
"546 -223 OFFCURVE",
"546 -164 CURVE",
"546 406 LINE",
"546 466 OFFCURVE",
"566 468 OFFCURVE",
"566 468 CURVE",
"404 468 LINE",
"404 458 LINE",
"406 439 LINE",
"404 438 LINE",
"374 463 OFFCURVE",
"330 478 OFFCURVE",
"271 478 CURVE",
"92 478 OFFCURVE",
"40 372 OFFCURVE",
"40 233 CURVE",
"40 94 OFFCURVE",
"92 -10 OFFCURVE",
"271 -10 CURVE",
"329 -10 OFFCURVE",
"373 7 OFFCURVE",
"404 33 CURVE",
"406 32 LINE",
"404 13 LINE",
"404 -164 LINE",
"404 -220 OFFCURVE",
"394 -244 OFFCURVE",
"394 -244 CURVE"
);
},
{
closed = 1;
nodes = (
"221 91 OFFCURVE",
"181 125 OFFCURVE",
"181 232 CURVE",
"181 339 OFFCURVE",
"224 378 OFFCURVE",
"288 378 CURVE",
"376 378 OFFCURVE",
"404 319 OFFCURVE",
"404 233 CURVE",
"404 147 OFFCURVE",
"377 91 OFFCURVE",
"288 91 CURVE"
);
}
);
width = 616;
},
{
associatedMasterId = "083550D2-F2E8-44E3-BE3D-E8BDF41EDFC4";
layerId = "0AAF2CB4-2EBD-42C4-BAB4-4CEC92C737FB";
width = 600;
},
{
layerId = "CA5CD7F6-F0E6-40F5-9716-481B35A0BC32";
paths = (
{
closed = 1;
nodes = (
"484 -244 OFFCURVE",
"508 -224 OFFCURVE",
"565 -224 CURVE",
"565 -224 OFFCURVE",
"546 -223 OFFCURVE",
"546 -164 CURVE",
"546 406 LINE",
"546 466 OFFCURVE",
"567 468 OFFCURVE",
"567 468 CURVE",
"494 468 LINE",
"494 409 LINE",
"496 390 LINE",
"494 389 LINE",
"471 417 OFFCURVE",
"415 478 OFFCURVE",
"281 478 CURVE",
"102 478 OFFCURVE",
"40 372 OFFCURVE",
"40 233 CURVE",
"40 94 OFFCURVE",
"91 -10 OFFCURVE",
"281 -10 CURVE",
"423 -10 OFFCURVE",
"477 58 OFFCURVE",
"494 83 CURVE",
"496 82 LINE",
"494 63 LINE",
"494 -164 LINE",
"494 -220 OFFCURVE",
"484 -244 OFFCURVE",
"484 -244 CURVE"
);
},
{
closed = 1;
nodes = (
"159 30 OFFCURVE",
"91 96 OFFCURVE",
"91 232 CURVE",
"91 366 OFFCURVE",
"152 438 OFFCURVE",
"288 438 CURVE",
"443 438 OFFCURVE",
"494 332 OFFCURVE",
"494 233 CURVE",
"494 114 OFFCURVE",
"425 30 OFFCURVE",
"288 30 CURVE"
);
}
);
width = 617;
},
{
associatedMasterId = "CA5CD7F6-F0E6-40F5-9716-481B35A0BC32";
layerId = "73CFFBC2-4478-4CF9-AD65-BB989B06F3F3";
width = 600;
}
);
leftMetricsKey = o;
unicode = 0071;
},
{
color = 1;
glyphname = r;
layers = (
{
anchors = (
{
name = bottom;
position = "{234, 0}";
},
{
name = top;
position = "{264, 468}";
}
);
layerId = "083550D2-F2E8-44E3-BE3D-E8BDF41EDFC4";
paths = (
{
closed = 1;
nodes = (
"188 0 LINE",
"188 0 OFFCURVE",
"168 1 OFFCURVE",
"168 60 CURVE",
"168 260 LINE",
"168 359 OFFCURVE",
"217 398 OFFCURVE",
"270 398 CURVE",
"366 398 OFFCURVE",
"429 323 OFFCURVE",
"429 323 CURVE",
"429 353 LINE",
"449 437 LINE",
"449 437 OFFCURVE",
"403 478 OFFCURVE",
"318 478 CURVE",
"246 478 OFFCURVE",
"198 448 OFFCURVE",
"168 409 CURVE",
"166 411 LINE",
"168 428 LINE",
"168 478 LINE",
"168 478 OFFCURVE",
"126 458 OFFCURVE",
"46 458 CURVE",
"46 458 OFFCURVE",
"66 456 OFFCURVE",
"66 398 CURVE",
"66 60 LINE",
"66 1 OFFCURVE",
"46 0 OFFCURVE",
"46 0 CURVE"
);
}
);
width = 469;
},
{
anchors = (
{
name = bottom;
position = "{264, 0}";
},
{
name = top;
position = "{264, 468}";
}
);
layerId = "1A280FA7-9E72-4FC3-84C1-49B7BD56B269";
paths = (
{
closed = 1;
nodes = (
"228 0 LINE",
"228 0 OFFCURVE",
"208 1 OFFCURVE",
"208 60 CURVE",
"208 260 LINE",
"208 335 OFFCURVE",
"232 368 OFFCURVE",
"280 368 CURVE",
"368 368 OFFCURVE",
"439 273 OFFCURVE",
"439 273 CURVE",
"439 303 LINE",
"469 437 LINE",
"469 437 OFFCURVE",
"417 478 OFFCURVE",
"328 478 CURVE",
"261 478 OFFCURVE",
"222 440 OFFCURVE",
"208 419 CURVE",
"206 421 LINE",
"208 438 LINE",
"208 478 LINE",
"208 478 OFFCURVE",
"126 458 OFFCURVE",
"46 458 CURVE",
"46 458 OFFCURVE",
"66 456 OFFCURVE",
"66 398 CURVE",
"66 60 LINE",
"66 1 OFFCURVE",
"46 0 OFFCURVE",
"46 0 CURVE"
);
}
);
width = 489;
},
{
associatedMasterId = "083550D2-F2E8-44E3-BE3D-E8BDF41EDFC4";
layerId = "0AAF2CB4-2EBD-42C4-BAB4-4CEC92C737FB";
width = 600;
},
{
anchors = (
{
name = bottom;
position = "{224, 0}";
},
{
name = top;
position = "{264, 468}";
}
);
layerId = "CA5CD7F6-F0E6-40F5-9716-481B35A0BC32";
paths = (
{
closed = 1;
nodes = (
"138 0 LINE",
"138 0 OFFCURVE",
"118 1 OFFCURVE",
"118 60 CURVE",
"118 260 LINE",
"118 367 OFFCURVE",
"172 438 OFFCURVE",
"270 438 CURVE",
"379 438 OFFCURVE",
"419 373 OFFCURVE",
"419 373 CURVE",
"419 383 LINE",
"429 437 LINE",
"429 437 OFFCURVE",
"377 478 OFFCURVE",
"278 478 CURVE",
"179 478 OFFCURVE",
"139 426 OFFCURVE",
"118 388 CURVE",
"116 390 LINE",
"118 407 LINE",
"118 478 LINE",
"118 478 OFFCURVE",
"102 458 OFFCURVE",
"46 458 CURVE",
"46 458 OFFCURVE",
"66 456 OFFCURVE",
"66 398 CURVE",
"66 60 LINE",
"66 1 OFFCURVE",
"46 0 OFFCURVE",
"46 0 CURVE"
);
}
);
width = 449;
},
{
associatedMasterId = "CA5CD7F6-F0E6-40F5-9716-481B35A0BC32";
layerId = "A1FBAC82-DE0B-4CF7-AD41-0A2531EBBEFF";
width = 600;
}
);
leftMetricsKey = n;
unicode = 0072;
},
{
color = 1;
glyphname = s;
layers = (
{
anchors = (
{
name = bottom;
position = "{288, 0}";
},
{
name = top;
position = "{288, 468}";
}
);
layerId = "083550D2-F2E8-44E3-BE3D-E8BDF41EDFC4";
paths = (
{
closed = 1;
nodes = (
"473 -10 OFFCURVE",
"536 48 OFFCURVE",
"536 130 CURVE",
"536 206 OFFCURVE",
"499 254 OFFCURVE",
"330 272 CURVE",
"161 290 OFFCURVE",
"143 309 OFFCURVE",
"143 349 CURVE",
"143 384 OFFCURVE",
"168 408 OFFCURVE",
"267 408 CURVE",
"437 408 OFFCURVE",
"517 352 OFFCURVE",
"517 352 CURVE",
"497 428 LINE",
"497 448 LINE",
"497 448 OFFCURVE",
"424 478 OFFCURVE",
"254 478 CURVE",
"81 478 OFFCURVE",
"41 408 OFFCURVE",
"41 344 CURVE",
"41 262 OFFCURVE",
"81 216 OFFCURVE",
"250 196 CURVE",
"403 178 OFFCURVE",
"435 166 OFFCURVE",
"435 124 CURVE",
"435 87 OFFCURVE",
"415 60 OFFCURVE",
"291 60 CURVE",
"118 60 OFFCURVE",
"40 126 OFFCURVE",
"40 126 CURVE",
"61 40 LINE",
"61 20 LINE",
"61 20 OFFCURVE",
"132 -10 OFFCURVE",
"305 -10 CURVE"
);
}
);
width = 576;
},
{
anchors = (
{
name = bottom;
position = "{288, 0}";
},
{
name = top;
position = "{288, 468}";
}
);
layerId = "1A280FA7-9E72-4FC3-84C1-49B7BD56B269";
paths = (
{
closed = 1;
nodes = (
"461 -10 OFFCURVE",
"536 38 OFFCURVE",
"536 141 CURVE",
"536 220 OFFCURVE",
"504 266 OFFCURVE",
"335 288 CURVE",
"205 305 OFFCURVE",
"183 315 OFFCURVE",
"183 341 CURVE",
"183 368 OFFCURVE",
"204 377 OFFCURVE",
"257 377 CURVE",
"444 377 OFFCURVE",
"517 330 OFFCURVE",
"517 330 CURVE",
"497 418 LINE",
"497 448 LINE",
"497 448 OFFCURVE",
"413 478 OFFCURVE",
"264 478 CURVE",
"89 478 OFFCURVE",
"41 414 OFFCURVE",
"41 334 CURVE",
"41 248 OFFCURVE",
"90 205 OFFCURVE",
"245 185 CURVE",
"366 169 OFFCURVE",
"395 165 OFFCURVE",
"395 131 CURVE",
"395 102 OFFCURVE",
"373 91 OFFCURVE",
"311 91 CURVE",
"122 91 OFFCURVE",
"40 148 OFFCURVE",
"40 148 CURVE",
"61 50 LINE",
"61 20 LINE",
"61 20 OFFCURVE",
"132 -10 OFFCURVE",
"295 -10 CURVE"
);
}
);
width = 576;
},
{
associatedMasterId = "083550D2-F2E8-44E3-BE3D-E8BDF41EDFC4";
layerId = "0AAF2CB4-2EBD-42C4-BAB4-4CEC92C737FB";
width = 600;
},
{
anchors = (
{
name = bottom;
position = "{288, 0}";
},
{
name = top;
position = "{288, 468}";
}
);
layerId = "CA5CD7F6-F0E6-40F5-9716-481B35A0BC32";
paths = (
{
closed = 1;
nodes = (
"442 -10 OFFCURVE",
"495 51 OFFCURVE",
"495 119 CURVE",
"495 185 OFFCURVE",
"461 234 OFFCURVE",
"299 252 CURVE",
"141 270 OFFCURVE",
"93 292 OFFCURVE",
"93 352 CURVE",
"93 408 OFFCURVE",
"136 439 OFFCURVE",
"246 439 CURVE",
"408 439 OFFCURVE",
"466 392 OFFCURVE",
"466 392 CURVE",
"456 438 LINE",
"456 448 LINE",
"456 448 OFFCURVE",
"387 478 OFFCURVE",
"243 478 CURVE",
"84 478 OFFCURVE",
"41 415 OFFCURVE",
"41 351 CURVE",
"41 258 OFFCURVE",
"126 231 OFFCURVE",
"259 216 CURVE",
"417 199 OFFCURVE",
"444 168 OFFCURVE",
"444 120 CURVE",
"444 67 OFFCURVE",
"401 29 OFFCURVE",
"280 29 CURVE",
"96 29 OFFCURVE",
"40 76 OFFCURVE",
"40 76 CURVE",
"50 30 LINE",
"50 20 LINE",
"50 20 OFFCURVE",
"122 -10 OFFCURVE",
"284 -10 CURVE"
);
}
);
width = 535;
},
{
associatedMasterId = "CA5CD7F6-F0E6-40F5-9716-481B35A0BC32";
layerId = "6FD7718E-B5C7-4D60-8DCC-39D4432336CB";
width = 600;
}
);
unicode = 0073;
},
{
color = 1;
glyphname = germandbls;
layers = (
{
layerId = "083550D2-F2E8-44E3-BE3D-E8BDF41EDFC4";
paths = (
{
closed = 1;
nodes = (
"120 -110 OFFCURVE",
"173 -51 OFFCURVE",
"173 50 CURVE",
"173 434 LINE",
"173 546 OFFCURVE",
"211 601 OFFCURVE",
"287 601 CURVE",
"353 601 OFFCURVE",
"375 551 OFFCURVE",
"375 492 CURVE",
"375 478 LINE",
"324 462 OFFCURVE",
"284 427 OFFCURVE",
"284 369 CURVE",
"284 317 OFFCURVE",
"312 285 OFFCURVE",
"368 248 CURVE",
"425 210 OFFCURVE",
"465 185 OFFCURVE",
"465 130 CURVE",
"465 89 OFFCURVE",
"441 61 OFFCURVE",
"389 61 CURVE",
"287 61 OFFCURVE",
"237 132 OFFCURVE",
"237 132 CURVE",
"237 112 LINE",
"227 41 LINE",
"227 41 OFFCURVE",
"252 -10 OFFCURVE",
"377 -10 CURVE",
"541 -10 OFFCURVE",
"577 71 OFFCURVE",
"577 138 CURVE",
"577 222 OFFCURVE",
"522 264 OFFCURVE",
"437 312 CURVE",
"392 338 OFFCURVE",
"382 359 OFFCURVE",
"382 381 CURVE",
"382 419 OFFCURVE",
"409 448 OFFCURVE",
"473 468 CURVE",
"473 468 OFFCURVE",
"467 468 OFFCURVE",
"467 511 CURVE",
"467 600 OFFCURVE",
"407 671 OFFCURVE",
"285 671 CURVE",
"161 671 OFFCURVE",
"72 586 OFFCURVE",
"72 431 CURVE",
"72 61 LINE",
"72 -20 OFFCURVE",
"47 -38 OFFCURVE",
"-5 -38 CURVE",
"-29 -38 OFFCURVE",
"-50 -27 OFFCURVE",
"-50 -27 CURVE",
"-50 -100 LINE",
"-50 -100 OFFCURVE",
"-32 -110 OFFCURVE",
"23 -110 CURVE"
);
},
{
closed = 1;
nodes = (
"120 398 LINE",
"120 468 LINE",
"0 468 LINE",
"0 398 LINE"
);
}
);
width = 617;
},
{
layerId = "1A280FA7-9E72-4FC3-84C1-49B7BD56B269";
paths = (
{
closed = 1;
nodes = (
"113 -110 OFFCURVE",
"214 -87 OFFCURVE",
"214 70 CURVE",
"214 454 LINE",
"214 534 OFFCURVE",
"240 571 OFFCURVE",
"287 571 CURVE",
"339 571 OFFCURVE",
"355 535 OFFCURVE",
"355 492 CURVE",
"355 478 LINE",
"316 460 OFFCURVE",
"284 426 OFFCURVE",
"284 369 CURVE",
"284 311 OFFCURVE",
"305 277 OFFCURVE",
"358 238 CURVE",
"421 192 OFFCURVE",
"445 174 OFFCURVE",
"445 130 CURVE",
"445 111 OFFCURVE",
"436 92 OFFCURVE",
"399 92 CURVE",
"317 92 OFFCURVE",
"277 143 OFFCURVE",
"277 143 CURVE",
"277 123 LINE",
"267 41 LINE",
"267 41 OFFCURVE",
"306 -10 OFFCURVE",
"407 -10 CURVE",
"534 -10 OFFCURVE",
"577 60 OFFCURVE",
"577 138 CURVE",
"577 205 OFFCURVE",
"554 250 OFFCURVE",
"487 302 CURVE",
"443 336 OFFCURVE",
"422 359 OFFCURVE",
"422 391 CURVE",
"422 426 OFFCURVE",
"442 450 OFFCURVE",
"493 468 CURVE",
"493 468 OFFCURVE",
"477 468 OFFCURVE",
"477 511 CURVE",
"477 598 OFFCURVE",
"428 671 OFFCURVE",
"295 671 CURVE",
"162 671 OFFCURVE",
"72 587 OFFCURVE",
"72 431 CURVE",
"72 92 LINE",
"72 12 OFFCURVE",
"39 -7 OFFCURVE",
"-5 -7 CURVE",
"-29 -7 OFFCURVE",
"-50 4 OFFCURVE",
"-50 4 CURVE",
"-50 -100 LINE",
"-50 -100 OFFCURVE",
"-32 -110 OFFCURVE",
"23 -110 CURVE"
);
},
{
closed = 1;
nodes = (
"120 378 LINE",
"120 468 LINE",
"0 468 LINE",
"0 378 LINE"
);
}
);
width = 617;
},
{
associatedMasterId = "083550D2-F2E8-44E3-BE3D-E8BDF41EDFC4";
layerId = "0AAF2CB4-2EBD-42C4-BAB4-4CEC92C737FB";
width = 600;
},
{
layerId = "CA5CD7F6-F0E6-40F5-9716-481B35A0BC32";
paths = (
{
closed = 1;
nodes = (
"79 -110 OFFCURVE",
"123 -71 OFFCURVE",
"123 30 CURVE",
"123 414 LINE",
"123 564 OFFCURVE",
"182 631 OFFCURVE",
"277 631 CURVE",
"356 631 OFFCURVE",
"395 557 OFFCURVE",
"395 492 CURVE",
"395 478 LINE",
"351 461 OFFCURVE",
"314 429 OFFCURVE",
"314 369 CURVE",
"314 328 OFFCURVE",
"338 294 OFFCURVE",
"394 257 CURVE",
"451 219 OFFCURVE",
"495 192 OFFCURVE",
"495 130 CURVE",
"495 70 OFFCURVE",
"451 31 OFFCURVE",
"379 31 CURVE",
"257 31 OFFCURVE",
"197 112 OFFCURVE",
"197 112 CURVE",
"197 92 LINE",
"187 51 LINE",
"187 51 OFFCURVE",
"228 -10 OFFCURVE",
"377 -10 CURVE",
"522 -10 OFFCURVE",
"557 68 OFFCURVE",
"557 138 CURVE",
"557 217 OFFCURVE",
"502 254 OFFCURVE",
"417 302 CURVE",
"372 328 OFFCURVE",
"362 359 OFFCURVE",
"362 381 CURVE",
"362 419 OFFCURVE",
"389 448 OFFCURVE",
"453 468 CURVE",
"453 468 OFFCURVE",
"447 468 OFFCURVE",
"447 511 CURVE",
"447 594 OFFCURVE",
"384 671 OFFCURVE",
"275 671 CURVE",
"159 671 OFFCURVE",
"72 586 OFFCURVE",
"72 431 CURVE",
"72 29 LINE",
"72 -51 OFFCURVE",
"45 -70 OFFCURVE",
"-5 -70 CURVE",
"-29 -70 OFFCURVE",
"-50 -59 OFFCURVE",
"-50 -59 CURVE",
"-50 -100 LINE",
"-50 -100 OFFCURVE",
"-32 -110 OFFCURVE",
"13 -110 CURVE"
);
},
{
closed = 1;
nodes = (
"120 418 LINE",
"120 468 LINE",
"0 468 LINE",
"0 418 LINE"
);
}
);
width = 597;
},
{
associatedMasterId = "CA5CD7F6-F0E6-40F5-9716-481B35A0BC32";
layerId = "AC19325C-CD73-4106-AF21-209240F3CACD";
width = 600;
}
);
leftMetricsKey = j;
rightMetricsKey = b;
unicode = 00DF;
},
